<svg xmlns="http://www.w3.org/2000/svg" viewBox="0 0 900 500">

 <g>
  <title>Layer 1</title>
  <g id="background-complete">
   <path id="svg_1" fill="#e0e0e0" d="m53.52,380.81a33.08,33.08 0 0 0 -14.18,-4.88c-2.31,-0.24 -4.84,-0.17 -6.7,1.23a1.37,1.37 0 0 0 -0.69,1.23a1.47,1.47 0 0 0 0.65,0.83c5.77,4.41 14.5,5 20.92,1.59"/>
   <path id="svg_2" fill="#e0e0e0" d="m53.16,380.41a69.63,69.63 0 0 1 -9.16,-8.06a23.13,23.13 0 0 1 -5.74,-10.62a4.28,4.28 0 0 1 0.45,-3.55c7.3,5.7 13,13.07 14.45,22.23"/>
   <path id="svg_3" fill="#e0e0e0" d="m53.45,380.75a33,33 0 0 1 0.17,-12a16.24,16.24 0 0 1 6.4,-9.92c1.26,2.95 0.72,6.34 -0.17,9.43a45.9,45.9 0 0 1 -6.35,13.37"/>
   <path id="svg_4" fill="#e0e0e0" d="m60.6,393.58c-4.34,0.52 -8.12,2.81 -11.37,5.75a21.52,21.52 0 0 0 -6.5,11.17c4.26,-0.27 7.87,-3.27 10.5,-6.64s4.43,-7.07 7.31,-10.22"/>
   <path id="svg_5" fill="#e0e0e0" d="m62.16,395.63a28,28 0 0 1 3.24,-26.53c2.47,8.8 1.56,18.75 -3.24,26.53"/>
   <path id="svg_6" fill="#e0e0e0" d="m71.61,406.89a20.27,20.27 0 0 0 -19.39,11.16c-0.24,0.48 -0.45,1.09 -0.13,1.52a1.46,1.46 0 0 0 1.29,0.38c3.82,-0.25 7.21,-2.55 10,-5.17s5.23,-5.64 8.32,-7.9"/>
   <path id="svg_7" fill="#e0e0e0" d="m71.31,406.27a36.13,36.13 0 0 1 -0.31,-20.17c0.71,-2.6 1.9,-5.33 4.31,-6.55a0.84,0.84 0 0 1 0.65,-0.11a0.8,0.8 0 0 1 0.42,0.48a12.3,12.3 0 0 1 1,5.79a36.6,36.6 0 0 1 -0.91,5.86c-0.76,3.58 -1.16,7.42 -3.12,10.51a21.51,21.51 0 0 0 -1.25,2.31c-0.37,0.79 -0.38,1.06 -0.72,1.69"/>
   <path id="svg_8" fill="#e0e0e0" d="m96.34,410c-1.86,-7.05 0.11,-15.6 4.56,-21.38c0.32,-0.43 0.76,-0.89 1.29,-0.84c0.82,0.08 1,1.17 1,2a38.64,38.64 0 0 1 -6.85,20.22"/>
   <path id="svg_9" fill="#e0e0e0" d="m98.6,411.54a31.07,31.07 0 0 0 25.52,-5.19a20.64,20.64 0 0 0 -13.82,-1.69c-4.61,1 -8.83,3.12 -11.7,6.88"/>
   <path id="svg_10" fill="#e0e0e0" d="m100.5,406.85c4.8,-7.83 14,-12.93 23.17,-13.4c-1.06,3.73 -4.12,6.63 -7.58,8.38s-7.32,2.51 -11.12,3.25c-1.48,0.29 -3.51,0.61 -4.47,1.77"/>
   <path id="svg_11" fill="#e0e0e0" d="m96.82,384.06a67.39,67.39 0 0 0 3,-13.57a22.57,22.57 0 0 0 -2.7,-13.42c-4.49,8.67 -4.94,18.81 -0.4,27.45"/>
   <path id="svg_12" fill="#e0e0e0" d="m111.91,376.43c5.24,-9.53 15.94,-17.14 26.76,-18.21c-4.17,10.4 -15.56,18.43 -26.76,18.21"/>
   <path id="svg_13" fill="#e0e0e0" d="m108.61,378.3c7.82,1.19 14.48,6.18 21.79,9.21a9.72,9.72 0 0 0 4.92,0.94a4.27,4.27 0 0 0 3.71,-3a4.32,4.32 0 0 0 -1.29,-3.83a10.65,10.65 0 0 0 -3.58,-2.17c-8,-3.31 -16.49,-3.39 -24.88,-1.38"/>
   <path id="svg_14" fill="#e0e0e0" d="m104.09,383.78c1.77,0.51 2.37,1.43 3.77,2.62a40.84,40.84 0 0 0 16.52,8.49c0.64,0.15 1.46,0.22 1.78,-0.36s-0.08,-1.1 -0.43,-1.54a22.7,22.7 0 0 0 -10,-6.77c-3.81,-1.42 -7.11,-3.13 -11.66,-2.77"/>
   <path id="svg_15" fill="#e0e0e0" d="m99,350.66a31.27,31.27 0 0 0 24,8.16a1.63,1.63 0 0 0 1.09,-0.39c0.61,-0.66 -0.12,-1.67 -0.82,-2.22c-7.05,-5.5 -15.58,-7.78 -24.24,-5.55"/>
   <path id="svg_16" fill="#e0e0e0" d="m105,348.45a33.39,33.39 0 0 1 30,-4.94a23.8,23.8 0 0 1 -14.26,6.26a45.22,45.22 0 0 1 -15.74,-1.32"/>
   <path id="svg_17" fill="#e0e0e0" d="m102.63,333.23c-0.69,-7 -0.24,-12.59 -0.73,-19.66c0,-0.56 -0.16,-1.24 -0.69,-1.45c-0.74,-0.28 -1.35,0.62 -1.59,1.38a22.5,22.5 0 0 0 3,19.57"/>
   <path id="svg_18" fill="#e0e0e0" d="m102.12,334a41.3,41.3 0 0 0 11.65,-11.32c2.31,-3.15 4.25,-6.92 3.72,-10.79a11.15,11.15 0 0 0 -8.4,4.18a23.52,23.52 0 0 0 -4.29,8.62c-0.93,3.09 -1.58,6.27 -2.68,9.31"/>
   <path id="svg_19" fill="#e0e0e0" d="m113.57,330.82a93.89,93.89 0 0 0 28.68,-16.91c-3.43,-1.38 -7.35,-0.55 -10.77,0.83a34,34 0 0 0 -18.06,16"/>
   <path id="svg_20" fill="#e0e0e0" d="m105.34,337.85c5.29,0.58 10.67,1 15.92,0.08s10.05,-2.93 14.87,-4.93a1.76,1.76 0 0 0 1,-0.77a1.16,1.16 0 0 0 -0.36,-1.27a3.09,3.09 0 0 0 -1.27,-0.59c-5.24,-1.47 -10.9,-0.78 -16.06,1a74.3,74.3 0 0 0 -14.11,6.53"/>
   <path id="svg_21" fill="#e0e0e0" d="m75.11,350.9c-3.61,-7.29 -3.37,-15.8 -0.25,-23.31c2.19,3.35 2.46,7.61 2.06,11.59s-1.61,8.08 -1.69,12.08"/>
   <path id="svg_22" fill="#e0e0e0" d="m60.69,343.62a32.49,32.49 0 0 0 -24.16,10.3a22.59,22.59 0 0 0 13.22,-2.46a66.53,66.53 0 0 0 11.34,-7.58"/>
   <path id="svg_23" fill="#e0e0e0" d="m51,340.38c-4.42,-0.36 -8.66,-0.9 -12.9,0.4a15.48,15.48 0 0 0 -9.83,8.33a23.29,23.29 0 0 0 12.09,-2.28a70.45,70.45 0 0 0 10.64,-6.45"/>
   <path id="svg_24" fill="#e0e0e0" d="m65.35,340.53c-4,-2.6 -8,-5.25 -12.67,-6.33s-10,-0.28 -13.19,3.21c3.74,2.19 8.27,2.45 12.61,2.45s9.66,-0.06 13.74,1.39"/>
   <path id="svg_25" fill="#e0e0e0" d="m65.37,340.74c-6.78,-6.66 -9.37,-18.63 -6.63,-27.74a42.19,42.19 0 0 1 6.63,27.74"/>
   <path id="svg_26" fill="#e0e0e0" d="m84,321.86c1.28,-3 2.18,-6.09 3.32,-9.12a26.18,26.18 0 0 1 4.75,-8.41a12.48,12.48 0 0 1 8.4,-4.36a33.81,33.81 0 0 1 -16.31,21.94"/>
   <path id="svg_27" fill="#e0e0e0" d="m80.65,325.8c-2.12,-2.92 -4.56,-6.88 -7.43,-9.05s-6.61,-3.49 -10.12,-2.66a23.61,23.61 0 0 0 17.55,11.71"/>
   <path id="svg_28" fill="#e0e0e0" d="m81.33,322.1a50.09,50.09 0 0 1 -3.33,-10.83a16.92,16.92 0 0 1 1.7,-11c3.72,7 4.92,14.6 1.84,21.94"/>
   <path id="svg_29" fill="#e0e0e0" d="m84.06,300.24c2.11,-7 8.5,-12.11 15.4,-14.47a5.72,5.72 0 0 1 2.7,-0.41a2.36,2.36 0 0 1 2,1.67c0.25,1.18 -0.73,2.25 -1.65,3a52.3,52.3 0 0 1 -18.44,10.17"/>
   <path id="svg_30" fill="#e0e0e0" d="m84.14,294.54c0.27,-4.5 0.55,-9.07 2,-13.33s4.28,-8.26 8.39,-10.13c0.7,4.55 -1.31,9.07 -3.73,13s-5.33,7.6 -6.78,12"/>
   <path id="svg_31" fill="#e0e0e0" d="m84,297.63c-1.75,-5.08 -1.93,-11.54 -5,-16c-2.13,-3.1 -5.54,-5.21 -7.37,-8.49a12.94,12.94 0 0 0 0.42,9.64a27.93,27.93 0 0 0 5.64,8.06c2.25,2.41 4.18,4.22 6.28,6.76"/>
   <path id="svg_32" fill="#e0e0e0" d="m84.06,447.41c-0.13,0 -0.25,-33.92 -0.26,-75.77s0.09,-75.78 0.23,-75.78s0.25,33.92 0.26,75.78s-0.09,75.77 -0.23,75.77z"/>
   <path id="svg_33" fill="#e0e0e0" d="m113.71,345.78a7.48,7.48 0 0 1 -1.27,0.48l-3.52,1.19c-3,1 -7,2.46 -11.44,4.27s-8.49,3.4 -10.83,5.43a7.92,7.92 0 0 0 -2.18,2.88c-0.34,0.8 -0.4,1.29 -0.44,1.28s0,-0.12 0,-0.36a5.65,5.65 0 0 1 0.25,-1a7.75,7.75 0 0 1 2.13,-3.07a19.24,19.24 0 0 1 4.7,-2.92c1.88,-0.88 4,-1.79 6.18,-2.7c4.43,-1.82 8.52,-3.23 11.52,-4.15c1.49,-0.47 2.71,-0.82 3.56,-1a8.08,8.08 0 0 1 1.34,-0.33z"/>
   <path id="svg_34" fill="#e0e0e0" d="m123.43,321.91a2.26,2.26 0 0 1 -0.36,0.38l-1.09,1l-4.06,3.7l-13.53,12c-5.28,4.7 -9.84,9.19 -13,12.58c-1.58,1.68 -2.83,3.08 -3.68,4.06l-1,1.12c-0.23,0.26 -0.35,0.39 -0.37,0.37a2.41,2.41 0 0 1 0.29,-0.43c0.21,-0.27 0.51,-0.68 0.92,-1.18c0.8,-1 2,-2.46 3.57,-4.18a170.6,170.6 0 0 1 12.93,-12.7c5.3,-4.69 10.13,-8.91 13.63,-11.94l4.17,-3.58l1.15,-0.95a1.91,1.91 0 0 1 0.43,-0.25z"/>
   <path id="svg_35" fill="#e0e0e0" d="m98.69,343.83c-0.14,-0.06 1,-2.61 2.06,-5.83s1.64,-5.94 1.78,-5.92a20.32,20.32 0 0 1 -1.31,6.08a39.28,39.28 0 0 1 -1.64,4.08a6.22,6.22 0 0 1 -0.89,1.59z"/>
   <path id="svg_36" fill="#e0e0e0" d="m84.09,364.37a6.26,6.26 0 0 1 -0.81,-0.95l-2.09,-2.67c-1.75,-2.26 -4.17,-5.39 -6.88,-8.81s-5.21,-6.48 -7,-8.7l-2.13,-2.64a5.74,5.74 0 0 1 -0.73,-1a6.82,6.82 0 0 1 0.88,0.89c0.54,0.58 1.31,1.45 2.25,2.53c1.87,2.17 4.41,5.2 7.13,8.63s5.1,6.58 6.78,8.9c0.84,1.16 1.51,2.11 2,2.77a5.81,5.81 0 0 1 0.6,1.05z"/>
   <path id="svg_37" fill="#e0e0e0" d="m77.59,356a11.93,11.93 0 0 1 -2.72,-5.1a14.64,14.64 0 0 1 -0.62,-5.14l0.22,0c-0.1,0.39 -0.17,0.6 -0.21,0.59s0,-0.22 0,-0.63l0.22,0a23.53,23.53 0 0 0 0.87,5a38.33,38.33 0 0 0 2.24,5.28z"/>
   <path id="svg_38" fill="#e0e0e0" d="m69.2,345.46a8.91,8.91 0 0 0 -1.9,-1.1a12.75,12.75 0 0 0 -5.28,-0.42a32.11,32.11 0 0 0 -5.32,0.86a15.49,15.49 0 0 1 -2.19,0.52a7.85,7.85 0 0 1 2.1,-0.86a24.38,24.38 0 0 1 5.37,-1a11.55,11.55 0 0 1 5.45,0.59a3.41,3.41 0 0 1 1.77,1.41z"/>
   <path id="svg_39" fill="#e0e0e0" d="m67.21,342.9c0,0.08 -1.11,-0.44 -2.91,-1.06a29.88,29.88 0 0 0 -7.3,-1.49a30.46,30.46 0 0 0 -7.42,0.37c-1.87,0.34 -3,0.69 -3,0.61a2.89,2.89 0 0 1 0.78,-0.33a18.31,18.31 0 0 1 2.2,-0.62a26,26 0 0 1 14.86,1.14a19.06,19.06 0 0 1 2.09,0.94a3.16,3.16 0 0 1 0.7,0.44z"/>
   <path id="svg_40" fill="#e0e0e0" d="m84,332.08a59.16,59.16 0 0 1 -2.13,-7.37a60.8,60.8 0 0 1 -1.65,-7.51a59.67,59.67 0 0 1 2.13,7.38a61.31,61.31 0 0 1 1.65,7.5z"/>
   <path id="svg_41" fill="#e0e0e0" d="m84.16,332.08a35.12,35.12 0 0 0 -2.35,-4.41a19.23,19.23 0 0 0 -3.47,-3.58a3.2,3.2 0 0 1 1.34,0.69a10.84,10.84 0 0 1 2.53,2.6a9.75,9.75 0 0 1 1.95,4.7z"/>
   <path id="svg_42" fill="#e0e0e0" d="m84.06,429.33s-0.15,-0.82 -0.53,-2.26a32.16,32.16 0 0 0 -2.27,-5.87a81.45,81.45 0 0 0 -12,-16.95c-2.69,-3.07 -5.29,-6 -7.5,-8.74a60.62,60.62 0 0 1 -5.37,-7.73a37.41,37.41 0 0 1 -2.74,-5.78c-0.25,-0.7 -0.43,-1.26 -0.53,-1.64a3.25,3.25 0 0 1 -0.14,-0.58s0.29,0.77 0.85,2.16a42.46,42.46 0 0 0 2.83,5.63a64,64 0 0 0 5.42,7.63c2.22,2.74 4.83,5.62 7.52,8.7c5.43,6.1 9.69,12.25 12,17.12a28.87,28.87 0 0 1 2.14,6a16,16 0 0 1 0.3,1.7a2.46,2.46 0 0 1 0.02,0.61z"/>
   <path id="svg_43" fill="#e0e0e0" d="m110.85,399.07a12.91,12.91 0 0 1 -1.4,0.78a31.28,31.28 0 0 0 -3.64,2.41a41.91,41.91 0 0 0 -4.79,4.36c-1.67,1.78 -3.4,3.84 -5.17,6c-3.53,4.43 -6.83,8.35 -8.8,11.48c-1,1.55 -1.74,2.86 -2.22,3.77a11.9,11.9 0 0 1 -0.77,1.42a1.52,1.52 0 0 1 0.13,-0.4c0.11,-0.25 0.25,-0.63 0.47,-1.1a37,37 0 0 1 2.09,-3.88c1.92,-3.2 5.2,-7.17 8.72,-11.59c1.77,-2.21 3.52,-4.28 5.23,-6.05a38.45,38.45 0 0 1 4.9,-4.33a26.13,26.13 0 0 1 3.76,-2.3c0.47,-0.23 0.85,-0.37 1.1,-0.48s0.39,-0.11 0.39,-0.09z"/>
   <path id="svg_44" fill="#e0e0e0" d="m111.38,408.88a20.88,20.88 0 0 1 -3,0.43a40,40 0 0 0 -7,1.39a21.1,21.1 0 0 0 -6.3,3.31c-1.45,1.12 -2.14,2.05 -2.21,2a2.28,2.28 0 0 1 0.44,-0.69a11.6,11.6 0 0 1 1.55,-1.58a19,19 0 0 1 6.37,-3.51a32,32 0 0 1 7.16,-1.26a17.59,17.59 0 0 1 2.99,-0.09z"/>
   <path id="svg_45" fill="#e0e0e0" d="m93.73,414.93c-0.16,-0.09 1.18,-2.13 2.22,-4.88s1.2,-5.21 1.38,-5.18a4.83,4.83 0 0 1 0,1.59a17.1,17.1 0 0 1 -0.87,3.76a18.54,18.54 0 0 1 -1.72,3.44a5.2,5.2 0 0 1 -1.01,1.27z"/>
   <path id="svg_46" fill="#e0e0e0" d="m119.53,372.71a2.7,2.7 0 0 1 -0.47,0.25l-1.4,0.64c-0.61,0.26 -1.35,0.59 -2.19,1s-1.81,0.88 -2.83,1.49l-1.64,0.91c-0.56,0.32 -1.12,0.71 -1.71,1.08c-1.19,0.72 -2.39,1.61 -3.67,2.52a62.74,62.74 0 0 0 -14.11,14.61c-0.87,1.31 -1.72,2.53 -2.4,3.75c-0.35,0.61 -0.72,1.17 -1,1.75s-0.59,1.12 -0.86,1.65c-0.58,1 -1,2 -1.4,2.88s-0.72,1.6 -1,2.22s-0.43,1 -0.58,1.42a1.83,1.83 0 0 1 -0.24,0.48a3.49,3.49 0 0 1 0.15,-0.52c0.13,-0.38 0.29,-0.86 0.5,-1.45a24.13,24.13 0 0 1 0.88,-2.26c0.38,-0.87 0.78,-1.88 1.34,-2.93c0.26,-0.54 0.55,-1.09 0.84,-1.67s0.65,-1.16 1,-1.77c0.67,-1.24 1.51,-2.48 2.38,-3.8a60.15,60.15 0 0 1 14.22,-14.72c1.29,-0.91 2.5,-1.79 3.71,-2.51c0.6,-0.36 1.17,-0.74 1.74,-1.06l1.64,-0.89c1,-0.6 2,-1 2.88,-1.44s1.61,-0.72 2.24,-1l1.43,-0.55a1.93,1.93 0 0 1 0.55,-0.08z"/>
   <path id="svg_47" fill="#e0e0e0" d="m98.33,386.92a3.35,3.35 0 0 1 1.16,-1.74a7.38,7.38 0 0 1 4.7,-1.8a12.83,12.83 0 0 1 4.94,1a6.72,6.72 0 0 1 1.87,0.91a11.51,11.51 0 0 1 -2,-0.58a15,15 0 0 0 -4.81,-0.8a7.7,7.7 0 0 0 -4.49,1.57a12.49,12.49 0 0 0 -1.37,1.44z"/>
   <path id="svg_48" fill="#e0e0e0" d="m95.16,390.19a18,18 0 0 0 1.33,-4.34a17.87,17.87 0 0 0 -0.3,-4.53c0.06,0 0.32,0.43 0.55,1.26a8.92,8.92 0 0 1 0.24,3.32a8.82,8.82 0 0 1 -1,3.18a3.06,3.06 0 0 1 -0.82,1.11z"/>
   <path id="svg_49" fill="#e0e0e0" d="m60.63,434.19c0.73,13 4.64,26.15 10.65,39.48l26.13,0c5.73,-13.2 9.37,-26.36 10,-39.48l-46.78,0z"/>
   <path id="svg_50" fill="#fafafa" d="m103.19,455.17c0,0.14 -8.6,0.25 -19.22,0.25s-19.22,-0.11 -19.22,-0.25s8.61,-0.24 19.22,-0.24s19.22,0.07 19.22,0.24z"/>
   <path id="svg_51" fill="#fafafa" d="m102.61,459.87c0,0.13 -8.07,0.24 -18,0.24s-18,-0.11 -18,-0.24s8.07,-0.25 18,-0.25s18,0.11 18,0.25z"/>
   <path id="svg_52" fill="#fafafa" d="m71.7,442.7a75.62,75.62 0 0 1 0,12a72.61,72.61 0 0 1 0,-12z"/>
   <path id="svg_53" fill="#fafafa" d="m85.7,442.7a77.88,77.88 0 0 1 0,12.47a81.11,81.11 0 0 1 0,-12.47z"/>
   <path id="svg_54" fill="#fafafa" d="m98.85,442.6a84.26,84.26 0 0 1 0,12.71a80.9,80.9 0 0 1 0,-12.71z"/>
   <path id="svg_55" fill="#fafafa" d="m106.6,442.7c0,0.14 -10.1,0.25 -22.54,0.25s-22.54,-0.11 -22.54,-0.25s10.09,-0.24 22.54,-0.24s22.54,0.11 22.54,0.24z"/>
   <path id="svg_56" fill="#e0e0e0" d="m551.71,71.61a3.92,3.92 0 0 1 0.62,-0.7l1.8,-1.81c1.53,-1.51 3.67,-3.58 6,-5.85l0.05,0l0,0.3c-2.39,-2.22 -4.54,-4.25 -6.08,-5.73l-1.76,-1.82a4.1,4.1 0 0 1 -0.63,-0.69a4.66,4.66 0 0 1 0.74,0.57l1.9,1.68c1.59,1.43 3.77,3.42 6.17,5.65l0.16,0.15l-0.16,0.15l0,0c-2.38,2.27 -4.55,4.31 -6.14,5.77l-1.94,1.72a4.2,4.2 0 0 1 -0.73,0.61z"/>
   <path id="svg_57" fill="#e0e0e0" d="m533.22,55.3a4.14,4.14 0 0 1 -0.62,0.71l-1.8,1.81c-1.53,1.51 -3.67,3.58 -6,5.85l-0.06,0l0,-0.31c2.4,2.23 4.55,4.26 6.09,5.74l1.81,1.77a4.14,4.14 0 0 1 0.62,0.69a3.78,3.78 0 0 1 -0.73,-0.57l-1.9,-1.67c-1.6,-1.43 -3.78,-3.42 -6.17,-5.65l-0.17,-0.15l0.16,-0.16l0.06,0c2.38,-2.26 4.54,-4.3 6.13,-5.76l1.89,-1.71a4,4 0 0 1 0.69,-0.59z"/>
   <path id="svg_58" fill="#e0e0e0" d="m538,75.46c-0.11,0 1.83,-5.5 4.33,-12.19s4.62,-12.08 4.73,-12s-1.83,5.49 -4.34,12.18s-4.64,12.05 -4.72,12.01z"/>
   <path id="svg_59" fill="#e0e0e0" d="m572.72,87.13s0,-0.32 0,-0.91s0,-1.49 0,-2.63c0,-2.3 0,-5.66 0,-9.94c0,-8.55 0,-20.78 -0.09,-35.53l0.17,0.18l-60.13,0l0,0l0.21,-0.21c0,17.72 0,34.45 0,49l-0.19,-0.19l43.31,0.1l12.31,0l3.26,0l0,0l-3.23,0l-12.27,0l-43.55,0.09l-0.19,0l0,-0.18c0,-14.56 0,-31.29 0,-49l0,-0.21l0.22,0l60.13,0l0.18,0l0,0.17c0,14.79 -0.07,27.06 -0.09,35.64c0,4.26 0,7.61 0,9.9c0,1.13 0,2 0,2.59s-0.05,1.13 -0.05,1.13z"/>
   <path id="svg_60" fill="#e0e0e0" d="m573.19,45.39c0,0.12 -13.57,0.21 -30.32,0.21s-30.32,-0.09 -30.32,-0.21s13.58,-0.21 30.32,-0.21s30.32,0.1 30.32,0.21z"/>
   <path id="svg_61" fill="#e0e0e0" d="m517.49,41.82a0.81,0.81 0 1 1 -1.62,0a0.81,0.81 0 1 1 1.62,0z"/>
   <path id="svg_62" fill="#e0e0e0" d="m520.44,41.82a0.81,0.81 0 1 1 -1.62,0a0.81,0.81 0 1 1 1.62,0z"/>
   <path id="svg_63" fill="#e0e0e0" d="m523.39,41.82a0.81,0.81 0 0 1 -1.62,0a0.81,0.81 0 1 1 1.62,0z"/>
   <path id="svg_64" fill="#e0e0e0" d="m638.6,140.8a8.36,8.36 0 0 1 8.69,-8.49a8,8 0 0 1 6,2.32l-0.77,0.79a7,7 0 0 0 -5.15,-2a7.38,7.38 0 1 0 0,14.75a7,7 0 0 0 5.15,-2l0.77,0.79a8,8 0 0 1 -6,2.34a8.37,8.37 0 0 1 -8.69,-8.5z"/>
   <path id="svg_65" fill="#e0e0e0" d="m655.54,147l0.55,-0.91a8,8 0 0 0 5.53,2.11c3.36,0 4.84,-1.46 4.84,-3.28c0,-5 -10.46,-2 -10.46,-8.19c0,-2.37 1.82,-4.45 5.94,-4.45a9,9 0 0 1 5,1.51l-0.46,1a8.28,8.28 0 0 0 -4.59,-1.42c-3.26,0 -4.72,1.51 -4.72,3.36c0,5 10.46,2 10.46,8.13c0,2.37 -1.89,4.43 -6,4.43a8.62,8.62 0 0 1 -6.09,-2.29z"/>
   <path id="svg_66" fill="#e0e0e0" d="m670.12,147l0.55,-0.91a8,8 0 0 0 5.53,2.11c3.35,0 4.84,-1.46 4.84,-3.28c0,-5 -10.46,-2 -10.46,-8.19c0,-2.37 1.82,-4.45 5.93,-4.45a8.94,8.94 0 0 1 5,1.51l-0.45,1a8.28,8.28 0 0 0 -4.6,-1.42c-3.25,0 -4.71,1.51 -4.71,3.36c0,5 10.46,2 10.46,8.13c0,2.37 -1.89,4.43 -6,4.43a8.58,8.58 0 0 1 -6.09,-2.29z"/>
   <path id="svg_67" fill="#e0e0e0" d="m696.52,162.59s0,-0.31 0,-0.89s0,-1.45 0,-2.55c0,-2.25 0,-5.52 -0.06,-9.69c0,-8.38 -0.07,-20.4 -0.12,-35.07l0.23,0.23l-74.63,0.06l0,0l0.29,-0.29c0,17.12 0,33.41 0,48.2l-0.27,-0.27l53.68,0.13l15.4,0.07l4.11,0l1.07,0l0.37,0l-0.34,0l-1,0l-4,0l-15.34,0.08l-53.86,0.13l-0.27,0l0,-0.27c0,-14.79 0,-31.08 0,-48.2l0,-0.3l0.3,0l74.63,0.06l0.23,0l0,0.23c0,14.73 -0.09,26.8 -0.12,35.21c0,4.16 0,7.41 -0.06,9.64c0,1.09 0,1.92 0,2.51s-0.24,0.98 -0.24,0.98z"/>
   <path id="svg_68" fill="#e0e0e0" d="m696.52,121.54c0,0.16 -16.72,0.3 -37.33,0.3s-37.33,-0.14 -37.33,-0.3s16.71,-0.29 37.33,-0.29s37.33,0.13 37.33,0.29z"/>
   <path id="svg_69" fill="#e0e0e0" d="m627.41,118a0.92,0.92 0 1 1 -0.91,-0.8a0.86,0.86 0 0 1 0.91,0.8z"/>
   <path id="svg_70" fill="#e0e0e0" d="m630.72,118a0.92,0.92 0 1 1 -0.91,-0.8a0.86,0.86 0 0 1 0.91,0.8z"/>
   <path id="svg_71" fill="#e0e0e0" d="m634,118a0.92,0.92 0 1 1 -0.91,-0.8a0.86,0.86 0 0 1 0.91,0.8z"/>
   <path id="svg_72" fill="#e0e0e0" d="m112.09,233.8s0,-0.35 0,-1s0,-1.67 0,-3c0,-2.61 0,-6.42 0,-11.33c0,-9.79 0,-23.91 -0.08,-41.25l0.16,0.16l-97.75,0l0,0l0.2,-0.2c0,20 0,39.14 0,56.56l-0.19,-0.19l70.31,0.09l20.19,0.06l5.38,0l0.05,0l-5.35,0l-20.15,0.05l-70.53,0.25l-0.19,0l0,-0.19c0,-17.42 0,-36.54 0,-56.56l0,-0.25l0.21,0l97.75,0.05l0.15,0l0,0.15c0,17.38 -0.06,31.53 -0.08,41.35c0,4.89 0,8.69 0,11.29c0,1.28 0,2.26 0,2.93s-0.08,1.03 -0.08,1.03z"/>
   <path id="svg_73" fill="#e0e0e0" d="m112.12,184.09c0,0.11 -21.86,0.2 -48.83,0.2s-48.84,-0.09 -48.84,-0.2s21.87,-0.2 48.84,-0.2s48.83,0.11 48.83,0.2z"/>
   <rect id="svg_74" fill="#f5f5f5" height="30.2" width="30.2" y="193.42" x="22.8"/>
   <path id="svg_75" fill="#e0e0e0" d="m105,198.4l-0.45,0l-1.27,0l-4.68,0.07l-15.46,0.06l-15.45,-0.06l-4.69,0l-1.28,0l-0.44,0a1.38,1.38 0 0 1 0.44,0l1.28,0l4.68,-0.06l15.45,-0.06l15.46,0.06l4.68,0.06l1.27,0a1.48,1.48 0 0 1 0.46,-0.07z"/>
   <path id="svg_76" fill="#e0e0e0" d="m106,205.14a1.48,1.48 0 0 1 -0.45,0l-1.31,0l-4.78,0.06l-15.8,0.06l-15.8,-0.06l-4.86,0.02l-1.3,0a1.42,1.42 0 0 1 -0.45,0a1.94,1.94 0 0 1 0.45,0l1.3,0l4.79,-0.06l15.8,-0.06l15.8,0.06l4.78,0.06l1.31,0a2,2 0 0 1 0.52,-0.08z"/>
   <path id="svg_77" fill="#e0e0e0" d="m106,211.89a3.33,3.33 0 0 1 -0.45,0l-1.31,0l-4.78,0.07l-15.8,0.06l-15.83,-0.02l-4.83,0l-1.3,0a3.09,3.09 0 0 1 -0.45,0a1.42,1.42 0 0 1 0.45,0l1.3,0l4.79,-0.06l15.8,-0.06l15.8,0.06l4.78,0.06l1.31,0a1.48,1.48 0 0 1 0.52,-0.11z"/>
   <path id="svg_78" fill="#e0e0e0" d="m106,218.63a1.48,1.48 0 0 1 -0.45,0l-1.31,0l-4.78,0.06l-15.8,0.06l-15.8,-0.06l-4.86,0.02l-1.3,0a1.42,1.42 0 0 1 -0.45,0a1.94,1.94 0 0 1 0.45,0l1.3,0l4.79,-0.06l15.8,-0.06l15.8,0.06l4.78,0.06l1.31,0a2,2 0 0 1 0.52,-0.08z"/>
   <path id="svg_79" fill="#e0e0e0" d="m210.15,103.25s0,-0.36 0,-1s0,-1.65 0,-2.92c0,-2.56 0,-6.3 0,-11.07c0,-9.56 -0.06,-23.26 -0.11,-39.89l0.21,0.21l-77,0l0,0l0.26,-0.26c0,19.66 0,38.31 0,54.9l-0.24,-0.24l55.5,0.12l15.83,0.06l4.21,0l1.09,0l0.38,0l-1.41,0l-4.17,0l-15.77,0.07l-55.66,0.11l-0.24,0l0,-0.23c0,-16.59 0,-35.24 0,-54.9l0,-0.26l0.27,0l77,0l0.21,0l0,0.21c0,16.69 -0.08,30.43 -0.11,40c0,4.75 0,8.48 -0.05,11q0,1.88 0,2.88c-0.18,0.88 -0.2,1.21 -0.2,1.21z"/>
   <path id="svg_80" fill="#e0e0e0" d="m159.11,73.84l0,10.9l-2.52,0l0,-4.47l-5,0l0,4.47l-2.52,0l0,-10.9l2.52,0l0,4.3l5,0l0,-4.3l2.52,0z"/>
   <path id="svg_81" fill="#e0e0e0" d="m164,75.9l-3.48,0l0,-2.06l9.48,0l0,2.06l-3.48,0l0,8.84l-2.52,0l0,-8.84z"/>
   <path id="svg_82" fill="#e0e0e0" d="m171.32,73.84l2.52,0l0,8.84l5.46,0l0,2.06l-8,0l0.02,-10.9z"/>
   <path id="svg_83" fill="#e0e0e0" d="m190.63,84.74l0,-6.54l-3.21,5.38l-1.14,0l-3.19,-5.24l0,6.4l-2.36,0l0,-10.9l2.08,0l4.08,6.77l4,-6.77l2.11,0l0,10.9l-2.37,0z"/>
   <path id="svg_84" fill="#e0e0e0" d="m210.75,56.5c0,0.13 -17.38,0.24 -38.82,0.24s-38.82,-0.11 -38.82,-0.24s17.38,-0.25 38.82,-0.25s38.82,0.11 38.82,0.25z"/>
   <path id="svg_85" fill="#e0e0e0" d="m139.43,52.49a1,1 0 1 1 -1,-0.91a1,1 0 0 1 1,0.91z"/>
   <path id="svg_86" fill="#e0e0e0" d="m143.21,52.49a1,1 0 1 1 -1,-0.91a1,1 0 0 1 1,0.91z"/>
   <path id="svg_87" fill="#e0e0e0" d="m147,52.49a1,1 0 1 1 -1,-0.91a1,1 0 0 1 1,0.91z"/>
   <path id="svg_88" fill="#e0e0e0" d="m685.18,352.42s0,-0.41 0,-1.19s0,-2 0,-3.47c0,-3.05 0,-7.52 0,-13.29c0,-11.53 -0.06,-28.21 -0.1,-48.85l0.18,0.19l-164.44,0.07l0,0l0.26,-0.26c0,23.39 0,46 0,66.8l-0.25,-0.25l117.91,0.12l34.2,0.07l9.16,0l2.37,0l0.81,0l-0.78,0l-2.34,0l-9.1,0l-34.15,0.07l-118.08,0.12l-0.25,0l0,-0.25c0,-20.83 0,-43.41 0,-66.8l0,-0.26l0.27,0l164.44,0.08l0.19,0l0,0.18c0,20.69 -0.08,37.4 -0.1,49c0,5.75 0,10.21 0,13.25c0,1.5 0,2.65 0,3.43s-0.2,1.24 -0.2,1.24z"/>
   <path id="svg_89" fill="#e0e0e0" d="m685.18,352.42s0,-0.41 0,-1.19s0,-2 0,-3.47c0,-3.05 0,-7.52 0,-13.29c0,-11.53 -0.06,-28.21 -0.1,-48.85l0.18,0.19l-164.44,0.07l0,0l0.26,-0.26c0,23.39 0,46 0,66.8l-0.25,-0.25l117.91,0.12l34.2,0.07l9.16,0l2.37,0l0.81,0l-0.78,0l-2.34,0l-9.1,0l-34.15,0.07l-118.08,0.12l-0.25,0l0,-0.25c0,-20.83 0,-43.41 0,-66.8l0,-0.26l0.27,0l164.44,0.08l0.19,0l0,0.18c0,20.69 -0.08,37.4 -0.1,49c0,5.75 0,10.21 0,13.25c0,1.5 0,2.65 0,3.43s-0.2,1.24 -0.2,1.24z"/>
   <path id="svg_90" fill="#e0e0e0" d="m520.9,294.63c0,-0.14 36.75,-0.26 82.09,-0.26s82.1,0.12 82.1,0.26s-36.75,0.26 -82.1,0.26s-82.09,-0.12 -82.09,-0.26z"/>
   <g id="svg_91" opacity="0.3">
    <path id="svg_92" fill="#e0e0e0" d="m527.78,290.6a1.2,1.2 0 1 1 -1.19,-1.19a1.19,1.19 0 0 1 1.19,1.19z"/>
   </g>
   <g id="svg_93" opacity="0.3">
    <path id="svg_94" fill="#e0e0e0" d="m531.87,290.6a1.2,1.2 0 1 1 -1.19,-1.19a1.19,1.19 0 0 1 1.19,1.19z"/>
   </g>
   <g id="svg_95" opacity="0.3">
    <path id="svg_96" fill="#e0e0e0" d="m535.9,290.6a1.2,1.2 0 1 1 -1.19,-1.19a1.19,1.19 0 0 1 1.19,1.19z"/>
   </g>
   <rect id="svg_97" fill="#e0e0e0" height="39.72" width="39.72" y="305.49" x="534.71"/>
   <path id="svg_98" fill="#e0e0e0" d="m673.8,316.13c0,0.15 -20.44,0.26 -45.64,0.26s-45.66,-0.11 -45.66,-0.26s20.44,-0.26 45.66,-0.26s45.64,0.13 45.64,0.26z"/>
   <path id="svg_99" fill="#e0e0e0" d="m673.8,324.22c0,0.15 -20.44,0.26 -45.64,0.26s-45.66,-0.11 -45.66,-0.26s20.44,-0.26 45.66,-0.26s45.64,0.12 45.64,0.26z"/>
   <path id="svg_100" fill="#e0e0e0" d="m641.28,332.32a4.13,4.13 0 0 1 -0.6,0.05l-1.71,0.05l-6.3,0.08l-20.78,0.08l-20.78,-0.08l-6.3,-0.08l-1.71,-0.05a4.13,4.13 0 0 1 -0.6,-0.05a2.41,2.41 0 0 1 0.6,-0.06l1.71,0l6.3,-0.09l20.78,-0.07l20.78,0.07l6.3,0.09l1.71,0a2.41,2.41 0 0 1 0.6,0.06z"/>
  </g>
  <g id="Plant">
   <path id="svg_102" fill="#263238" d="m197.2,407.16c-0.07,0.08 -0.65,-0.26 -1.29,-0.78s-1.12,-1 -1.05,-1.1s0.65,0.27 1.3,0.78s1.11,1.01 1.04,1.1z"/>
   <path id="svg_103" fill="#455a64" d="m214.84,380.79a20.2,20.2 0 0 0 -0.6,-7.32c-0.78,-2.34 -2.58,-4.5 -5,-5c-2.75,-0.57 -5.58,1.17 -7.12,3.52s-2.07,5.21 -2.53,8a282.59,282.59 0 0 0 -3.46,58l11.28,1.58c4.95,-20.28 6.53,-37.96 7.43,-58.78z"/>
   <path id="svg_104" fill="#263238" d="m207.68,368.39a1.35,1.35 0 0 1 -0.05,0.18l-0.19,0.51l-0.75,1.95c-0.16,0.42 -0.37,0.88 -0.54,1.4s-0.35,1.1 -0.54,1.71l-0.63,2c-0.19,0.71 -0.38,1.46 -0.59,2.24a97.63,97.63 0 0 0 -2.17,11.16c-0.61,4.24 -1,8.93 -1.33,13.87c-0.58,9.88 -0.67,18.85 -0.92,25.33c-0.12,3.24 -0.23,5.87 -0.36,7.68l-0.14,2.08c0,0.22 0,0.4 0,0.54l0,0.19a0.76,0.76 0 0 1 0,-0.19c0,-0.14 0,-0.32 0,-0.54c0,-0.51 0,-1.21 0.07,-2.09c0.07,-1.81 0.14,-4.44 0.22,-7.68c0.19,-6.48 0.23,-15.45 0.81,-25.35c0.31,-4.94 0.73,-9.64 1.36,-13.9a92.18,92.18 0 0 1 2.27,-11.17c0.21,-0.79 0.42,-1.53 0.61,-2.24s0.46,-1.35 0.66,-2s0.41,-1.18 0.58,-1.7s0.4,-1 0.57,-1.4c0.35,-0.81 0.62,-1.45 0.83,-1.92l0.22,-0.5c-0.03,-0.11 0,-0.17 0.01,-0.16z"/>
   <path id="svg_105" fill="#263238" d="m208.72,368.39a8.13,8.13 0 0 1 1.38,2.34a17.35,17.35 0 0 1 1,7.29c-0.3,6.23 -0.86,14.82 -1.6,24.29s-1.57,18.05 -2.24,24.25c-0.33,3.1 -0.62,5.6 -0.83,7.33c-0.11,0.84 -0.19,1.5 -0.26,2c0,0.21 -0.05,0.38 -0.07,0.52a1.37,1.37 0 0 1 0,0.17s0,-0.06 0,-0.18s0,-0.31 0,-0.52c0.05,-0.49 0.11,-1.16 0.18,-2c0.17,-1.77 0.41,-4.27 0.71,-7.34c0.59,-6.2 1.37,-14.77 2.12,-24.25s1.34,-18.06 1.71,-24.27a17.6,17.6 0 0 0 -0.89,-7.23a15.72,15.72 0 0 0 -1.21,-2.4z"/>
   <path id="svg_106" fill="#263238" d="m216.54,397.58a6.46,6.46 0 0 1 -2.14,-0.56a6.06,6.06 0 0 1 -2,-0.93a6.24,6.24 0 0 1 2.14,0.55a6,6 0 0 1 2,0.94z"/>
   <path id="svg_107" fill="#263238" d="m217.9,386.08a6.75,6.75 0 0 1 -2,1.13a6.86,6.86 0 0 1 -2.2,0.77a6.67,6.67 0 0 1 2,-1.13a6.78,6.78 0 0 1 2.2,-0.77z"/>
   <path id="svg_108" fill="#263238" d="m217.19,376.7c0,0.12 -0.76,0.15 -1.68,0.09s-1.66,-0.2 -1.65,-0.32a3.77,3.77 0 0 1 1.68,-0.08a3.62,3.62 0 0 1 1.65,0.31z"/>
   <path id="svg_109" fill="#263238" d="m205.56,370.7c-0.1,0.05 -0.59,-0.56 -1.1,-1.38a4.06,4.06 0 0 1 -0.77,-1.59c0.1,-0.06 0.59,0.56 1.11,1.38a4.12,4.12 0 0 1 0.76,1.59z"/>
   <path id="svg_110" fill="#263238" d="m201.71,376.37a6.62,6.62 0 0 1 -3.19,-0.07a3.31,3.31 0 0 1 1.6,-0.17c0.88,0.02 1.6,0.12 1.59,0.24z"/>
   <path id="svg_111" fill="#263238" d="m199,387.71c0,0.11 -0.79,-0.1 -1.68,-0.46s-1.58,-0.73 -1.54,-0.83a3.78,3.78 0 0 1 1.69,0.46c0.84,0.36 1.53,0.73 1.53,0.83z"/>
   <path id="svg_112" fill="#263238" d="m198.66,397.26c0,0.11 -0.62,0.33 -1.44,0.5a3.16,3.16 0 0 1 -1.51,0.12c0,-0.11 0.62,-0.34 1.43,-0.51s1.49,-0.22 1.52,-0.11z"/>
   <path id="svg_113" fill="#263238" d="m197.36,412.87c0,0.11 -0.66,0.32 -1.52,0.47a3.44,3.44 0 0 1 -1.6,0.09c0,-0.11 0.66,-0.33 1.52,-0.48s1.58,-0.19 1.6,-0.08z"/>
   <path id="svg_114" fill="#263238" d="m196.5,421.48c0.05,0.1 -0.52,0.5 -1.27,0.9s-1.41,0.64 -1.46,0.55s0.51,-0.5 1.27,-0.9s1.4,-0.65 1.46,-0.55z"/>
   <path id="svg_115" fill="#263238" d="m203.53,431.26c-0.09,0.06 -0.59,-0.63 -1.1,-1.52a4.45,4.45 0 0 1 -0.76,-1.73c0.09,-0.06 0.59,0.63 1.11,1.53a4.45,4.45 0 0 1 0.75,1.72z"/>
   <path id="svg_116" fill="#263238" d="m205.56,415c0.08,0.08 -0.47,0.75 -1.23,1.49s-1.44,1.28 -1.52,1.2a5.2,5.2 0 0 1 1.24,-1.49c0.76,-0.73 1.43,-1.27 1.51,-1.2z"/>
   <path id="svg_117" fill="#263238" d="m205.11,406.48c-0.08,0.08 -0.59,-0.34 -1.14,-0.93s-0.93,-1.14 -0.85,-1.22s0.59,0.35 1.15,0.94s0.92,1.14 0.84,1.21z"/>
   <path id="svg_118" fill="#263238" d="m206.51,395.59c0.08,0.07 -0.38,0.72 -1,1.45s-1.24,1.25 -1.33,1.18s0.38,-0.73 1,-1.45s1.25,-1.26 1.33,-1.18z"/>
   <path id="svg_119" fill="#263238" d="m207.29,387.68c-0.07,0.08 -0.72,-0.43 -1.43,-1.13s-1.23,-1.33 -1.15,-1.41s0.72,0.42 1.43,1.13s1.23,1.33 1.15,1.41z"/>
   <path id="svg_120" fill="#263238" d="m208.84,377a4.1,4.1 0 0 1 -0.72,1.6c-0.49,0.83 -1,1.45 -1.07,1.39a4.16,4.16 0 0 1 0.72,-1.6c0.5,-0.83 0.97,-1.46 1.07,-1.39z"/>
   <path id="svg_121" fill="#263238" d="m211.74,367.08c0.1,0.06 -0.18,0.77 -0.63,1.61s-0.9,1.46 -1,1.41a4,4 0 0 1 0.64,-1.61c0.45,-0.83 0.89,-1.49 0.99,-1.41z"/>
   <path id="svg_122" fill="#263238" d="m215,371.58c0,0.1 -0.41,0.42 -1,0.71s-1.13,0.44 -1.18,0.34s0.4,-0.42 1,-0.71s1.18,-0.44 1.18,-0.34z"/>
   <path id="svg_123" fill="#263238" d="m215.12,407.16a4.65,4.65 0 0 1 -2.21,-0.54a4.53,4.53 0 0 1 -1.91,-1.22a12.56,12.56 0 0 1 2.07,0.85a12.26,12.26 0 0 1 2.05,0.91z"/>
   <path id="svg_124" fill="#263238" d="m213.77,414.69c0,0.11 -0.66,0.34 -1.52,0.5s-1.57,0.21 -1.59,0.1s0.66,-0.33 1.52,-0.49s1.57,-0.22 1.59,-0.11z"/>
   <path id="svg_125" fill="#263238" d="m212.11,427.61a6.38,6.38 0 0 1 -2.79,-3.52a13.56,13.56 0 0 1 1.39,1.77a12.5,12.5 0 0 1 1.4,1.75z"/>
   <path id="svg_126" fill="#263238" d="m194,433.52c-0.07,-0.08 0.39,-0.59 1,-1.14s1.22,-0.92 1.29,-0.83s-0.39,0.59 -1,1.14s-1.23,0.92 -1.29,0.83z"/>
   <path id="svg_127" fill="#455a64" d="m188.78,405.32c-0.73,-2.29 -2.11,-5 -4.52,-5a4,4 0 0 0 -3.38,2.26a8.27,8.27 0 0 0 -0.91,4.15a107.58,107.58 0 0 0 5.17,30l8.8,0a104.47,104.47 0 0 0 -5.16,-31.41z"/>
   <path id="svg_128" fill="#455a64" d="m172.86,390.9a9.79,9.79 0 0 0 -9.17,-7.83c-3.89,0.68 -5.4,4.52 -5.86,8.44s0.76,7.83 2,11.59q5.79,18.12 11.59,36.25l10.95,-1.2c-3.51,-16.15 -5.5,-31.15 -9.51,-47.25z"/>
   <path id="svg_129" fill="#263238" d="m184.26,400.33a9,9 0 0 0 -0.74,1.24a8.15,8.15 0 0 0 -0.41,3.89c0.17,1.68 0.36,3.69 0.64,5.9s0.68,4.64 1.18,7.16c1,5.06 2.11,9.6 2.83,12.91c0.36,1.65 0.63,3 0.8,3.92q0.1,0.64 0.18,1.08c0,0.25 0.06,0.38 0,0.38a1.62,1.62 0 0 1 -0.11,-0.37l-0.26,-1.05c-0.24,-1 -0.55,-2.3 -0.93,-3.9c-0.78,-3.29 -2,-7.82 -3,-12.89c-0.49,-2.53 -0.88,-5 -1.15,-7.19c-0.14,-1.11 -0.23,-2.18 -0.32,-3.17s-0.19,-1.91 -0.24,-2.76a8,8 0 0 1 0.55,-4a3.56,3.56 0 0 1 0.98,-1.15z"/>
   <path id="svg_130" fill="#263238" d="m163.85,382.76a15.32,15.32 0 0 0 -1.32,1.78a12.55,12.55 0 0 0 -1.67,5.73a26.33,26.33 0 0 0 1.36,8.82l3.12,10.59c2.19,7.5 4.16,14.3 5.61,19.27c0.69,2.44 1.25,4.42 1.65,5.85l0.43,1.6a3.26,3.26 0 0 1 0.13,0.56a2.32,2.32 0 0 1 -0.21,-0.54c-0.12,-0.4 -0.29,-0.92 -0.5,-1.58c-0.43,-1.41 -1,-3.39 -1.78,-5.81c-1.47,-5 -3.49,-11.74 -5.71,-19.24c-1.1,-3.76 -2.15,-7.34 -3.1,-10.6a26.13,26.13 0 0 1 -1.28,-8.94a12.13,12.13 0 0 1 1.82,-5.79a6.74,6.74 0 0 1 1.45,-1.7z"/>
   <path id="svg_131" fill="#263238" d="m179.94,437a3.35,3.35 0 0 1 -0.24,-0.53c-0.15,-0.35 -0.38,-0.86 -0.63,-1.54c-0.52,-1.34 -1.19,-3.32 -1.88,-5.81s-1.38,-5.49 -2,-8.83s-1.33,-7 -2.07,-10.9s-1.61,-7.5 -2.59,-10.76a60.05,60.05 0 0 0 -3.19,-8.44a44.33,44.33 0 0 0 -3,-5.32c-0.37,-0.61 -0.71,-1.05 -0.92,-1.38a2.13,2.13 0 0 1 -0.3,-0.49a4.44,4.44 0 0 1 0.37,0.45c0.22,0.3 0.59,0.73 1,1.33a39,39 0 0 1 3.08,5.29a56.83,56.83 0 0 1 3.29,8.45a107.32,107.32 0 0 1 2.64,10.79c0.72,3.87 1.41,7.55 2,10.9s1.29,6.35 1.95,8.83s1.28,4.48 1.76,5.84c0.22,0.69 0.43,1.2 0.55,1.57a2,2 0 0 1 0.18,0.55z"/>
   <path id="svg_132" fill="#263238" d="m160,401.29c0,0.11 -0.57,0.35 -1.33,0.53s-1.4,0.25 -1.43,0.14s0.57,-0.34 1.33,-0.53s1.43,-0.25 1.43,-0.14z"/>
   <path id="svg_133" fill="#263238" d="m158.83,393.82a5.53,5.53 0 0 1 -1.85,0.2a5.37,5.37 0 0 1 -1.86,-0.06a6.29,6.29 0 0 1 3.71,-0.14z"/>
   <path id="svg_134" fill="#263238" d="m160.06,387c-0.07,0.08 -0.67,-0.3 -1.33,-0.86s-1.14,-1.09 -1.07,-1.17s0.67,0.3 1.33,0.86s1.14,1.08 1.07,1.17z"/>
   <path id="svg_135" fill="#263238" d="m163.4,380.67c0.11,0 0.08,0.56 0.06,1.2s0,1.18 -0.13,1.2s-0.29,-0.52 -0.27,-1.21s0.23,-1.22 0.34,-1.19z"/>
   <path id="svg_136" fill="#263238" d="m170.23,383.65c0.09,0.06 -0.18,0.6 -0.6,1.2s-0.84,1 -0.93,1s0.18,-0.61 0.6,-1.21s0.84,-1.06 0.93,-0.99z"/>
   <path id="svg_137" fill="#263238" d="m174.66,391.34c0,0.11 -0.53,0.44 -1.27,0.74s-1.38,0.46 -1.42,0.36s0.53,-0.43 1.27,-0.73s1.38,-0.47 1.42,-0.37z"/>
   <path id="svg_138" fill="#263238" d="m177.35,399.26a3.32,3.32 0 0 1 -1.74,0.76a3.36,3.36 0 0 1 -1.89,0.07a6.88,6.88 0 0 1 1.8,-0.46a7.73,7.73 0 0 1 1.83,-0.37z"/>
   <path id="svg_139" fill="#263238" d="m165,397c-0.11,0 0,-0.58 0.17,-1.22s0.45,-1.13 0.55,-1.1s0,0.58 -0.17,1.22s-0.44,1.15 -0.55,1.1z"/>
   <path id="svg_140" fill="#263238" d="m166.73,407a3.87,3.87 0 0 1 0.49,-1.65c0.38,-0.86 0.77,-1.53 0.87,-1.49a3.77,3.77 0 0 1 -0.5,1.65c-0.37,0.83 -0.76,1.49 -0.86,1.49z"/>
   <path id="svg_141" fill="#263238" d="m162.47,409.68a4.13,4.13 0 0 1 -1.57,-0.35c-0.84,-0.26 -1.52,-0.5 -1.5,-0.61a3,3 0 0 1 1.6,0.28c0.88,0.22 1.52,0.58 1.47,0.68z"/>
   <path id="svg_142" fill="#263238" d="m164.93,417.79c0.06,0.09 -0.41,0.53 -1.05,1s-1.22,0.76 -1.28,0.67s0.4,-0.54 1,-1s1.26,-0.77 1.33,-0.67z"/>
   <path id="svg_143" fill="#263238" d="m166.89,425.87c0,0.11 -0.55,0.34 -1.29,0.52s-1.37,0.24 -1.4,0.13s0.56,-0.34 1.3,-0.52s1.37,-0.24 1.39,-0.13z"/>
   <path id="svg_144" fill="#263238" d="m177.56,406c0.06,0.09 -0.44,0.49 -1.16,0.76s-1.36,0.3 -1.38,0.19s0.55,-0.31 1.24,-0.57s1.25,-0.46 1.3,-0.38z"/>
   <path id="svg_145" fill="#263238" d="m179.09,418.59c0,0.1 -0.64,-0.08 -1.32,-0.4s-1.2,-0.66 -1.15,-0.76s0.64,0.08 1.32,0.4s1.19,0.66 1.15,0.76z"/>
   <path id="svg_146" fill="#263238" d="m181.78,427.59a4.34,4.34 0 0 1 -1.75,-0.47a4.18,4.18 0 0 1 -1.59,-0.84a3.93,3.93 0 0 1 1.74,0.47c0.92,0.36 1.64,0.73 1.6,0.84z"/>
   <path id="svg_147" fill="#263238" d="m167.32,434.64c-0.05,-0.11 0.67,-0.59 1.5,-1.24s1.47,-1.24 1.55,-1.16s-0.44,0.8 -1.3,1.47a3.76,3.76 0 0 1 -1.75,0.93z"/>
   <path id="svg_148" fill="#263238" d="m174.44,430.06c-0.12,0 -0.27,-0.59 -0.55,-1.29s-0.56,-1.26 -0.46,-1.33s0.55,0.42 0.84,1.18s0.28,1.43 0.17,1.44z"/>
   <path id="svg_149" fill="#263238" d="m172.55,419.24c-0.06,0.09 -0.52,-0.13 -1,-0.49s-0.86,-0.73 -0.8,-0.82s0.53,0.13 1,0.49s0.87,0.73 0.8,0.82z"/>
   <path id="svg_150" fill="#263238" d="m189.14,402.28c0.06,0.09 -0.39,0.53 -1,1s-1.18,0.75 -1.24,0.66s0.38,-0.53 1,-1s1.17,-0.75 1.24,-0.66z"/>
   <path id="svg_151" fill="#263238" d="m191.64,409.11c0,0.11 -0.7,0.26 -1.56,0.16s-1.52,-0.38 -1.49,-0.48s0.71,0 1.53,0.08a4.56,4.56 0 0 1 1.52,0.24z"/>
   <path id="svg_152" fill="#263238" d="m180.89,410.65c0,0.1 -0.62,0.34 -1.46,0.39s-1.51,-0.09 -1.5,-0.2s0.67,-0.15 1.47,-0.2s1.47,-0.1 1.49,0.01z"/>
   <path id="svg_153" fill="#263238" d="m181.81,404.19c0,0.1 -0.66,0.12 -1.38,-0.21s-1.13,-0.84 -1.05,-0.91s0.57,0.25 1.22,0.54s1.23,0.46 1.21,0.58z"/>
   <path id="svg_154" fill="#263238" d="m192.56,416.45c-0.06,0.09 -0.73,-0.22 -1.5,-0.71s-1.35,-0.95 -1.29,-1s0.73,0.22 1.5,0.7s1.35,0.92 1.29,1.01z"/>
   <rect id="svg_155" fill="#FF725E" height="10.16" width="57.32" y="435.62" x="161.45"/>
   <polygon id="svg_156" fill="#FF725E" points="165.72999572753906,443.7699890136719 172.70001220703125,474.1300048828125 206.8699951171875,474.1300048828125 214.489990234375,443.7699890136719 165.72999572753906,443.7699890136719 "/>
   <path id="svg_157" fill="#263238" d="m218.74,445.8c0,0.11 -12.93,0.2 -28.87,0.2s-28.88,-0.09 -28.88,-0.2s12.93,-0.21 28.88,-0.21s28.87,0.09 28.87,0.21z"/>
   <path id="svg_158" fill="#263238" d="m186.86,410.87c-0.09,0.06 -0.48,-0.4 -0.87,-1s-0.63,-1.18 -0.53,-1.23s0.48,0.39 0.87,1s0.67,1.17 0.53,1.23z"/>
   <path id="svg_159" fill="#263238" d="m186.88,419a3.29,3.29 0 0 1 0.3,-1.54c0.28,-0.82 0.58,-1.45 0.69,-1.42a3.31,3.31 0 0 1 -0.3,1.55c-0.27,0.85 -0.57,1.49 -0.69,1.41z"/>
   <path id="svg_160" fill="#263238" d="m189.68,427.62c-0.1,0.05 -0.53,-0.64 -0.95,-1.53a4.2,4.2 0 0 1 -0.6,-1.71a4.29,4.29 0 0 1 1,1.54a4.07,4.07 0 0 1 0.55,1.7z"/>
   <path id="svg_161" fill="#263238" d="m183.63,434.53c-0.09,-0.08 0.26,-0.61 0.76,-1.19s1,-1 1.07,-0.92s-0.26,0.6 -0.76,1.18s-0.99,1 -1.07,0.93z"/>
   <path id="svg_162" fill="#263238" d="m182.36,422c0,0.11 -0.57,0.11 -1.23,0s-1.19,-0.3 -1.17,-0.41s0.57,-0.1 1.24,0s1.18,0.29 1.16,0.41z"/>
  </g>
  <g id="speech-bubble">
   <path id="svg_163" fill="#fafafa" d="m115.69,144.38l-6.69,-11.87a31.8,31.8 0 1 0 -7.62,8.48l0,0l14.31,3.39z"/>
   <path id="svg_164" fill="#263238" d="m115.69,144.38l-14.4,-3.25a0.13,0.13 0 0 1 -0.09,-0.16l0,-0.05l0,0l0.18,0.18a31.65,31.65 0 0 1 -15.25,6.44a27.81,27.81 0 0 1 -5,0.26c-0.86,0 -1.75,-0.07 -2.64,-0.14l-2.68,-0.41a32,32 0 0 1 -19.89,-12.75a31.64,31.64 0 0 1 -5.38,-12.3a32.42,32.42 0 0 1 0.36,-14.2a31.52,31.52 0 0 1 6.82,-13a32,32 0 0 1 12.28,-8.81a32.54,32.54 0 0 1 14.25,-2.19a31.3,31.3 0 0 1 13.09,3.88a32.29,32.29 0 0 1 15.1,18.58a34.43,34.43 0 0 1 1.38,10.35a31.68,31.68 0 0 1 -4.76,15.77l0,-0.13c4.19,7.55 6.2,11.17 6.63,11.93l-6.85,-11.8a0.15,0.15 0 0 1 0,-0.13a31.54,31.54 0 0 0 4.62,-15.65a34.23,34.23 0 0 0 -1.41,-10.22a31.91,31.91 0 0 0 -14.94,-18.29a31,31 0 0 0 -12.89,-3.79a32.15,32.15 0 0 0 -14,2.17a31.47,31.47 0 0 0 -12.06,8.62a30.86,30.86 0 0 0 -6.72,12.87a32.08,32.08 0 0 0 -0.44,13.94a31.36,31.36 0 0 0 5.28,12.11a31.68,31.68 0 0 0 19.57,12.63l2.66,0.41c0.88,0.08 1.75,0.1 2.6,0.15a28.15,28.15 0 0 0 5,-0.23a31.61,31.61 0 0 0 15.14,-6.28a0.13,0.13 0 0 1 0.19,0a0.15,0.15 0 0 1 0,0.16l0,0l-0.08,-0.2l14.33,3.53z"/>
   <polygon id="svg_165" fill="#FF725E" points="69.01 117.03 72.65 113.39 79.67 119.63 93.45 106.37 96.83 110.01 79.15 126.65 69.01 117.03"/>
  </g>
  <g id="Code">
   <path id="svg_166" fill="#263238" d="m539.39,310.49a6.31,6.31 0 0 1 2.5,-0.26l-0.26,0.26l0,0l0,-0.49c0,-0.15 0,-0.3 0,-0.47s0,-0.57 0.06,-0.79c0,-0.46 0.11,-0.74 0.18,-0.74s0.14,0.28 0.18,0.74c0,0.22 0.05,0.49 0.06,0.79s0,0.32 0,0.47l0,0.49l0,0l-0.26,0.26a6.11,6.11 0 0 1 -2.46,-0.26z"/>
   <path id="svg_167" fill="#263238" d="m529.56,310.49a11.77,11.77 0 0 1 4.92,0a11.77,11.77 0 0 1 -4.92,0z"/>
   <path id="svg_168" fill="#263238" d="m519.73,310.49a11.77,11.77 0 0 1 4.92,0a11.77,11.77 0 0 1 -4.92,0z"/>
   <path id="svg_169" fill="#263238" d="m509.9,310.49a11.77,11.77 0 0 1 4.92,0a11.77,11.77 0 0 1 -4.92,0z"/>
   <path id="svg_170" fill="#263238" d="m500.07,310.49a11.77,11.77 0 0 1 4.92,0a11.77,11.77 0 0 1 -4.92,0z"/>
   <path id="svg_171" fill="#263238" d="m490.25,310.49a11.72,11.72 0 0 1 4.91,0a11.72,11.72 0 0 1 -4.91,0z"/>
   <path id="svg_172" fill="#263238" d="m480.42,310.49a11.72,11.72 0 0 1 4.91,0a11.72,11.72 0 0 1 -4.91,0z"/>
   <path id="svg_173" fill="#263238" d="m470.59,310.49a11.72,11.72 0 0 1 4.91,0a11.72,11.72 0 0 1 -4.91,0z"/>
   <path id="svg_174" fill="#263238" d="m460.76,310.49a11.72,11.72 0 0 1 4.91,0a11.72,11.72 0 0 1 -4.91,0z"/>
   <path id="svg_175" fill="#263238" d="m450.93,310.49a11.72,11.72 0 0 1 4.91,0a11.72,11.72 0 0 1 -4.91,0z"/>
   <path id="svg_176" fill="#263238" d="m441.1,310.49a11.77,11.77 0 0 1 4.92,0a11.77,11.77 0 0 1 -4.92,0z"/>
   <path id="svg_177" fill="#263238" d="m431.27,310.49a11.77,11.77 0 0 1 4.92,0a11.77,11.77 0 0 1 -4.92,0z"/>
   <path id="svg_178" fill="#263238" d="m421.44,310.49a11.77,11.77 0 0 1 4.92,0a11.77,11.77 0 0 1 -4.92,0z"/>
   <path id="svg_179" fill="#263238" d="m411.61,310.49a11.77,11.77 0 0 1 4.92,0a11.77,11.77 0 0 1 -4.92,0z"/>
   <path id="svg_180" fill="#263238" d="m401.79,310.49a11.72,11.72 0 0 1 4.91,0a11.72,11.72 0 0 1 -4.91,0z"/>
   <path id="svg_181" fill="#263238" d="m392,310.49a11.72,11.72 0 0 1 4.91,0a11.72,11.72 0 0 1 -4.91,0z"/>
   <path id="svg_182" fill="#263238" d="m382.13,310.49a11.72,11.72 0 0 1 4.91,0a11.72,11.72 0 0 1 -4.91,0z"/>
   <path id="svg_183" fill="#263238" d="m372.3,310.49a11.72,11.72 0 0 1 4.91,0a11.72,11.72 0 0 1 -4.91,0z"/>
   <path id="svg_184" fill="#263238" d="m362.47,310.49a11.77,11.77 0 0 1 4.92,0a11.77,11.77 0 0 1 -4.92,0z"/>
   <path id="svg_185" fill="#263238" d="m352.64,310.49a11.77,11.77 0 0 1 4.92,0a11.77,11.77 0 0 1 -4.92,0z"/>
   <path id="svg_186" fill="#263238" d="m342.81,310.49a11.77,11.77 0 0 1 4.92,0a11.77,11.77 0 0 1 -4.92,0z"/>
   <path id="svg_187" fill="#263238" d="m333,310.49a11.77,11.77 0 0 1 4.92,0a11.77,11.77 0 0 1 -4.92,0z"/>
   <path id="svg_188" fill="#263238" d="m323.16,310.49a11.72,11.72 0 0 1 4.91,0a11.72,11.72 0 0 1 -4.91,0z"/>
   <path id="svg_189" fill="#263238" d="m313.33,310.49a11.72,11.72 0 0 1 4.91,0a11.72,11.72 0 0 1 -4.91,0z"/>
   <path id="svg_190" fill="#263238" d="m303.5,310.49a11.72,11.72 0 0 1 4.91,0a11.72,11.72 0 0 1 -4.91,0z"/>
   <path id="svg_191" fill="#263238" d="m296.08,308a6.11,6.11 0 0 1 0.26,2.5l-0.26,-0.26l1,0l0.79,0.06c0.45,0.05 0.73,0.11 0.73,0.18s-0.28,0.14 -0.73,0.19l-0.79,0.05l-0.47,0l-0.51,0l-0.26,-0.26a6.31,6.31 0 0 1 0.24,-2.46z"/>
   <path id="svg_192" fill="#263238" d="m296.08,299a10,10 0 0 1 0,4.52a10,10 0 0 1 0,-4.52z"/>
   <path id="svg_193" fill="#263238" d="m296.08,289.9a10,10 0 0 1 0,4.52a10,10 0 0 1 0,-4.52z"/>
   <path id="svg_194" fill="#263238" d="m296.08,280.85a10,10 0 0 1 0,4.53a10,10 0 0 1 0,-4.53z"/>
   <path id="svg_195" fill="#263238" d="m296.08,271.81a10,10 0 0 1 0,4.52a10,10 0 0 1 0,-4.52z"/>
   <path id="svg_196" fill="#263238" d="m296.08,262.76a10,10 0 0 1 0,4.52a10,10 0 0 1 0,-4.52z"/>
   <path id="svg_197" fill="#263238" d="m298.58,255.74a6.31,6.31 0 0 1 -2.5,0.26l0.26,-0.26l0,0l0,0.49l0,0.47c0,0.3 0,0.57 -0.05,0.8c0,0.45 -0.12,0.73 -0.19,0.73s-0.13,-0.28 -0.18,-0.73c0,-0.23 0,-0.5 -0.06,-0.8s0,-0.32 0,-0.47l0,-0.49l0,0l0.26,-0.26a6.11,6.11 0 0 1 2.46,0.26z"/>
   <path id="svg_198" fill="#263238" d="m308.41,255.74a11.72,11.72 0 0 1 -4.91,0a11.72,11.72 0 0 1 4.91,0z"/>
   <path id="svg_199" fill="#263238" d="m318.24,255.74a11.72,11.72 0 0 1 -4.91,0a11.72,11.72 0 0 1 4.91,0z"/>
   <path id="svg_200" fill="#263238" d="m328.07,255.74a11.72,11.72 0 0 1 -4.91,0a11.72,11.72 0 0 1 4.91,0z"/>
   <path id="svg_201" fill="#263238" d="m337.9,255.74a11.77,11.77 0 0 1 -4.92,0a11.77,11.77 0 0 1 4.92,0z"/>
   <path id="svg_202" fill="#263238" d="m347.73,255.74a11.77,11.77 0 0 1 -4.92,0a11.77,11.77 0 0 1 4.92,0z"/>
   <path id="svg_203" fill="#263238" d="m357.56,255.74a11.77,11.77 0 0 1 -4.92,0a11.77,11.77 0 0 1 4.92,0z"/>
   <path id="svg_204" fill="#263238" d="m367.39,255.74a11.77,11.77 0 0 1 -4.92,0a11.77,11.77 0 0 1 4.92,0z"/>
   <path id="svg_205" fill="#263238" d="m377.21,255.74a11.72,11.72 0 0 1 -4.91,0a11.72,11.72 0 0 1 4.91,0z"/>
   <path id="svg_206" fill="#263238" d="m387,255.74a11.72,11.72 0 0 1 -4.91,0a11.72,11.72 0 0 1 4.91,0z"/>
   <path id="svg_207" fill="#263238" d="m396.87,255.74a11.72,11.72 0 0 1 -4.91,0a11.72,11.72 0 0 1 4.91,0z"/>
   <path id="svg_208" fill="#263238" d="m406.7,255.74a11.72,11.72 0 0 1 -4.91,0a11.72,11.72 0 0 1 4.91,0z"/>
   <path id="svg_209" fill="#263238" d="m416.53,255.74a11.77,11.77 0 0 1 -4.92,0a11.77,11.77 0 0 1 4.92,0z"/>
   <path id="svg_210" fill="#263238" d="m426.36,255.74a11.77,11.77 0 0 1 -4.92,0a11.77,11.77 0 0 1 4.92,0z"/>
   <path id="svg_211" fill="#263238" d="m436.19,255.74a11.77,11.77 0 0 1 -4.92,0a11.77,11.77 0 0 1 4.92,0z"/>
   <path id="svg_212" fill="#263238" d="m446,255.74a11.77,11.77 0 0 1 -4.92,0a11.77,11.77 0 0 1 4.92,0z"/>
   <path id="svg_213" fill="#263238" d="m455.84,255.74a11.72,11.72 0 0 1 -4.91,0a11.72,11.72 0 0 1 4.91,0z"/>
   <path id="svg_214" fill="#263238" d="m465.67,255.74a11.72,11.72 0 0 1 -4.91,0a11.72,11.72 0 0 1 4.91,0z"/>
   <path id="svg_215" fill="#263238" d="m475.5,255.74a11.72,11.72 0 0 1 -4.91,0a11.72,11.72 0 0 1 4.91,0z"/>
   <path id="svg_216" fill="#263238" d="m485.33,255.74a11.72,11.72 0 0 1 -4.91,0a11.72,11.72 0 0 1 4.91,0z"/>
   <path id="svg_217" fill="#263238" d="m495.16,255.74a11.72,11.72 0 0 1 -4.91,0a11.72,11.72 0 0 1 4.91,0z"/>
   <path id="svg_218" fill="#263238" d="m505,255.74a11.77,11.77 0 0 1 -4.92,0a11.77,11.77 0 0 1 4.92,0z"/>
   <path id="svg_219" fill="#263238" d="m514.82,255.74a11.77,11.77 0 0 1 -4.92,0a11.77,11.77 0 0 1 4.92,0z"/>
   <path id="svg_220" fill="#263238" d="m524.65,255.74a11.77,11.77 0 0 1 -4.92,0a11.77,11.77 0 0 1 4.92,0z"/>
   <path id="svg_221" fill="#263238" d="m534.48,255.74a11.77,11.77 0 0 1 -4.92,0a11.77,11.77 0 0 1 4.92,0z"/>
   <path id="svg_222" fill="#263238" d="m541.89,258.24a6.31,6.31 0 0 1 -0.26,-2.5l0.26,0.26l-1,0c-0.3,0 -0.57,0 -0.8,-0.06c-0.45,-0.05 -0.73,-0.11 -0.73,-0.18s0.28,-0.14 0.73,-0.19l0.8,-0.05l0.47,0l0.5,0c0.12,0.11 -0.26,-0.26 0.26,0.26a6.31,6.31 0 0 1 -0.23,2.46z"/>
   <path id="svg_223" fill="#263238" d="m541.89,267.28a10,10 0 0 1 0,-4.52a10,10 0 0 1 0,4.52z"/>
   <path id="svg_224" fill="#263238" d="m541.89,276.33a10,10 0 0 1 0,-4.52a10,10 0 0 1 0,4.52z"/>
   <path id="svg_225" fill="#263238" d="m541.89,285.38a10,10 0 0 1 0,-4.53a10,10 0 0 1 0,4.53z"/>
   <path id="svg_226" fill="#263238" d="m541.89,294.42a10,10 0 0 1 0,-4.52a10,10 0 0 1 0,4.52z"/>
   <path id="svg_227" fill="#263238" d="m541.89,303.47a10,10 0 0 1 0,-4.52a10,10 0 0 1 0,4.52z"/>
   <rect id="svg_228" fill="#fafafa" height="64.67" width="245.57" y="178.93" x="296.32"/>
   <path id="svg_229" fill="#263238" d="m541.89,243.6s0,-0.38 0,-1.12s0,-1.83 0,-3.26c0,-2.88 0,-7.13 0,-12.66c0,-11.05 -0.05,-27.2 -0.09,-47.63l0.16,0.16l-245.55,0.1l0,0l0.26,-0.26l0,64.67l-0.26,-0.26l175.33,0.12l51.55,0.07l13.86,0l3.6,0l1.23,0l-1.2,0l-3.56,0l-13.81,0l-51.49,0.08l-175.51,0.11l-0.25,0l0,-0.25c0,-20.8 0,-42.47 0,-64.67l0,-0.26l0.28,0l245.55,0.1l0.16,0l0,0.16c0,20.47 -0.07,36.65 -0.09,47.72c0,5.51 0,9.75 0,12.62c0,1.43 0,2.51 0,3.24s-0.17,1.22 -0.17,1.22z"/>
   <path id="svg_230" fill="#263238" d="m316,188.54a34,34 0 0 1 -8.23,0a34,34 0 0 1 8.23,0z"/>
   <path id="svg_231" fill="#263238" d="m316,197.64a34,34 0 0 1 -8.23,0a34,34 0 0 1 8.23,0z"/>
   <path id="svg_232" fill="#263238" d="m316,206.74a34,34 0 0 1 -8.23,0a34,34 0 0 1 8.23,0z"/>
   <path id="svg_233" fill="#263238" d="m316,215.84a34,34 0 0 1 -8.23,0a34,34 0 0 1 8.23,0z"/>
   <path id="svg_234" fill="#263238" d="m316,224.94a35.4,35.4 0 0 1 -8.23,0a34,34 0 0 1 8.23,0z"/>
   <path id="svg_235" fill="#263238" d="m316,234a34,34 0 0 1 -8.23,0a35.4,35.4 0 0 1 8.23,0z"/>
   <path id="svg_236" fill="#FF725E" d="m348.91,234c0,0.14 -4.78,0.25 -10.67,0.25s-10.67,-0.11 -10.67,-0.25s4.78,-0.24 10.67,-0.24s10.67,0.14 10.67,0.24z"/>
   <path id="svg_237" fill="#455a64" d="m348.91,224.94c0,0.13 -4.78,0.24 -10.67,0.24s-10.67,-0.11 -10.67,-0.24s4.78,-0.25 10.67,-0.25s10.67,0.11 10.67,0.25z"/>
   <path id="svg_238" fill="#FF725E" d="m378.62,188.49c0,0.14 -8.94,0.25 -20,0.25s-20,-0.11 -20,-0.25s8.94,-0.25 20,-0.25s20,0.11 20,0.25z"/>
   <path id="svg_239" fill="#263238" d="m424.78,188.49c0,0.14 -8.94,0.25 -20,0.25s-20,-0.11 -20,-0.25s8.94,-0.25 20,-0.25s20,0.11 20,0.25z"/>
   <path id="svg_240" fill="#263238" d="m407.14,197.59c0,0.13 -13.17,0.25 -29.41,0.25s-29.42,-0.12 -29.42,-0.25s13.17,-0.25 29.42,-0.25s29.41,0.11 29.41,0.25z"/>
   <path id="svg_241" fill="#263238" d="m407.14,206.69c0,0.13 -13.17,0.24 -29.41,0.24s-29.42,-0.11 -29.42,-0.24s13.17,-0.25 29.42,-0.25s29.41,0.11 29.41,0.25z"/>
   <path id="svg_242" fill="#263238" d="m430.16,215.78c0,0.14 -13.17,0.25 -29.41,0.25s-29.42,-0.11 -29.42,-0.25s13.17,-0.24 29.42,-0.24s29.41,0.11 29.41,0.24z"/>
   <path id="svg_243" fill="#263238" d="m502.05,215.78c0,0.14 -13.17,0.25 -29.41,0.25s-29.42,-0.11 -29.42,-0.25s13.17,-0.24 29.42,-0.24s29.41,0.11 29.41,0.24z"/>
   <path id="svg_244" fill="#fafafa" d="m477.05,197.59c0,0.13 -13.17,0.25 -29.41,0.25s-29.42,-0.12 -29.42,-0.25s13.17,-0.25 29.42,-0.25s29.41,0.11 29.41,0.25z"/>
   <path id="svg_245" fill="#455a64" d="m509.57,206.69c0,0.13 -20.45,0.24 -45.67,0.24s-45.68,-0.11 -45.68,-0.24s20.45,-0.25 45.68,-0.25s45.67,0.11 45.67,0.25z"/>
   <path id="svg_246" fill="#455a64" d="m359.48,215.78c0,0.14 -4.78,0.25 -10.67,0.25s-10.67,-0.11 -10.67,-0.25s4.78,-0.24 10.67,-0.24s10.67,0.11 10.67,0.24z"/>
   <path id="svg_247" fill="#FF725E" d="m530.48,215.78c0,0.14 -4.78,0.25 -10.67,0.25s-10.67,-0.11 -10.67,-0.25s4.78,-0.24 10.67,-0.24s10.67,0.11 10.67,0.24z"/>
   <rect id="svg_248" fill="#fafafa" height="86.9" width="244.71" y="19.31" x="297.18"/>
   <path id="svg_249" fill="#263238" d="m541.89,106.21s0,-0.53 0,-1.53s0,-2.49 0,-4.45c0,-3.91 0,-9.69 0,-17.16c0,-14.93 -0.05,-36.63 -0.09,-63.76l0.17,0.17l-244.7,0.09l0,0l0.26,-0.26c0,30.27 0,59.6 0,86.9l-0.25,-0.26l175.25,0.12l51,0.07l13.67,0l3.54,0l1.21,0l-1.18,0l-3.51,0l-13.62,0l-51,0.07l-175.42,0.12l-0.26,0l0,-87.33l0.27,0l244.7,0.09l0.18,0l0,0.18c-0.11,27.21 -0.11,48.95 -0.11,63.91c0,7.45 0,13.21 0,17.12c0,1.94 0,3.42 0,4.42s-0.11,1.49 -0.11,1.49z"/>
   <path id="svg_250" fill="#263238" d="m541.91,37.84c0,0.14 -54.72,0.26 -122.2,0.26s-122.22,-0.1 -122.22,-0.26s54.71,-0.26 122.22,-0.26s122.2,0.11 122.2,0.26z"/>
   <path id="svg_251" fill="#263238" d="m310.69,28.89a2.3,2.3 0 1 1 -2.3,-2.3a2.3,2.3 0 0 1 2.3,2.3z"/>
   <path id="svg_252" fill="#263238" d="m318.74,28.89a2.3,2.3 0 1 1 -2.3,-2.3a2.3,2.3 0 0 1 2.3,2.3z"/>
   <path id="svg_253" fill="#263238" d="m326.2,28.89a2.3,2.3 0 1 1 -2.3,-2.3a2.3,2.3 0 0 1 2.3,2.3z"/>
   <path id="svg_254" fill="#263238" d="m317.88,56.86a31.49,31.49 0 0 1 -7.92,0a31.49,31.49 0 0 1 7.92,0z"/>
   <path id="svg_255" fill="#263238" d="m318.18,48.42a31.41,31.41 0 0 1 -7.91,0a31.41,31.41 0 0 1 7.91,0z"/>
   <path id="svg_256" fill="#263238" d="m317.88,66a31.49,31.49 0 0 1 -7.88,0a31.49,31.49 0 0 1 7.92,0l-0.04,0z"/>
   <path id="svg_257" fill="#263238" d="m317.88,75.06a32.79,32.79 0 0 1 -7.92,0a31.49,31.49 0 0 1 7.92,0z"/>
   <path id="svg_258" fill="#263238" d="m317.88,84.16a32.79,32.79 0 0 1 -7.92,0a31.49,31.49 0 0 1 7.92,0z"/>
   <path id="svg_259" fill="#263238" d="m317.88,93.25a31.49,31.49 0 0 1 -7.92,0a32.79,32.79 0 0 1 7.92,0z"/>
   <path id="svg_260" fill="#FF725E" d="m349.6,56.32c0,0.14 -4.59,0.25 -10.27,0.25s-10.27,-0.11 -10.27,-0.25s4.6,-0.25 10.27,-0.25s10.27,0.12 10.27,0.25z"/>
   <path id="svg_261" fill="#FF725E" d="m378.21,75.06c0,0.13 -8.6,0.24 -19.21,0.24s-19.22,-0.11 -19.22,-0.24s8.6,-0.25 19.22,-0.25s19.21,0.11 19.21,0.25z"/>
   <path id="svg_262" fill="#263238" d="m422.65,75.06c0,0.13 -8.6,0.24 -19.21,0.24s-19.22,-0.11 -19.22,-0.24s8.6,-0.25 19.22,-0.25s19.21,0.11 19.21,0.25z"/>
   <path id="svg_263" fill="#263238" d="m405.67,84.16c0,0.13 -12.68,0.24 -28.32,0.24s-28.32,-0.11 -28.32,-0.24s12.67,-0.25 28.32,-0.25s28.32,0.09 28.32,0.25z"/>
   <path id="svg_264" fill="#263238" d="m405.67,93.25c0,0.14 -12.68,0.25 -28.32,0.25s-28.32,-0.11 -28.32,-0.25s12.67,-0.24 28.32,-0.24s28.32,0.11 28.32,0.24z"/>
   <path id="svg_265" fill="#263238" d="m473,84.16c0,0.13 -12.68,0.24 -28.32,0.24s-28.32,-0.11 -28.32,-0.24s12.68,-0.25 28.32,-0.25s28.32,0.09 28.32,0.25z"/>
   <path id="svg_266" fill="#455a64" d="m504.29,93.25c0,0.14 -19.69,0.25 -44,0.25s-44,-0.11 -44,-0.25s19.68,-0.24 44,-0.24s44,0.11 44,0.24z"/>
   <path id="svg_267" fill="#263238" d="m349.6,66c0,0.14 -4.59,0.25 -10.27,0.25s-10.27,-0.11 -10.27,-0.25s4.6,-0.25 10.27,-0.25s10.27,0.07 10.27,0.25z"/>
   <path id="svg_268" fill="#263238" d="m324.66,99.7c-0.15,0 -0.26,-13 -0.26,-28.94s0.11,-28.93 0.26,-28.93s0.26,13 0.26,28.93s-0.12,28.94 -0.26,28.94z"/>
   <path id="svg_269" fill="#fafafa" d="m363,110.24c0,0.13 -4.6,0.24 -10.27,0.24s-10.27,-0.11 -10.27,-0.24s4.54,-0.24 10.26,-0.24s10.28,0.1 10.28,0.24z"/>
   <path id="svg_270" fill="#263238" d="m539.39,166.77a6.11,6.11 0 0 1 2.5,-0.26l-0.26,0.26l0,0l0,-0.49c0,-0.15 0,-0.3 0,-0.47s0,-0.57 0.06,-0.79c0,-0.45 0.11,-0.73 0.18,-0.73s0.14,0.28 0.18,0.73c0,0.22 0.05,0.49 0.06,0.79s0,0.32 0,0.47l0,0.49l0,0c-0.12,0.11 0.26,-0.26 -0.26,0.26a6.31,6.31 0 0 1 -2.46,-0.26z"/>
   <path id="svg_271" fill="#263238" d="m529.22,166.77a12.59,12.59 0 0 1 5.09,0a12.59,12.59 0 0 1 -5.09,0z"/>
   <path id="svg_272" fill="#263238" d="m519.05,166.77a12.59,12.59 0 0 1 5.09,0a12.59,12.59 0 0 1 -5.09,0z"/>
   <path id="svg_273" fill="#263238" d="m508.89,166.77a12.54,12.54 0 0 1 5.08,0a12.54,12.54 0 0 1 -5.08,0z"/>
   <path id="svg_274" fill="#263238" d="m498.72,166.77a12.54,12.54 0 0 1 5.08,0a12.54,12.54 0 0 1 -5.08,0z"/>
   <path id="svg_275" fill="#263238" d="m488.55,166.77a12.54,12.54 0 0 1 5.08,0a12.54,12.54 0 0 1 -5.08,0z"/>
   <path id="svg_276" fill="#263238" d="m478.38,166.77a12.54,12.54 0 0 1 5.08,0a12.54,12.54 0 0 1 -5.08,0z"/>
   <path id="svg_277" fill="#263238" d="m468.21,166.77a12.59,12.59 0 0 1 5.09,0a12.59,12.59 0 0 1 -5.09,0z"/>
   <path id="svg_278" fill="#263238" d="m458,166.77a12.59,12.59 0 0 1 5.09,0a12.59,12.59 0 0 1 -5.09,0z"/>
   <path id="svg_279" fill="#263238" d="m447.88,166.77a12.54,12.54 0 0 1 5.08,0a12.54,12.54 0 0 1 -5.08,0z"/>
   <path id="svg_280" fill="#263238" d="m437.71,166.77a12.54,12.54 0 0 1 5.08,0a12.54,12.54 0 0 1 -5.08,0z"/>
   <path id="svg_281" fill="#263238" d="m427.54,166.77a12.54,12.54 0 0 1 5.08,0a12.54,12.54 0 0 1 -5.08,0z"/>
   <path id="svg_282" fill="#263238" d="m417.37,166.77a12.59,12.59 0 0 1 5.09,0a12.59,12.59 0 0 1 -5.09,0z"/>
   <path id="svg_283" fill="#263238" d="m407.2,166.77a12.59,12.59 0 0 1 5.09,0a12.59,12.59 0 0 1 -5.09,0z"/>
   <path id="svg_284" fill="#263238" d="m397,166.77a12.59,12.59 0 0 1 5.09,0a12.59,12.59 0 0 1 -5.09,0z"/>
   <path id="svg_285" fill="#263238" d="m386.87,166.77a12.54,12.54 0 0 1 5.08,0a12.54,12.54 0 0 1 -5.08,0z"/>
   <path id="svg_286" fill="#263238" d="m376.7,166.77a12.54,12.54 0 0 1 5.08,0a12.54,12.54 0 0 1 -5.08,0z"/>
   <path id="svg_287" fill="#263238" d="m366.53,166.77a12.54,12.54 0 0 1 5.08,0a12.54,12.54 0 0 1 -5.08,0z"/>
   <path id="svg_288" fill="#263238" d="m356.36,166.77a12.59,12.59 0 0 1 5.09,0a12.59,12.59 0 0 1 -5.09,0z"/>
   <path id="svg_289" fill="#263238" d="m346.19,166.77a12.59,12.59 0 0 1 5.09,0a12.59,12.59 0 0 1 -5.09,0z"/>
   <path id="svg_290" fill="#263238" d="m336,166.77a12.59,12.59 0 0 1 5.09,0a12.59,12.59 0 0 1 -5.09,0z"/>
   <path id="svg_291" fill="#263238" d="m325.86,166.77a12.54,12.54 0 0 1 5.08,0a12.54,12.54 0 0 1 -5.08,0z"/>
   <path id="svg_292" fill="#263238" d="m315.69,166.77a12.54,12.54 0 0 1 5.08,0a12.54,12.54 0 0 1 -5.08,0z"/>
   <path id="svg_293" fill="#263238" d="m305.52,166.77a12.54,12.54 0 0 1 5.08,0a12.54,12.54 0 0 1 -5.08,0z"/>
   <path id="svg_294" fill="#263238" d="m297.94,164.27a6.31,6.31 0 0 1 0.26,2.5l-0.26,-0.26l0.5,0l0.47,0l0.79,0.05c0.46,0 0.74,0.11 0.74,0.19s-0.28,0.13 -0.74,0.18l-0.79,0.06l-1,0l-0.26,-0.26a6.11,6.11 0 0 1 0.29,-2.46z"/>
   <path id="svg_295" fill="#263238" d="m297.94,154a12.73,12.73 0 0 1 0,5.12a12.73,12.73 0 0 1 0,-5.12z"/>
   <path id="svg_296" fill="#263238" d="m297.94,143.8a12.68,12.68 0 0 1 0,5.11a12.68,12.68 0 0 1 0,-5.11z"/>
   <path id="svg_297" fill="#263238" d="m297.94,133.56a12.73,12.73 0 0 1 0,5.12a12.73,12.73 0 0 1 0,-5.12z"/>
   <path id="svg_298" fill="#263238" d="m297.94,123.33a12.68,12.68 0 0 1 0,5.11a12.68,12.68 0 0 1 0,-5.11z"/>
   <path id="svg_299" fill="#263238" d="m300.44,115.71a6.31,6.31 0 0 1 -2.5,0.26l0.26,-0.26l0,0l0,0.94c0,0.3 0,0.57 -0.06,0.8c-0.05,0.45 -0.11,0.73 -0.18,0.73s-0.14,-0.28 -0.19,-0.73c0,-0.23 0,-0.5 -0.05,-0.8l0,-0.47l0,-0.47l0,0l0.26,-0.26a6.31,6.31 0 0 1 2.46,0.26z"/>
   <path id="svg_300" fill="#263238" d="m310.6,115.71a12.54,12.54 0 0 1 -5.08,0a12.54,12.54 0 0 1 5.08,0z"/>
   <path id="svg_301" fill="#263238" d="m320.77,115.71a12.54,12.54 0 0 1 -5.08,0a12.54,12.54 0 0 1 5.08,0z"/>
   <path id="svg_302" fill="#263238" d="m330.94,115.71a12.54,12.54 0 0 1 -5.08,0a12.54,12.54 0 0 1 5.08,0z"/>
   <path id="svg_303" fill="#263238" d="m341.11,115.71a12.59,12.59 0 0 1 -5.09,0a12.59,12.59 0 0 1 5.09,0z"/>
   <path id="svg_304" fill="#263238" d="m351.28,115.71a12.59,12.59 0 0 1 -5.09,0a12.59,12.59 0 0 1 5.09,0z"/>
   <path id="svg_305" fill="#263238" d="m361.45,115.71a12.59,12.59 0 0 1 -5.09,0a12.59,12.59 0 0 1 5.09,0z"/>
   <path id="svg_306" fill="#263238" d="m371.61,115.71a12.54,12.54 0 0 1 -5.08,0a12.54,12.54 0 0 1 5.08,0z"/>
   <path id="svg_307" fill="#263238" d="m381.78,115.71a12.54,12.54 0 0 1 -5.08,0a12.54,12.54 0 0 1 5.08,0z"/>
   <path id="svg_308" fill="#263238" d="m392,115.71a12.54,12.54 0 0 1 -5.08,0a12.54,12.54 0 0 1 5.08,0z"/>
   <path id="svg_309" fill="#263238" d="m402.12,115.71a12.59,12.59 0 0 1 -5.09,0a12.59,12.59 0 0 1 5.09,0z"/>
   <path id="svg_310" fill="#263238" d="m412.29,115.71a12.59,12.59 0 0 1 -5.09,0a12.59,12.59 0 0 1 5.09,0z"/>
   <path id="svg_311" fill="#263238" d="m422.46,115.71a12.59,12.59 0 0 1 -5.09,0a12.59,12.59 0 0 1 5.09,0z"/>
   <path id="svg_312" fill="#263238" d="m432.62,115.71a12.54,12.54 0 0 1 -5.08,0a12.54,12.54 0 0 1 5.08,0z"/>
   <path id="svg_313" fill="#263238" d="m442.79,115.71a12.54,12.54 0 0 1 -5.08,0a12.54,12.54 0 0 1 5.08,0z"/>
   <path id="svg_314" fill="#263238" d="m453,115.71a12.54,12.54 0 0 1 -5.08,0a12.54,12.54 0 0 1 5.08,0z"/>
   <path id="svg_315" fill="#263238" d="m463.13,115.71a12.59,12.59 0 0 1 -5.09,0a12.59,12.59 0 0 1 5.09,0z"/>
   <path id="svg_316" fill="#263238" d="m473.3,115.71a12.59,12.59 0 0 1 -5.09,0a12.59,12.59 0 0 1 5.09,0z"/>
   <path id="svg_317" fill="#263238" d="m483.46,115.71a12.54,12.54 0 0 1 -5.08,0a12.54,12.54 0 0 1 5.08,0z"/>
   <path id="svg_318" fill="#263238" d="m493.63,115.71a12.54,12.54 0 0 1 -5.08,0a12.54,12.54 0 0 1 5.08,0z"/>
   <path id="svg_319" fill="#263238" d="m503.8,115.71a12.54,12.54 0 0 1 -5.08,0a12.54,12.54 0 0 1 5.08,0z"/>
   <path id="svg_320" fill="#263238" d="m514,115.71a12.54,12.54 0 0 1 -5.08,0a12.54,12.54 0 0 1 5.08,0z"/>
   <path id="svg_321" fill="#263238" d="m524.14,115.71a12.59,12.59 0 0 1 -5.09,0a12.59,12.59 0 0 1 5.09,0z"/>
   <path id="svg_322" fill="#263238" d="m534.31,115.71a12.59,12.59 0 0 1 -5.09,0a12.59,12.59 0 0 1 5.09,0z"/>
   <path id="svg_323" fill="#263238" d="m541.89,118.21a6.31,6.31 0 0 1 -0.26,-2.5l0.26,0.26l-1,0c-0.3,0 -0.57,0 -0.8,-0.06c-0.45,0 -0.73,-0.11 -0.73,-0.18s0.28,-0.14 0.73,-0.18c0.23,0 0.5,-0.05 0.8,-0.06l0.47,0l0.5,0l0.26,0.26a6.31,6.31 0 0 1 -0.23,2.46z"/>
   <path id="svg_324" fill="#263238" d="m541.89,128.44a12.68,12.68 0 0 1 0,-5.11a12.68,12.68 0 0 1 0,5.11z"/>
   <path id="svg_325" fill="#263238" d="m541.89,138.68a12.73,12.73 0 0 1 0,-5.12a12.73,12.73 0 0 1 0,5.12z"/>
   <path id="svg_326" fill="#263238" d="m541.89,148.91a12.68,12.68 0 0 1 0,-5.11a12.68,12.68 0 0 1 0,5.11z"/>
   <path id="svg_327" fill="#263238" d="m541.89,159.15a12.73,12.73 0 0 1 0,-5.12a12.73,12.73 0 0 1 0,5.12z"/>
   <path id="svg_328" fill="#455a64" d="m320.84,239.79c-0.15,0 -0.26,-12.78 -0.26,-28.53s0.11,-28.52 0.26,-28.52s0.26,12.77 0.26,28.52s-0.1,28.53 -0.26,28.53z"/>
  </g>
  <g id="character-3">
   <path id="svg_329" fill="#455a64" d="m691.32,441.4l0.45,32.39l-40.3,0.77c0.17,-3.85 20.87,-12 20.87,-12l-1.14,-20.74l20.12,-0.42z"/>
   <path id="svg_330" fill="#fff" d="m684.76,460.6a1.65,1.65 0 0 1 1.18,1.86a1.59,1.59 0 0 1 -1.83,1.18a1.74,1.74 0 0 1 -1.23,-2a1.64,1.64 0 0 1 2,-1"/>
   <path id="svg_331" fill="#263238" d="m691.77,473.67l0,-3.28l-38.77,2.22s-1.77,0.83 -1.54,2.08l40.31,-1.02z"/>
   <path id="svg_332" fill="#263238" d="m671.68,462.39c0,0.2 1,0.27 2,0.88s1.51,1.43 1.69,1.35s-0.14,-1.21 -1.34,-1.93s-2.4,-0.48 -2.35,-0.3z"/>
   <path id="svg_333" fill="#263238" d="m667.49,464.22c0,0.19 0.81,0.51 1.5,1.33s0.89,1.69 1.09,1.68s0.3,-1.13 -0.57,-2.13s-2.02,-1.1 -2.02,-0.88z"/>
   <path id="svg_334" fill="#263238" d="m665.18,469.32c0.18,0 0.44,-0.95 -0.09,-2s-1.45,-1.48 -1.53,-1.32s0.5,0.73 0.92,1.62s0.52,1.69 0.7,1.7z"/>
   <path id="svg_335" fill="#263238" d="m671.94,457.63c0.09,0.18 1,-0.11 2.1,-0.05s2,0.39 2.09,0.22s-0.75,-0.86 -2.06,-0.91s-2.22,0.59 -2.13,0.74z"/>
   <path id="svg_336" fill="#263238" d="m672.81,452.84a3.91,3.91 0 0 0 2,0a9.31,9.31 0 0 0 2.1,-0.69a9.45,9.45 0 0 0 1.15,-0.64a2.49,2.49 0 0 0 0.6,-0.49a0.85,0.85 0 0 0 0.07,-1a1.07,1.07 0 0 0 -0.87,-0.44a2.75,2.75 0 0 0 -0.76,0.12a7.57,7.57 0 0 0 -1.24,0.46a7.11,7.11 0 0 0 -1.84,1.25c-0.92,0.89 -1.22,1.63 -1.16,1.66s0.54,-0.56 1.47,-1.29a8.46,8.46 0 0 1 1.79,-1.05a7.38,7.38 0 0 1 1.15,-0.38c0.42,-0.12 0.78,-0.13 0.9,0.06s0,0.1 0,0.23a2.17,2.17 0 0 1 -0.44,0.35a10.91,10.91 0 0 1 -1.06,0.63a11.94,11.94 0 0 1 -1.93,0.79a13.11,13.11 0 0 0 -1.93,0.43z"/>
   <path id="svg_337" fill="#263238" d="m673.08,453.11a3.24,3.24 0 0 0 0.49,-2a6.57,6.57 0 0 0 -0.32,-2.2a6.73,6.73 0 0 0 -0.53,-1.22a1.69,1.69 0 0 0 -1.31,-1a0.92,0.92 0 0 0 -0.83,0.58a2.94,2.94 0 0 0 -0.2,0.74a4.74,4.74 0 0 0 0,1.36a4.65,4.65 0 0 0 0.9,2.07c0.81,1 1.63,1.25 1.65,1.18s-0.63,-0.47 -1.25,-1.46a4.55,4.55 0 0 1 -0.68,-1.88a4.19,4.19 0 0 1 0,-1.17c0.05,-0.43 0.21,-0.78 0.37,-0.74s0.54,0.31 0.72,0.65a7.7,7.7 0 0 1 0.52,1.09a7.44,7.44 0 0 1 0.43,2c0.12,1.23 -0.04,1.97 0.04,2z"/>
   <path id="svg_338" fill="#455a64" d="m707.78,441.4l-0.45,32.39l40.3,0.77c-0.16,-3.85 -20.86,-12 -20.86,-12l1.14,-20.74l-20.13,-0.42z"/>
   <path id="svg_339" fill="#fff" d="m714.34,460.6a1.63,1.63 0 0 0 -1.17,1.86a1.58,1.58 0 0 0 1.82,1.18a1.75,1.75 0 0 0 1.24,-2a1.65,1.65 0 0 0 -2,-1"/>
   <path id="svg_340" fill="#263238" d="m707.33,473.67l0,-3.28l38.72,2.22s1.78,0.83 1.54,2.08l-40.26,-1.02z"/>
   <path id="svg_341" fill="#263238" d="m727.42,462.39c0,0.2 -1,0.27 -2,0.88s-1.51,1.43 -1.69,1.35s0.13,-1.21 1.33,-1.93s2.41,-0.48 2.36,-0.3z"/>
   <path id="svg_342" fill="#263238" d="m731.62,464.22c0,0.19 -0.82,0.51 -1.51,1.33s-0.89,1.69 -1.08,1.68s-0.3,-1.13 0.57,-2.13s2.02,-1.1 2.02,-0.88z"/>
   <path id="svg_343" fill="#263238" d="m733.92,469.32c-0.18,0 -0.43,-0.95 0.09,-2s1.46,-1.48 1.54,-1.32s-0.5,0.73 -0.92,1.62s-0.51,1.69 -0.71,1.7z"/>
   <path id="svg_344" fill="#263238" d="m727.16,457.63c-0.09,0.18 -1,-0.11 -2.1,-0.05s-2,0.39 -2.09,0.22s0.75,-0.86 2.06,-0.91s2.23,0.59 2.13,0.74z"/>
   <path id="svg_345" fill="#263238" d="m726.29,452.84a3.91,3.91 0 0 1 -2,0a9.47,9.47 0 0 1 -2.1,-0.69a9.34,9.34 0 0 1 -1.14,-0.64a2.34,2.34 0 0 1 -0.61,-0.49a0.86,0.86 0 0 1 -0.07,-1a1.09,1.09 0 0 1 0.88,-0.44a2.74,2.74 0 0 1 0.75,0.12a7.69,7.69 0 0 1 1.25,0.46a7,7 0 0 1 1.83,1.25c0.92,0.89 1.23,1.63 1.16,1.66s-0.53,-0.56 -1.47,-1.29a8.62,8.62 0 0 0 -1.78,-1.05a8.16,8.16 0 0 0 -1.15,-0.38c-0.43,-0.12 -0.79,-0.13 -0.9,0.06s0,0.1 0,0.23a2.17,2.17 0 0 0 0.44,0.35a9.72,9.72 0 0 0 1.05,0.63a12,12 0 0 0 1.94,0.79a12.71,12.71 0 0 1 1.92,0.43z"/>
   <path id="svg_346" fill="#263238" d="m726,453.11a3.2,3.2 0 0 1 -0.5,-2a6.57,6.57 0 0 1 0.32,-2.2a6.8,6.8 0 0 1 0.54,-1.22a1.66,1.66 0 0 1 1.3,-1a1,1 0 0 1 0.84,0.58a2.88,2.88 0 0 1 0.19,0.74a4.4,4.4 0 0 1 0,1.36a4.54,4.54 0 0 1 -0.9,2.07c-0.8,1 -1.63,1.25 -1.64,1.18s0.62,-0.47 1.25,-1.46a4.69,4.69 0 0 0 0.67,-1.88a4.18,4.18 0 0 0 0,-1.17c-0.06,-0.43 -0.21,-0.78 -0.37,-0.74s-0.55,0.31 -0.72,0.65a6,6 0 0 0 -0.52,1.09a7.07,7.07 0 0 0 -0.43,2c-0.09,1.23 0.11,1.97 -0.03,2z"/>
   <path id="svg_347" fill="#263238" d="m741.92,253.94l-62,6.26l0,4.7l-5.45,9.4s-5.64,5.64 -1.61,16.12l0,6.72a79.46,79.46 0 0 1 -1.45,8.06c-1,4 -1,154.49 -1,154.49l23.48,1.69l16.25,-151.88l-3.4,150.27l24.15,-0.7l20.43,-178l0,0l-9.4,-27.13z"/>
   <path id="svg_348" fill="#455a64" d="m710.3,313.16a7.22,7.22 0 0 1 -0.14,-1.49c-0.07,-1.1 -0.14,-2.45 -0.23,-4.05c-0.25,-3.58 -0.57,-8.23 -0.93,-13.37s-0.65,-10 -0.73,-13.4c0,-1.72 0,-3.11 0,-4.07a7.18,7.18 0 0 1 0.11,-1.5a6,6 0 0 1 0.15,1.49c0.06,1.1 0.14,2.46 0.23,4.06c0.25,3.57 0.57,8.22 0.93,13.37s0.65,10 0.73,13.4c0,1.72 0,3.11 0,4.07a5.94,5.94 0 0 1 -0.12,1.49z"/>
   <path id="svg_349" fill="#455a64" d="m724.09,263.92c-0.2,0 -0.07,-1.81 -0.39,-4s-0.93,-3.84 -0.75,-3.92s1.09,1.55 1.41,3.82s-0.1,4.18 -0.27,4.1z"/>
   <path id="svg_350" fill="#455a64" d="m729.34,262.17c-0.18,0 -0.46,-1.4 -0.62,-3.17s-0.15,-3.22 0,-3.24s0.46,1.41 0.62,3.18s0.18,3.22 0,3.23z"/>
   <path id="svg_351" fill="#455a64" d="m688.53,267.13c-0.17,0.05 -0.72,-1.61 -0.54,-3.71s1,-3.65 1.15,-3.58s-0.33,1.64 -0.48,3.63s0.06,3.62 -0.13,3.66z"/>
   <path id="svg_352" fill="#455a64" d="m693.75,266.25c-0.19,0 -0.28,-1.51 -0.2,-3.37s0.28,-3.34 0.47,-3.33s0.27,1.51 0.19,3.36s-0.28,3.35 -0.46,3.34z"/>
   <path id="svg_353" fill="#455a64" d="m681.26,267.71c0.15,0.09 -1.23,2.44 -3.52,4.88s-4.53,4 -4.63,3.86s1.9,-1.9 4.14,-4.31s3.85,-4.54 4.01,-4.43z"/>
   <path id="svg_354" fill="#455a64" d="m751.42,279.45a10,10 0 0 1 -2.59,-1.65a31.14,31.14 0 0 1 -9.19,-11.54a10.33,10.33 0 0 1 -1,-2.9c0.2,-0.1 1.85,4.33 5.44,8.81s7.48,7.11 7.34,7.28z"/>
   <path id="svg_355" fill="#455a64" d="m712.84,261.67s0.15,-0.15 0.48,-0.19a2.16,2.16 0 0 1 1.37,0.39a2.38,2.38 0 0 1 1,1.87a2.23,2.23 0 0 1 -1.58,2.08a2.25,2.25 0 0 1 -2.55,-0.63a2.39,2.39 0 0 1 -0.35,-2.11a2.08,2.08 0 0 1 0.82,-1.16c0.29,-0.18 0.48,-0.18 0.49,-0.15s-0.66,0.39 -0.85,1.42a2,2 0 0 0 0.37,1.61a1.82,1.82 0 0 0 3,-1.07a2,2 0 0 0 -0.72,-1.48a2.89,2.89 0 0 0 -1.48,-0.58z"/>
   <path id="svg_356" fill="#FF725E" d="m683.57,166.47s-8.66,0.82 -11.24,8.21c-1.75,5 -9.15,37.14 -9.15,37.14l-24.58,2.82l0,5.36s18.89,17.09 26.39,17.22s9.29,-2.77 12.2,-5s6.38,-65.75 6.38,-65.75z"/>
   <path id="svg_357" fill="#FF725E" d="m747,244.91l-4.2,-43.75l0.32,-16.54l0.17,-16.19l-26.14,-10.5l-18.15,2.34l-17.53,6.63l0.53,45.65l-4.48,28s-1.91,15 -0.52,17.19a8.65,8.65 0 0 0 2.7,2.65l62,-6.26l0.94,-0.57a9.06,9.06 0 0 0 4.36,-8.65z"/>
   <path id="svg_358" fill="#263238" d="m726.44,114.62c-0.13,-3.31 -1.63,-7.78 -4.27,-9.78c-1.72,-1.31 -4.19,-0.42 -6.22,-1.18c-2.59,-1 -4.55,-4 -7,-5.32s-5.46,-2.21 -7.92,-0.92c-1.19,0.62 -2.13,1.69 -3.37,2.2c-1.45,0.6 -3.11,0.37 -4.62,0.76a5.86,5.86 0 0 0 -4.07,6.71a5.07,5.07 0 0 0 0.43,9.86c1.8,0.34 3.83,-0.28 5.4,0.68s1.94,3.32 1.72,5.26s-0.76,4 -0.09,5.79l26.32,5c1.1,-2.07 1.79,-5.15 2.65,-7.38c1.42,-3.54 1.19,-7.86 1.04,-11.68z"/>
   <path id="svg_359" fill="#ffbe9d" d="m722,131.05c0.16,-0.08 6.85,-2.16 6.75,4.7s-7,5.34 -7,5.14s0.25,-9.84 0.25,-9.84z"/>
   <path id="svg_360" fill="#eb996e" d="m723.9,138.33s0.12,0.08 0.32,0.18a1.19,1.19 0 0 0 0.89,0a3,3 0 0 0 1.41,-2.63a4.12,4.12 0 0 0 -0.31,-1.72a1.42,1.42 0 0 0 -0.89,-0.93a0.61,0.61 0 0 0 -0.71,0.32c-0.09,0.19 -0.05,0.33 -0.09,0.34s-0.14,-0.12 -0.08,-0.4a0.76,0.76 0 0 1 0.27,-0.43a0.91,0.91 0 0 1 0.66,-0.16a1.69,1.69 0 0 1 1.24,1.08a4.1,4.1 0 0 1 0.38,1.92a3.09,3.09 0 0 1 -1.78,2.93a1.25,1.25 0 0 1 -1.09,-0.2c-0.21,-0.14 -0.25,-0.29 -0.22,-0.3z"/>
   <path id="svg_361" fill="#ffbe9d" d="m687.26,145c-0.15,-4.84 0.37,-14.83 0.94,-23.86a18.69,18.69 0 0 1 18.31,-17.51l1,0c10.44,0.42 15.91,9.53 15.19,20l-0.9,36.27l-1.49,1a20.66,20.66 0 0 1 -22.59,-0.1l0,0l-0.08,-4.29s-10.08,-1.45 -10.38,-11.51z"/>
   <path id="svg_362" fill="#eb996e" d="m697.6,156.44a23.26,23.26 0 0 0 13,-3.94s-2.89,7.38 -12.91,6.65l-0.09,-2.71z"/>
   <path id="svg_363" fill="#263238" d="m690.24,129.08a1.42,1.42 0 0 0 1.4,1.42a1.38,1.38 0 0 0 1.46,-1.31a1.43,1.43 0 0 0 -1.41,-1.42a1.36,1.36 0 0 0 -1.45,1.31z"/>
   <path id="svg_364" fill="#263238" d="m704.72,129.65a1.44,1.44 0 0 0 1.41,1.42a1.38,1.38 0 0 0 1.45,-1.32a1.43,1.43 0 0 0 -1.4,-1.42a1.37,1.37 0 0 0 -1.46,1.32z"/>
   <path id="svg_365" fill="#263238" d="m690.35,125.76c0.18,0.18 1.25,-0.64 2.79,-0.66s2.68,0.73 2.85,0.53s-0.11,-0.41 -0.61,-0.76a3.91,3.91 0 0 0 -2.28,-0.66a3.77,3.77 0 0 0 -2.22,0.76c-0.46,0.37 -0.62,0.71 -0.53,0.79z"/>
   <path id="svg_366" fill="#263238" d="m705.09,125.85c0.19,0.18 1.21,-0.71 2.75,-0.83s2.72,0.55 2.87,0.35s-0.13,-0.41 -0.65,-0.73a4,4 0 0 0 -2.32,-0.51a3.76,3.76 0 0 0 -2.17,0.9c-0.44,0.4 -0.57,0.75 -0.48,0.82z"/>
   <path id="svg_367" fill="#263238" d="m700.19,137.59a9.8,9.8 0 0 0 -2.51,-0.41c-0.39,0 -0.77,-0.11 -0.84,-0.38a2,2 0 0 1 0.25,-1.17l1.11,-3c1.54,-4.29 2.65,-7.82 2.47,-7.88s-1.56,3.37 -3.1,7.66c-0.37,1.06 -0.73,2.07 -1.06,3a2.29,2.29 0 0 0 -0.18,1.55a1,1 0 0 0 0.66,0.56a2.43,2.43 0 0 0 0.67,0.09a10.9,10.9 0 0 0 2.53,-0.02z"/>
   <path id="svg_368" fill="#263238" d="m704.74,138.57c-0.25,0 -0.22,1.66 -1.63,2.87s-3.19,1.06 -3.2,1.3s0.4,0.32 1.15,0.32a4.14,4.14 0 0 0 2.68,-1a3.59,3.59 0 0 0 1.26,-2.41c0.05,-0.65 -0.14,-1.09 -0.26,-1.08z"/>
   <path id="svg_369" fill="#263238" d="m705.15,119.33c0.19,0.4 1.7,0 3.52,0.08s3.33,0.38 3.53,0c0.09,-0.19 -0.21,-0.56 -0.83,-0.9a5.94,5.94 0 0 0 -2.68,-0.64a5.83,5.83 0 0 0 -2.69,0.59c-0.64,0.32 -0.94,0.68 -0.85,0.87z"/>
   <path id="svg_370" fill="#263238" d="m690.57,120.87c0.27,0.35 1.33,0 2.6,-0.07s2.36,0.19 2.61,-0.18c0.1,-0.18 -0.07,-0.53 -0.55,-0.85a3.8,3.8 0 0 0 -4.2,0.21c-0.44,0.36 -0.59,0.73 -0.46,0.89z"/>
   <path id="svg_371" fill="#263238" d="m699.15,102.87c3.49,-1.52 7.1,-0.91 10.89,-0.5a17.23,17.23 0 0 1 7.84,2.71a15,15 0 0 1 6.55,11.26a44.19,44.19 0 0 1 -0.93,14.29l-0.37,-0.07c0.32,1.39 0.65,2.88 -0.15,4.18a2,2 0 0 1 -2.23,1c-1.43,-0.42 -1.54,-2.24 -1.48,-3.67a82.89,82.89 0 0 0 -0.34,-12.8c-0.32,-3.45 -1.87,-7.29 -4.63,-8.84a12,12 0 0 0 -12.17,0.25a3.67,3.67 0 0 1 -3.87,0.12c-2.68,-1.59 -4.93,-1.49 -6.54,0.62c0.61,-3.8 3.93,-7.03 7.43,-8.55z"/>
   <path id="svg_372" fill="#455a64" d="m692.3,133.65s0.25,0 0.71,-0.1a4.91,4.91 0 0 0 1.84,-0.65a5.17,5.17 0 0 0 1.1,-0.85a5.79,5.79 0 0 0 0.94,-1.31a5.05,5.05 0 0 0 0.52,-1.74c0.06,-0.63 0,-1.33 0,-2l0.12,0.13l-11.75,0l0.12,-0.13a18.64,18.64 0 0 0 0.07,2.28a5.34,5.34 0 0 0 0.72,1.91a5.22,5.22 0 0 0 2.6,2.11a5.65,5.65 0 0 0 2.2,0.34l0.61,0c0.13,0 0.2,0 0.2,0l-0.2,0l-0.61,0a5.57,5.57 0 0 1 -2.26,-0.28a5.3,5.3 0 0 1 -2.72,-2.14a5.21,5.21 0 0 1 -0.77,-2a14.77,14.77 0 0 1 -0.09,-2.32l0,-0.13l12.05,0l0,0.23c0,0.72 0,1.4 -0.05,2.07a5.06,5.06 0 0 1 -0.57,1.81a5.37,5.37 0 0 1 -2.14,2.19a4.84,4.84 0 0 1 -1.91,0.6a3.86,3.86 0 0 1 -0.53,0l-0.2,-0.02z"/>
   <path id="svg_373" fill="#455a64" d="m708.92,133.65s0.25,0 0.7,-0.1a4.85,4.85 0 0 0 1.84,-0.65a5.17,5.17 0 0 0 1.1,-0.85a5.23,5.23 0 0 0 0.94,-1.31a5.05,5.05 0 0 0 0.5,-1.74c0.06,-0.63 0,-1.33 0,-2l0.13,0.13l-11.74,0l0.13,-0.13a15.35,15.35 0 0 0 0.07,2.28a5,5 0 0 0 0.72,1.91a5.2,5.2 0 0 0 2.59,2.11a5.67,5.67 0 0 0 2.2,0.34l0.61,0c0.14,0 0.21,0 0.21,0l-0.21,0l-0.61,0a5.59,5.59 0 0 1 -2.26,-0.28a5.34,5.34 0 0 1 -2.72,-2.14a5.21,5.21 0 0 1 -0.77,-2a16.08,16.08 0 0 1 -0.09,-2.32l0,-0.13l12,0l0,0.23c0,0.72 0,1.4 0,2.07a5.25,5.25 0 0 1 -0.56,1.81a5.93,5.93 0 0 1 -1,1.34a5.66,5.66 0 0 1 -1.15,0.85a4.84,4.84 0 0 1 -1.91,0.6a3.86,3.86 0 0 1 -0.53,0l-0.19,-0.02z"/>
   <path id="svg_374" fill="#455a64" d="m702.3,128.53s-0.21,-0.23 -0.59,-0.53a2.94,2.94 0 0 0 -1.72,-0.64a2.88,2.88 0 0 0 -1.74,0.56c-0.4,0.28 -0.58,0.54 -0.62,0.51a1.45,1.45 0 0 1 0.5,-0.66a2.81,2.81 0 0 1 1.87,-0.69a2.78,2.78 0 0 1 1.84,0.77c0.37,0.36 0.49,0.67 0.46,0.68z"/>
   <path id="svg_375" fill="#455a64" d="m724.32,131.06a9.76,9.76 0 0 1 -1.5,-0.29c-0.92,-0.21 -2.19,-0.48 -3.6,-0.75s-2.7,-0.46 -3.63,-0.6a8.94,8.94 0 0 1 -1.5,-0.27a8.61,8.61 0 0 1 1.52,0.08c0.95,0.09 2.24,0.26 3.66,0.53s2.69,0.57 3.6,0.82a6.85,6.85 0 0 1 1.45,0.48z"/>
   <path id="svg_376" fill="#fff" d="m691.89,133a3.15,3.15 0 0 1 -1.28,-0.1a6,6 0 0 1 -2.77,-1.44a5.25,5.25 0 0 1 -1.55,-2.69a2.94,2.94 0 0 1 0,-1.29s0,0.49 0.24,1.24a5.51,5.51 0 0 0 1.55,2.54a6.49,6.49 0 0 0 2.62,1.45c0.71,0.22 1.2,0.29 1.19,0.29z"/>
   <path id="svg_377" fill="#e0e0e0" d="m726.35,113.5s-4.66,4.06 -7.61,4.35a14.49,14.49 0 0 0 -0.8,-2.81a17.77,17.77 0 0 0 -2.47,-3.79a14.61,14.61 0 0 0 9.88,-1.76a15.3,15.3 0 0 1 1,4.01z"/>
   <path id="svg_378" fill="#e0e0e0" d="m726.46,115.13a9.4,9.4 0 0 1 -7.46,4.72a31.51,31.51 0 0 0 4,-1.87a29.77,29.77 0 0 0 3.46,-2.85z"/>
   <path id="svg_379" fill="#eb996e" d="m709.29,131.16c0.12,0.08 -0.66,1.05 -2.08,1.29a2.61,2.61 0 0 1 -2.39,-0.52a16.76,16.76 0 0 0 2.3,0a15.34,15.34 0 0 0 2.17,-0.77z"/>
   <path id="svg_380" fill="#eb996e" d="m693.38,131.31a2.94,2.94 0 0 1 -2.23,0.36c-1.28,-0.16 -2.14,-0.79 -2.07,-0.91a19.57,19.57 0 0 1 2.14,0.39a18,18 0 0 1 2.16,0.16z"/>
   <path id="svg_381" fill="#eb996e" d="m706.5,139.73c-0.15,0 -0.21,-0.43 -0.36,-0.89s-0.34,-0.83 -0.23,-0.93s0.54,0.19 0.72,0.77s0,1.08 -0.13,1.05z"/>
   <path id="svg_382" fill="#eb996e" d="m716.59,155.61c-0.14,0 -0.15,-0.73 -0.15,-1.6s0,-1.58 0.17,-1.6s0.36,0.69 0.35,1.6s-0.23,1.63 -0.37,1.6z"/>
   <polygon id="svg_383" fill="#455a64" points="590.489990234375,188.25 744.9099731445312,282.7200012207031 776.6500244140625,233.7100067138672 622.1400146484375,139.4600067138672 590.489990234375,188.25 "/>
   <path id="svg_384" fill="#e0e0e0" d="m627.92,158.8a12.51,12.51 0 0 1 -2.62,-1.41a12.76,12.76 0 0 1 -2.44,-1.71a12.79,12.79 0 0 1 2.62,1.41a12.26,12.26 0 0 1 2.44,1.71z"/>
   <path id="svg_385" fill="#e0e0e0" d="m631.31,153.84a12.14,12.14 0 0 1 -2.62,-1.4a13.43,13.43 0 0 1 -2.43,-1.71a13.08,13.08 0 0 1 2.62,1.41a12.7,12.7 0 0 1 2.43,1.7z"/>
   <path id="svg_386" fill="#e0e0e0" d="m624.46,164.26a11.94,11.94 0 0 1 -2.62,-1.41a13.12,13.12 0 0 1 -2.43,-1.7a25.46,25.46 0 0 1 5.05,3.11z"/>
   <path id="svg_387" fill="#e0e0e0" d="m621,169.73a13.08,13.08 0 0 1 -2.62,-1.41a12.37,12.37 0 0 1 -2.43,-1.71a13.08,13.08 0 0 1 2.62,1.41a12.47,12.47 0 0 1 2.43,1.71z"/>
   <path id="svg_388" fill="#e0e0e0" d="m617.56,175.2a13.08,13.08 0 0 1 -2.62,-1.41a12.47,12.47 0 0 1 -2.43,-1.71a13.08,13.08 0 0 1 2.62,1.41a12.87,12.87 0 0 1 2.43,1.71z"/>
   <path id="svg_389" fill="#e0e0e0" d="m614.11,180.67a12.79,12.79 0 0 1 -2.62,-1.41a12.1,12.1 0 0 1 -2.43,-1.71a13.08,13.08 0 0 1 2.62,1.41a12.37,12.37 0 0 1 2.43,1.71z"/>
   <path id="svg_390" fill="#e0e0e0" d="m610.66,186.13a12.22,12.22 0 0 1 -2.62,-1.41a13,13 0 0 1 -2.44,-1.7a11.64,11.64 0 0 1 2.63,1.41a13.12,13.12 0 0 1 2.43,1.7z"/>
   <path id="svg_391" fill="#FF725E" d="m648.38,171c0,0.08 -3,-1.66 -6.65,-3.9s-6.52,-4.11 -6.47,-4.19s3,1.66 6.65,3.89s6.52,4.09 6.47,4.2z"/>
   <path id="svg_392" fill="#FF725E" d="m659.54,193.49c-0.06,0.08 -5.59,-3.24 -12.37,-7.42s-12.23,-7.63 -12.17,-7.72s5.58,3.24 12.36,7.42s12.23,7.64 12.18,7.72z"/>
   <path id="svg_393" fill="#e0e0e0" d="m687.91,211c0,0.08 -5.59,-3.24 -12.36,-7.42s-12.23,-7.63 -12.18,-7.71s5.59,3.23 12.37,7.41s12.26,7.63 12.17,7.72z"/>
   <path id="svg_394" fill="#e0e0e0" d="m673.62,209.77c-0.06,0.08 -8.19,-4.85 -18.18,-11s-18,-11.22 -18,-11.31s8.19,4.85 18.18,11s18.05,11.23 18,11.31z"/>
   <path id="svg_395" fill="#e0e0e0" d="m670.16,215.24c0,0.08 -8.19,-4.85 -18.17,-11s-18,-11.22 -18,-11.3s8.19,4.84 18.18,11s18.05,11.21 17.99,11.3z"/>
   <path id="svg_396" fill="#e0e0e0" d="m680.87,229.43c-0.06,0.08 -8.2,-4.84 -18.18,-11s-18,-11.22 -18,-11.3s8.19,4.84 18.18,11s18.05,11.22 18,11.3z"/>
   <path id="svg_397" fill="#e0e0e0" d="m725.06,256.69c0,0.08 -8.19,-4.85 -18.18,-11s-18,-11.22 -18,-11.31s8.19,4.85 18.18,11s18.05,11.23 18,11.31z"/>
   <path id="svg_398" fill="#fafafa" d="m716.59,236.27c-0.05,0.09 -8.19,-4.84 -18.17,-11s-18,-11.22 -18,-11.3s8.19,4.84 18.18,11s18.05,11.22 17.99,11.3z"/>
   <path id="svg_399" fill="#263238" d="m733.14,254.07c-0.06,0.08 -12.67,-7.6 -28.18,-17.17s-28,-17.38 -28,-17.46s12.66,7.6 28.17,17.17s28.06,17.39 28.01,17.46z"/>
   <path id="svg_400" fill="#fafafa" d="m644.72,176.76c-0.05,0.08 -3,-1.66 -6.65,-3.9s-6.52,-4.11 -6.46,-4.19s3,1.66 6.65,3.89s6.51,4.11 6.46,4.2z"/>
   <path id="svg_401" fill="#fafafa" d="m637.41,202.63c0,0.09 -3,-1.66 -6.65,-3.89s-6.51,-4.11 -6.46,-4.2s3,1.67 6.65,3.9s6.52,4.11 6.46,4.19z"/>
   <path id="svg_402" fill="#FF725E" d="m742.54,267.46c-0.06,0.09 -3,-1.66 -6.66,-3.89s-6.51,-4.11 -6.46,-4.19s3,1.66 6.65,3.89s6.52,4.11 6.47,4.19z"/>
   <path id="svg_403" fill="#263238" d="m610.2,195.77c-0.12,-0.07 6.08,-9.82 13.85,-21.76s14.17,-21.56 14.29,-21.48s-6.08,9.82 -13.85,21.76s-14.17,21.56 -14.29,21.48z"/>
   <path id="svg_404" fill="#FF725E" d="m740.08,167.29s17.54,4 17.45,23.43c-0.09,22 0,52 -6.1,55.18c-8.08,4.14 -22.82,2.1 -22.82,2.1l-3.1,-19.52l9.77,-2.6l0.63,-42.29l4.17,-16.3z"/>
   <path id="svg_405" fill="#263238" d="m735.89,191.09a6.57,6.57 0 0 1 0.1,1.37c0,1 0,2.24 0.06,3.74c0,3.16 0.05,7.52 0,12.33s-0.06,9.18 -0.12,12.33c0,1.5 -0.07,2.76 -0.1,3.74a7.45,7.45 0 0 1 -0.1,1.37a6.3,6.3 0 0 1 -0.1,-1.36c0,-1 0,-2.24 -0.07,-3.74c0,-3.16 0,-7.52 0,-12.34s0.07,-9.18 0.13,-12.33c0,-1.5 0.07,-2.76 0.09,-3.74a6.91,6.91 0 0 1 0.11,-1.37z"/>
   <path id="svg_406" fill="#ffbe9d" d="m683,243.56c-0.23,-0.34 6.16,-7.65 7.79,-8.68s5.63,-0.26 7,0.17s27.84,-6 27.84,-6l3,18.22l-22.3,-0.78s-6.51,10 -8.36,9.9a2.27,2.27 0 0 1 -2.2,-1.42s-3,-0.06 -3.46,-2.52c0,0 -3.51,0.38 -3.13,-1.62c0,0 -1.63,2.87 -3.25,2.33s-2.2,-1.55 -1.26,-3.06s3.84,-7.09 3.84,-7.09s-4.04,2.68 -5.51,0.55z"/>
   <path id="svg_407" fill="#ffbe9d" d="m644.7,221.13s-5.74,1 -8.45,-0.09s-13.38,-10.68 -13.38,-10.68l-0.61,-10.08l6.32,-6s2.41,1.21 0.3,3.92l-2.1,3.3s2.55,-3.91 4.21,-3.3a2.49,2.49 0 0 1 1.65,2.25s3,-1.8 3.31,1.21a8.82,8.82 0 0 1 -1.65,5.56l0.3,6.47l1.35,-5.34l3.76,-3.23a2.24,2.24 0 0 1 0.3,3.23l-2.1,2.63l0.15,5.72l6.64,4.43z"/>
   <path id="svg_408" fill="#263238" d="m744.81,238.25a42.39,42.39 0 0 0 -4.15,-6.62a43,43 0 0 0 -5.68,-5.37a7.26,7.26 0 0 1 2,1.18a22.39,22.39 0 0 1 4.08,3.86a22.74,22.74 0 0 1 3,4.75a7.51,7.51 0 0 1 0.75,2.2z"/>
   <path id="svg_409" fill="#263238" d="m744.06,173.71a22.34,22.34 0 0 0 -4.32,2.19a22,22 0 0 0 -3.4,3.46a7.85,7.85 0 0 1 3.09,-3.88a8,8 0 0 1 4.63,-1.77z"/>
  </g>
  <g id="character-1">
   <polygon id="svg_496" fill="#263238" points="151.39999389648438,168.9199981689453 336.8500061035156,144.6300048828125 329.7900085449219,85.19999694824219 144.4199981689453,109.7300033569336 151.39999389648438,168.9199981689453 "/>
   <path id="svg_497" fill="#e0e0e0" d="m161.79,121.39a26,26 0 0 1 -6.09,0.78a12.81,12.81 0 0 1 3,-0.57a13.46,13.46 0 0 1 3.09,-0.21z"/>
   <path id="svg_498" fill="#e0e0e0" d="m161.22,115.26a12.52,12.52 0 0 1 -3,0.57a12.75,12.75 0 0 1 -3.06,0.21a13.44,13.44 0 0 1 3,-0.57a14.12,14.12 0 0 1 3.06,-0.21z"/>
   <path id="svg_499" fill="#e0e0e0" d="m162.65,128a12.81,12.81 0 0 1 -3,0.57a13.49,13.49 0 0 1 -3.07,0.21a12.81,12.81 0 0 1 3,-0.57a13.46,13.46 0 0 1 3.07,-0.21z"/>
   <path id="svg_500" fill="#e0e0e0" d="m163.5,134.53a12.66,12.66 0 0 1 -3,0.57a13.4,13.4 0 0 1 -3.06,0.21a26,26 0 0 1 6.08,-0.78l-0.02,0z"/>
   <path id="svg_501" fill="#e0e0e0" d="m164.36,141.11a13.79,13.79 0 0 1 -3,0.56a12.75,12.75 0 0 1 -3.06,0.21a25.33,25.33 0 0 1 6.08,-0.77l-0.02,0z"/>
   <path id="svg_502" fill="#e0e0e0" d="m165.22,147.68a13.13,13.13 0 0 1 -3,0.56a12.82,12.82 0 0 1 -3.07,0.21a13.44,13.44 0 0 1 3,-0.57a13.11,13.11 0 0 1 3.07,-0.2z"/>
   <path id="svg_503" fill="#e0e0e0" d="m166.08,154.25a13.13,13.13 0 0 1 -3,0.56a12.82,12.82 0 0 1 -3.08,0.19a13.13,13.13 0 0 1 3,-0.56a12.83,12.83 0 0 1 3.08,-0.19z"/>
   <path id="svg_504" fill="#FF725E" d="m186.13,117.9c0,0.1 -3.51,0.63 -7.87,1.18s-7.91,0.93 -7.92,0.83s3.51,-0.63 7.87,-1.19s7.91,-0.92 7.92,-0.82z"/>
   <path id="svg_505" fill="#FF725E" d="m209.89,128.63c0,0.1 -6.59,1 -14.75,2.06s-14.79,1.8 -14.8,1.7s6.59,-1 14.76,-2.06s14.78,-1.8 14.79,-1.7z"/>
   <path id="svg_506" fill="#e0e0e0" d="m244.07,124.27c0,0.1 -6.6,1 -14.76,2.07s-14.78,1.8 -14.8,1.7s6.59,-1 14.76,-2.06s14.78,-1.8 14.8,-1.71z"/>
   <path id="svg_507" fill="#e0e0e0" d="m231.86,132.51c0,0.1 -9.72,1.42 -21.75,3s-21.79,2.69 -21.8,2.6s9.73,-1.43 21.76,-3s21.78,-2.7 21.79,-2.6z"/>
   <path id="svg_508" fill="#e0e0e0" d="m232.72,139.08c0,0.1 -9.72,1.42 -21.75,2.95s-21.79,2.7 -21.8,2.6s9.72,-1.42 21.75,-3s21.79,-2.63 21.8,-2.55z"/>
   <path id="svg_509" fill="#e0e0e0" d="m250.62,143.48c0,0.1 -9.72,1.42 -21.75,3s-21.79,2.7 -21.8,2.6s9.73,-1.42 21.75,-2.95s21.79,-2.75 21.8,-2.65z"/>
   <path id="svg_510" fill="#e0e0e0" d="m303.84,136.7c0,0.1 -9.72,1.42 -21.75,3s-21.79,2.69 -21.8,2.59s9.73,-1.42 21.76,-2.95s21.78,-2.73 21.79,-2.64z"/>
   <path id="svg_511" fill="#fafafa" d="m283.62,125.92c0,0.1 -9.73,1.42 -21.75,3s-21.79,2.69 -21.8,2.59s9.72,-1.42 21.75,-3s21.79,-2.69 21.8,-2.59z"/>
   <path id="svg_512" fill="#455a64" d="m308.55,129.42c0,0.1 -15.11,2.11 -33.79,4.49s-33.82,4.22 -33.84,4.13s15.12,-2.11 33.8,-4.49s33.82,-4.23 33.83,-4.13z"/>
   <path id="svg_513" fill="#fafafa" d="m187,124.86c0,0.09 -3.51,0.63 -7.87,1.18s-7.91,0.93 -7.93,0.83s3.52,-0.63 7.88,-1.19s7.92,-0.92 7.92,-0.82z"/>
   <path id="svg_514" fill="#fafafa" d="m198.3,150.14c0,0.1 -3.52,0.63 -7.88,1.19s-7.9,0.93 -7.92,0.83s3.51,-0.63 7.88,-1.19s7.9,-0.92 7.92,-0.83z"/>
   <path id="svg_515" fill="#FF725E" d="m324.89,134c0,0.1 -3.52,0.63 -7.88,1.19s-7.91,0.92 -7.92,0.83s3.51,-0.63 7.88,-1.19s7.9,-0.9 7.92,-0.83z"/>
   <path id="svg_516" fill="#455a64" d="m172.08,162.21c-0.14,0 -1.63,-11.73 -3.32,-26.23s-2.95,-26.27 -2.8,-26.29s1.63,11.73 3.32,26.23s2.94,26.27 2.8,26.29z"/>
   <path id="svg_517" fill="#af8b82" d="m157.16,168.09l-5.85,0.83l-0.69,-7.94l-1,-7l-1.32,-11.28l-4.19,6.16a5.4,5.4 0 0 0 -0.87,2.56l-0.61,21.47l-0.1,9.18l10.41,6.54l-0.22,-10.93l2.42,-2.59c2.37,-2.55 2.02,-7 2.02,-7z"/>
   <path id="svg_518" fill="#af8b82" d="m144.42,161.09a44.63,44.63 0 0 1 4.69,-6.74a6.35,6.35 0 0 1 2,-1.75a2.36,2.36 0 0 1 2.53,0.18a2.49,2.49 0 0 1 0.41,2.82a9.32,9.32 0 0 1 -1.82,2.43a5,5 0 0 0 -1.42,2.64a8.06,8.06 0 0 0 0.51,2.81a9.21,9.21 0 0 1 -2.4,8.62"/>
   <path id="svg_519" fill="#7f6360" d="m148.93,172.1s0.32,-0.38 0.81,-1.1a9.44,9.44 0 0 0 1.43,-3.37a8.88,8.88 0 0 0 0.19,-2.52a12.43,12.43 0 0 0 -0.62,-2.85a4.4,4.4 0 0 1 -0.16,-1.68a4,4 0 0 1 0.64,-1.65c0.64,-1 1.58,-1.77 2.22,-2.73a3.34,3.34 0 0 0 0.6,-1.53a2.11,2.11 0 0 0 -0.35,-1.47a2.07,2.07 0 0 0 -2.66,-0.28a8.14,8.14 0 0 0 -2.08,2c-0.6,0.71 -1.13,1.38 -1.61,2c-0.94,1.26 -1.65,2.32 -2.14,3.06a7.88,7.88 0 0 1 -0.78,1.13a6.36,6.36 0 0 1 0.61,-1.24a36,36 0 0 1 2,-3.17c0.46,-0.64 1,-1.34 1.56,-2.07a8.3,8.3 0 0 1 2.18,-2.11a3.06,3.06 0 0 1 1.67,-0.42a2.16,2.16 0 0 1 1.64,0.81a3.15,3.15 0 0 1 -0.23,3.6c-0.71,1 -1.63,1.8 -2.22,2.72a3.5,3.5 0 0 0 -0.58,1.44a4,4 0 0 0 0.14,1.49a12.62,12.62 0 0 1 0.58,3a9.07,9.07 0 0 1 -0.26,2.62a8.93,8.93 0 0 1 -1.63,3.41a5.64,5.64 0 0 1 -0.69,0.76c-0.19,0.05 -0.25,0.16 -0.26,0.15z"/>
   <path id="svg_520" fill="#FF725E" d="m111.15,435.16l-3.92,21s20,11 19.66,15l-41,-6.14l4.81,-33.02l20.45,3.16z"/>
   <g id="svg_521" opacity="0.3">
    <path id="svg_522" d="m111.15,435.16l-3.92,21s20,11 19.66,15l-41,-6.14l4.81,-33.02l20.45,3.16z"/>
   </g>
   <path id="svg_523" fill="#e0e0e0" d="m94.83,452.47a1.7,1.7 0 0 0 -1.45,1.74a1.64,1.64 0 0 0 1.71,1.45a1.79,1.79 0 0 0 1.52,-1.85a1.69,1.69 0 0 0 -1.94,-1.31"/>
   <path id="svg_524" fill="#263238" d="m85.93,465l0.61,-3.3l39.05,7.12s1.7,1.07 1.3,2.32l-40.96,-6.14z"/>
   <path id="svg_525" fill="#263238" d="m107.92,456c0,0.2 -1,0.14 -2.13,0.64s-1.73,1.25 -1.9,1.15s0.3,-1.22 1.62,-1.8s2.49,-0.13 2.41,0.01z"/>
   <path id="svg_526" fill="#263238" d="m112,458.46c0,0.2 -0.9,0.41 -1.71,1.16s-1.13,1.61 -1.33,1.57s-0.16,-1.19 0.86,-2.1s2.18,-0.82 2.18,-0.63z"/>
   <path id="svg_527" fill="#263238" d="m113.62,464c-0.19,0 -0.32,-1 0.36,-2s1.68,-1.32 1.74,-1.14s-0.61,0.68 -1.15,1.52s-0.75,1.62 -0.95,1.62z"/>
   <path id="svg_528" fill="#263238" d="m108.28,451.16c-0.11,0.17 -1,-0.25 -2.13,-0.34s-2.07,0.13 -2.15,-0.05s0.88,-0.78 2.22,-0.65s2.19,0.88 2.06,1.04z"/>
   <path id="svg_529" fill="#FF725E" d="m97.77,440.18l-0.37,21.35s21.6,7.55 21.88,11.47l-41.42,0.76l-0.77,-33.29l20.68,-0.29z"/>
   <path id="svg_530" fill="#e0e0e0" d="m84.56,460a1.69,1.69 0 0 0 -1.14,1.95a1.62,1.62 0 0 0 1.93,1.14a1.78,1.78 0 0 0 1.19,-2.07a1.7,1.7 0 0 0 -2.14,-1"/>
   <path id="svg_531" fill="#263238" d="m77.86,473.79l0.06,-3.36l39.69,0.53s1.86,0.77 1.67,2.07l-41.42,0.76z"/>
   <path id="svg_532" fill="#263238" d="m98.06,461.31c0,0.2 -1,0.31 -2,1s-1.5,1.52 -1.69,1.45s0.09,-1.25 1.3,-2s2.43,-0.64 2.39,-0.45z"/>
   <path id="svg_533" fill="#263238" d="m102.44,463c0.05,0.2 -0.82,0.56 -1.49,1.43s-0.86,1.77 -1.06,1.77s-0.35,-1.15 0.51,-2.21s2.03,-1.16 2.04,-0.99z"/>
   <path id="svg_534" fill="#263238" d="m105,468.18c-0.18,0 -0.48,-1 0,-2.08s1.43,-1.57 1.52,-1.41s-0.48,0.77 -0.88,1.7s-0.44,1.76 -0.64,1.79z"/>
   <path id="svg_535" fill="#263238" d="m97.61,456.43c-0.08,0.19 -1,-0.08 -2.16,0s-2,0.48 -2.13,0.31s0.73,-0.91 2.08,-1s2.31,0.53 2.21,0.69z"/>
   <path id="svg_536" fill="#263238" d="m68.56,274.44l0.55,21.11l6.24,65.57s-2,31.94 -3.26,50c-1.09,15.66 2.07,42.8 2.07,42.8l26.36,-0.69l7.07,-91l4.41,-56.73l8.89,-29.65l-52.33,-1.41z"/>
   <path id="svg_537" fill="#263238" d="m133.7,279.23l1.66,85.77a36,36 0 0 1 -2.1,12.84l-22.65,63.06l-1.12,4.16l-15.84,-3.39l7.69,-167.23l32.36,4.79z"/>
   <path id="svg_538" fill="#455a64" d="m111.61,294.39a3.24,3.24 0 0 1 0,0.41c0,0.3 0,0.7 0,1.21c0,1.09 0,2.65 0,4.64c0,4 -0.12,9.87 -0.31,17.08c-0.42,14.41 -1.39,34.32 -3.13,56.24s-3.69,41.73 -5.17,56.03c-0.75,7.14 -1.35,12.93 -1.77,17l-0.51,4.61c-0.06,0.5 -0.11,0.9 -0.14,1.2a2.77,2.77 0 0 1 -0.07,0.4a2.53,2.53 0 0 1 0,-0.41q0,-0.45 0.09,-1.2l0.42,-4.62c0.38,-4 0.93,-9.84 1.62,-17c1.37,-14.33 3.32,-34.14 5,-56.06s2.76,-41.8 3.27,-56.21c0.24,-7.2 0.4,-13 0.46,-17.06c0,-2 0.08,-3.55 0.11,-4.64c0,-0.51 0,-0.91 0,-1.21a2.18,2.18 0 0 1 0.13,-0.41z"/>
   <path id="svg_539" fill="#455a64" d="m88.6,279.85a3.1,3.1 0 0 1 -0.08,1a14.63,14.63 0 0 1 -0.68,2.57a16.84,16.84 0 0 1 -12.84,10.86a15.06,15.06 0 0 1 -2.65,0.25a3.4,3.4 0 0 1 -1,-0.08c0,-0.09 1.39,0 3.55,-0.51a17.52,17.52 0 0 0 12.59,-10.67c0.85,-2.06 1.02,-3.44 1.11,-3.42z"/>
   <path id="svg_540" fill="#455a64" d="m113,283.21a1.36,1.36 0 1 1 -1.39,-1.32a1.35,1.35 0 0 1 1.39,1.32z"/>
   <path id="svg_541" fill="#455a64" d="m134.38,293.35a8.43,8.43 0 0 1 -1.91,-1.7a20.86,20.86 0 0 1 -5.26,-11a8.2,8.2 0 0 1 -0.13,-2.55c0.08,0 0.16,1 0.47,2.49a24.81,24.81 0 0 0 1.91,5.73a25.44,25.44 0 0 0 3.27,5.08c1,1.22 1.7,1.89 1.65,1.95z"/>
   <path id="svg_542" fill="#FF725E" d="m116.46,171s7.45,5.77 10.37,12.3a141.68,141.68 0 0 0 8.71,15.43l5.33,-19.26l14.44,6.87s-4.44,30.17 -5.5,33.71c-1.47,4.9 -5,9.29 -10.49,8.77s-8.76,-3 -12.37,-8.18l-4.88,-8.81l-5.61,-40.83z"/>
   <path id="svg_543" fill="#FF725E" d="m80.55,158.43s-20.64,10.2 -25,16.24c-5.23,7.32 9.27,30.74 10.37,36.54c0.53,2.79 4,23.76 2.36,40.3a283.6,283.6 0 0 0 -1.23,33.09l66.61,-5.37c0,-11.61 -3,-20.58 -5,-35.33l-5,-48.13l-7.2,-24.77l-10.29,-4.35l-25.62,-8.22z"/>
   <path id="svg_544" fill="#263238" d="m122.47,187.65a1.8,1.8 0 0 1 0.12,0.51c0.06,0.39 0.14,0.88 0.23,1.47c0.19,1.27 0.45,3.13 0.75,5.42c0.6,4.58 1.36,10.91 2.1,17.92s1.3,13.37 1.67,18c0.18,2.3 0.31,4.17 0.39,5.46c0,0.59 0.05,1.08 0.07,1.48a1.89,1.89 0 0 1 0,0.52a2.13,2.13 0 0 1 -0.09,-0.51c0,-0.4 -0.11,-0.88 -0.17,-1.48l-0.54,-5.44c-0.47,-4.66 -1.11,-11 -1.82,-17.95s-1.44,-13.27 -2,-17.93c-0.24,-2.24 -0.43,-4.08 -0.58,-5.44c-0.06,-0.59 -0.1,-1.08 -0.14,-1.48a2.05,2.05 0 0 1 0.01,-0.55z"/>
   <path id="svg_545" fill="#fff" d="m111.69,207.58s0.12,-0.17 0.38,-0.44l1.1,-1.11c1,-0.93 2.26,-2.2 3.72,-3.6l0,0l0,0.19c-1.48,-1.37 -2.8,-2.61 -3.75,-3.53l-1.07,-1.09c-0.26,-0.26 -0.4,-0.41 -0.38,-0.42a2.64,2.64 0 0 1 0.45,0.35l1.17,1c1,0.88 2.32,2.1 3.79,3.47l0.1,0.09l-0.1,0.1l0,0c-1.46,1.4 -2.8,2.65 -3.77,3.54l-1.16,1.06a3.23,3.23 0 0 1 -0.48,0.39z"/>
   <path id="svg_546" fill="#fff" d="m100.32,197.55a2.93,2.93 0 0 1 -0.38,0.43l-1.11,1.11c-0.94,0.93 -2.26,2.21 -3.72,3.6l0,0l0,-0.18c1.47,1.36 2.79,2.61 3.74,3.52l1.11,1.09a2.29,2.29 0 0 1 0.39,0.43a3.55,3.55 0 0 1 -0.45,-0.35l-1.17,-1c-1,-0.88 -2.32,-2.11 -3.8,-3.48l-0.1,-0.09l0.1,-0.09l0,0c1.47,-1.39 2.8,-2.64 3.77,-3.54l1.17,-1.05a2.47,2.47 0 0 1 0.45,-0.4z"/>
   <path id="svg_547" fill="#fff" d="m103.24,209.94c-0.07,0 1.12,-3.38 2.66,-7.49s2.84,-7.43 2.91,-7.4s-1.13,3.38 -2.67,7.49s-2.84,7.46 -2.9,7.4z"/>
   <path id="svg_548" fill="#263238" d="m72.3,192.55c-0.1,0 0,-1.38 -0.46,-3.54a17.35,17.35 0 0 0 -10.39,-12.68c-2,-0.86 -3.39,-1.06 -3.37,-1.15a3.3,3.3 0 0 1 1,0.09a14.87,14.87 0 0 1 2.55,0.71a17,17 0 0 1 7,5.06a16.79,16.79 0 0 1 3.57,7.96a14,14 0 0 1 0.2,2.63a3.29,3.29 0 0 1 -0.1,0.92z"/>
   <path id="svg_549" fill="#263238" d="m117.12,248.53a5.61,5.61 0 0 1 -1.3,-0.19a31.1,31.1 0 0 1 -3.48,-0.86a42.52,42.52 0 0 1 -5,-1.88a45.18,45.18 0 0 1 -5.71,-3.15a44.61,44.61 0 0 1 -5.15,-4a41.57,41.57 0 0 1 -3.71,-3.82a34,34 0 0 1 -2.18,-2.85a6.46,6.46 0 0 1 -0.69,-1.12c0.09,-0.05 1.14,1.49 3.15,3.72a45.63,45.63 0 0 0 3.75,3.71a49.61,49.61 0 0 0 5.12,3.91a48.42,48.42 0 0 0 5.63,3.14a44.7,44.7 0 0 0 4.88,2c2.87,0.94 4.71,1.29 4.69,1.39z"/>
   <g id="svg_550" opacity="0.3">
    <path id="svg_551" d="m69.18,206.51c-4.29,25.54 -2.12,52.52 4.48,77.56l1.7,-0.13c1.39,-25.85 -1.17,-52.03 -6.18,-77.43z"/>
   </g>
   <path id="svg_552" fill="#af8b82" d="m71.6,289.14l0.51,5.82s4.46,2.33 6.06,4s6.28,10.3 6.28,10.3a2.46,2.46 0 0 1 -3.12,0.23a37.92,37.92 0 0 1 -3.3,-4.61l0,0a2.5,2.5 0 0 0 -2.92,3c0.6,2.6 1.29,5.63 1.31,6s2.6,2.9 4.56,4.69a1.67,1.67 0 0 1 -1.35,2.87a0.84,0.84 0 0 1 -0.4,-0.2s0.23,2.76 -3.57,0.56c0,0 -3.38,0.82 -5,-1.1c0,0 -4.15,-0.58 -5.63,-1.78s-4.78,-13.74 -4.78,-13.74l-1.93,-13.37l13.28,-2.67z"/>
   <path id="svg_553" fill="#7f6360" d="m71.26,309.28a8,8 0 0 0 0.06,2.28a11.9,11.9 0 0 0 1.64,5.26a10.73,10.73 0 0 0 4.23,3.44a7,7 0 0 0 2.09,0.82a9.88,9.88 0 0 0 -1.89,-1.19a12,12 0 0 1 -3.94,-3.41a13.2,13.2 0 0 1 -1.72,-5a9.8,9.8 0 0 0 -0.47,-2.2z"/>
   <path id="svg_554" fill="#7f6360" d="m68.41,310.81a4.27,4.27 0 0 0 -0.07,2.09a16.46,16.46 0 0 0 0.43,2.22a7,7 0 0 0 1.19,2.55a11.31,11.31 0 0 0 2.08,1.81l1.79,1.28a7.46,7.46 0 0 0 1.74,1.06c0.05,-0.07 -0.52,-0.6 -1.49,-1.4c-0.48,-0.4 -1.06,-0.88 -1.72,-1.38a13.2,13.2 0 0 1 -2,-1.76a6.87,6.87 0 0 1 -1.12,-2.33a18.51,18.51 0 0 1 -0.54,-2.13c-0.2,-1.23 -0.21,-2.01 -0.29,-2.01z"/>
   <path id="svg_555" fill="#7f6360" d="m65.25,312.83c-0.24,0.06 0.35,2.3 1.22,4.94a2.15,2.15 0 0 0 0.64,0.94a6.08,6.08 0 0 0 0.73,0.64a8.45,8.45 0 0 0 1.36,0.89c0.82,0.44 1.41,0.53 1.43,0.46s-0.48,-0.31 -1.22,-0.82a14.85,14.85 0 0 1 -1.23,-0.95a7.75,7.75 0 0 1 -0.66,-0.63a1.72,1.72 0 0 1 -0.49,-0.72c-0.44,-1.34 -0.87,-2.52 -1.2,-3.38a6.8,6.8 0 0 0 -0.58,-1.37z"/>
   <path id="svg_556" fill="#FF725E" d="m55.59,174.67s-8,10 -8.08,18.11s-1.74,60.69 -1.74,60.69l11.23,43.8l17.92,-4.53l-6.36,-46.15l0.62,-40.08l-13.59,-31.84z"/>
   <path id="svg_557" fill="#263238" d="m57,297.27a1.43,1.43 0 0 1 0.31,-0.11l0.93,-0.26l3.55,-1l13.08,-3.39l-0.15,0.21c-1.34,-9.23 -3.13,-21.48 -5.08,-34.88c-0.46,-3.18 -0.91,-6.3 -1.34,-9.3l0,0c0.22,-12.58 0.42,-23.65 0.56,-31.62c0.09,-3.94 0.16,-7.1 0.21,-9.33c0,-1.06 0.06,-1.9 0.08,-2.51c0,-0.26 0,-0.48 0,-0.65s0,-0.22 0,-0.22a0.57,0.57 0 0 1 0,0.22c0,0.18 0,0.39 0,0.65c0,0.61 0,1.45 0,2.51c0,2.23 0,5.4 -0.06,9.33c-0.09,8 -0.23,19 -0.38,31.63l0,0l1.34,9.3c1.91,13.41 3.65,25.66 5,34.9l0,0.17l-0.17,0.05l-13.11,3.22l-3.59,0.86l-0.93,0.2a1.34,1.34 0 0 1 -0.25,0.02z"/>
   <g id="svg_558" opacity="0.3">
    <path id="svg_559" d="m98.92,250.12a59.12,59.12 0 0 0 22,4.47c-1.14,1.72 -3.31,2.17 -5.37,2.29a17.11,17.11 0 0 1 -6,-0.58c-3.8,-1.17 -8.26,-2.94 -10.57,-6.18"/>
   </g>
   <g id="svg_560" opacity="0.3">
    <path id="svg_561" d="m135.52,198.81a46.43,46.43 0 0 0 -0.32,14.74a3,3 0 0 0 0.61,1.69a1.1,1.1 0 0 0 1.6,0.09a1.65,1.65 0 0 0 0,-1.47a43.83,43.83 0 0 1 -1.91,-15.05"/>
   </g>
   <path id="svg_562" fill="#263238" d="m123.29,118.49c-1,-2.24 -3.66,-3.9 -3.84,-4.61c-0.48,-1.86 1.14,-3.88 0.54,-5.71c-1.42,-4.29 -4.91,-3.72 -4.91,-3.72c-1.59,-1.93 -3.75,-4.48 -7.24,-5.38c-3.79,-1 -9.38,-1.71 -12.75,0.28s-5.85,3.31 -6.94,7.07l23.89,42c2.74,-1.27 4.45,-4.07 5.45,-6.91s1.47,-5.86 2.59,-8.66c0.84,-2.09 -0.08,-5.41 1.79,-6.65c2.35,-1.54 2.32,-5.65 1.42,-7.71z"/>
   <path id="svg_563" fill="#af8b82" d="m115.5,122.27a18.42,18.42 0 0 0 -18.07,-17.27l-1,0c-10.3,0.43 -15.69,9.4 -15,19.68l-0.89,33.75l17.46,11.69c5.88,4.42 8.23,0.92 8.23,-3.43l0,0l0,-9.64s9.91,-1.37 10.2,-11.25c0.14,-4.8 -0.37,-14.62 -0.93,-23.53z"/>
   <path id="svg_564" fill="#263238" d="m113.33,129.92a1.41,1.41 0 0 1 -1.38,1.4a1.36,1.36 0 0 1 -1.44,-1.3a1.41,1.41 0 0 1 1.39,-1.4a1.34,1.34 0 0 1 1.43,1.3z"/>
   <path id="svg_565" fill="#263238" d="m113.45,127.58c-0.18,0.18 -1.24,-0.63 -2.76,-0.65s-2.64,0.72 -2.8,0.53s0.1,-0.41 0.59,-0.76a3.93,3.93 0 0 1 2.25,-0.65a3.67,3.67 0 0 1 2.19,0.75c0.46,0.36 0.62,0.7 0.53,0.78z"/>
   <path id="svg_566" fill="#263238" d="m98.78,130.46a1.41,1.41 0 0 1 -1.38,1.4a1.36,1.36 0 0 1 -1.44,-1.3a1.41,1.41 0 0 1 1.39,-1.4a1.34,1.34 0 0 1 1.43,1.3z"/>
   <path id="svg_567" fill="#263238" d="m98.74,127.8c-0.17,0.19 -1.25,-0.59 -2.77,-0.57s-2.62,0.78 -2.79,0.6s0.09,-0.42 0.58,-0.77a3.85,3.85 0 0 1 2.23,-0.72a3.79,3.79 0 0 1 2.21,0.69c0.46,0.36 0.63,0.69 0.54,0.77z"/>
   <path id="svg_568" fill="#263238" d="m103.68,138.45a10.5,10.5 0 0 1 2.47,-0.4c0.39,0 0.76,-0.1 0.83,-0.37a2,2 0 0 0 -0.24,-1.15c-0.35,-0.95 -0.72,-1.94 -1.1,-3c-1.52,-4.23 -2.61,-7.7 -2.44,-7.76s1.54,3.32 3.06,7.55c0.37,1 0.72,2 1.05,3a2.24,2.24 0 0 1 0.17,1.53a1,1 0 0 1 -0.64,0.55a2.81,2.81 0 0 1 -0.66,0.08a9.45,9.45 0 0 1 -2.5,-0.03z"/>
   <path id="svg_569" fill="#263238" d="m98.75,122.46c-0.21,0.39 -1.68,0 -3.48,0s-3.29,0.27 -3.47,-0.13c-0.08,-0.19 0.22,-0.54 0.85,-0.86a6,6 0 0 1 5.29,0.12c0.61,0.32 0.9,0.69 0.81,0.87z"/>
   <path id="svg_570" fill="#263238" d="m113.57,122.51c-0.31,0.34 -1.48,0 -2.91,-0.08s-2.63,0.18 -2.9,-0.18c-0.12,-0.18 0.07,-0.52 0.61,-0.84a4.3,4.3 0 0 1 2.37,-0.52a4.35,4.35 0 0 1 2.31,0.73c0.5,0.38 0.66,0.72 0.52,0.89z"/>
   <path id="svg_571" fill="#263238" d="m88.89,105.71a7.48,7.48 0 0 0 8.83,7.39c1.67,-0.31 3.5,-1.15 4.95,-0.26s1.58,3.23 2.93,4.4c1.93,1.67 5,0.1 7.44,0.83c1.89,0.56 3.07,2.37 4.33,3.89s3.14,3 5,2.4a22.48,22.48 0 0 0 -0.75,-5a7.47,7.47 0 0 0 -2.87,-4.11a26.18,26.18 0 0 1 -2.41,-1.41c-1.57,-1.27 -1.94,-3.47 -2.91,-5.24a8.18,8.18 0 0 0 -6.25,-4.14c-2.15,-0.22 -4.36,0.42 -6.46,-0.11c-1.55,-0.39 -2.91,-1.4 -4.48,-1.69c-3.06,-0.59 -5.9,1.61 -8.12,3.8"/>
   <path id="svg_572" fill="#263238" d="m98.68,110.06c-1.37,-0.39 -4.18,-1.28 -4.92,-2.47a8.37,8.37 0 0 0 -7.29,-4.19a6.92,6.92 0 0 0 -6.23,5.47a9.94,9.94 0 0 0 -8.55,5.51a11.52,11.52 0 0 0 0.31,10.72a5.67,5.67 0 0 1 1.12,2.64c0,1.22 -0.89,2.19 -1.52,3.19c-1.73,2.75 -1.6,6.52 -0.26,9.51s2.28,4 4.19,4.64c3.73,1.17 4.23,6.38 5.68,7.81l1.8,-21.38a2.27,2.27 0 0 0 0.58,0.22c3.68,0.83 4.16,-6.35 3.34,-8.4a21.21,21.21 0 0 0 3.69,-3.88a15.42,15.42 0 0 0 1.69,-7.43c1.33,0.08 6.97,-1.79 6.37,-1.96z"/>
   <path id="svg_573" fill="#af8b82" d="m83.53,131.66c-0.17,-0.08 -6.76,-2.13 -6.66,4.64s6.87,5.26 6.88,5.07s-0.22,-9.71 -0.22,-9.71z"/>
   <path id="svg_574" fill="#7f6360" d="m81.64,138.84s-0.11,0.08 -0.31,0.17a1.16,1.16 0 0 1 -0.88,0a2.93,2.93 0 0 1 -1.39,-2.6a3.72,3.72 0 0 1 0.31,-1.69a1.34,1.34 0 0 1 0.87,-0.92a0.61,0.61 0 0 1 0.7,0.32c0.09,0.18 0.05,0.32 0.09,0.33s0.14,-0.12 0.08,-0.39a0.71,0.71 0 0 0 -0.27,-0.42a0.89,0.89 0 0 0 -0.65,-0.17a1.65,1.65 0 0 0 -1.22,1.07a4,4 0 0 0 -0.38,1.89a3,3 0 0 0 1.76,2.89a1.28,1.28 0 0 0 1.08,-0.19c0.2,-0.13 0.24,-0.28 0.21,-0.29z"/>
   <path id="svg_575" fill="#7f6360" d="m106.23,157.05s-9,-1.38 -14.25,-5.38c0,0 2.77,8.24 14.24,8.48l0.01,-3.1z"/>
   <path id="svg_576" fill="#263238" d="m99.75,139.39c0.25,0 0.22,1.67 1.63,2.88s3.19,1.06 3.2,1.29s-0.4,0.32 -1.15,0.33a4.22,4.22 0 0 1 -2.68,-1a3.64,3.64 0 0 1 -1.26,-2.41c-0.05,-0.69 0.14,-1.1 0.26,-1.09z"/>
  </g>
  <g id="Floor">
   <path id="svg_577" fill="#263238" d="m672.65,474.26c0,0.15 -136.41,0.26 -304.64,0.26s-304.66,-0.11 -304.66,-0.26s136.38,-0.26 304.65,-0.26s304.65,0.12 304.65,0.26z"/>
  </g>
 </g>
</svg>