<?xml version="1.0" standalone="no"?><!DOCTYPE svg PUBLIC "-//W3C//DTD SVG 1.1//EN" "http://www.w3.org/Graphics/SVG/1.1/DTD/svg11.dtd"><svg t="1656066104156" class="icon" viewBox="0 0 1024 1024" version="1.1" xmlns="http://www.w3.org/2000/svg" p-id="10438" xmlns:xlink="http://www.w3.org/1999/xlink" width="48" height="48"><defs><style type="text/css"></style></defs><path d="M952.4 71.6c9.8 9.4 10.2 24.9 0.9 34.8l-84.8 84.8 27.4 27.4c73.8 73.8 73.8 193.4 0 267.2l-82.7 82.7c-28.1 28.1-73.6 28.1-101.7 0L453.8 310.9c-28.1-28.1-28.1-73.6 0-101.7l82.7-82.7c71.1-71.1 185.5-74 260.2-6.7l7.1 6.7 29.1 29.1 84.8-84.7c8.5-8.2 21.7-9.1 31.3-2.1l3.4 2.8zM862 252.5l-92.1-92.2-6-5.7c-55.8-49.6-140.6-47.1-193.4 5.7L487.8 243c-9.4 9.4-9.4 24.5 0 33.9l257.6 257.6c9.4 9.4 24.5 9.4 33.9 0l82.7-82.7c55-55 55-144.2 0-199.3zM615.7 543.7c9.8 9.4 10.2 24.9 0.9 34.8l-61.3 61.3 42.6 42.7c28.1 28.1 28.1 73.6 0 101.7l-97.4 97.4c-79.1 79.1-206.3 82.2-289.2 7.1l-7.4-7.1-12.7-12.7-84.8 84.8c-8.5 8.2-21.7 9.1-31.2 2.1l-3.5-2.9c-8.6-8.3-10.1-21.4-3.6-31.4l2.8-3.3 84.8-84.8-14.5-14.4c-81.9-81.9-81.9-214.6 0-296.5l97.4-97.4c28.1-28.1 73.6-28.1 101.7 0l49 49 61.4-61.3c8.5-8.2 21.8-9.1 31.3-2.1l3.5 2.9c8.6 8.3 10.1 21.5 3.6 31.4l-2.7 3.3-61.4 61.3 94.6 94.7 61.3-61.3c8.5-8.2 21.7-9 31.2-2l3.6 2.7z m-51.8 172.7L306.3 458.8c-9.4-9.4-24.5-9.4-33.9 0L175 556.2c-63.2 63.2-63.2 165.6 0 228.8l62.8 62.7 6.4 6.1c64 57.3 161.6 54.6 222.3-6.1l97.4-97.4c9.4-9.3 9.4-24.5 0-33.9z" p-id="10439"></path></svg>