<?xml version="1.0" standalone="no"?><!DOCTYPE svg PUBLIC "-//W3C//DTD SVG 1.1//EN" "http://www.w3.org/Graphics/SVG/1.1/DTD/svg11.dtd"><svg t="1697857296499" class="icon" viewBox="0 0 1024 1024" version="1.1" xmlns="http://www.w3.org/2000/svg" p-id="7749" xmlns:xlink="http://www.w3.org/1999/xlink" width="64" height="64"><path d="M782.848 728.576m-185.856 0a185.856 185.856 0 1 0 371.712 0 185.856 185.856 0 1 0-371.712 0Z" fill="#FFE200" p-id="7750"></path><path d="M194.56 166.4H128c-16.896 0-30.72-13.824-30.72-30.72s13.824-30.72 30.72-30.72h66.56c16.896 0 30.72 13.824 30.72 30.72s-13.824 30.72-30.72 30.72z" fill="#FFE200" p-id="7751"></path><path d="M248.832 274.432v578.56h-92.16v-578.56h92.16m27.648-61.44H129.024c-18.432 0-33.792 14.848-33.792 33.792V880.64c0 18.432 14.848 33.792 33.792 33.792H276.48c18.432 0 33.792-14.848 33.792-33.792V246.784c0-18.432-15.36-33.792-33.792-33.792z" fill="#4E63DD" p-id="7752"></path><path d="M268.8 427.52h-138.24c-16.896 0-30.72-13.824-30.72-30.72s13.824-30.72 30.72-30.72h138.24c16.896 0 30.72 13.824 30.72 30.72s-13.824 30.72-30.72 30.72zM478.72 172.032v680.96h-92.16v-680.96h92.16m27.648-61.44H358.912c-18.432 0-33.792 14.848-33.792 33.792V880.64c0 18.432 14.848 33.792 33.792 33.792h147.456c18.432 0 33.792-14.848 33.792-33.792V144.384c0-18.432-15.36-33.792-33.792-33.792z" fill="#4E63DD" p-id="7753"></path><path d="M498.688 325.12h-138.24c-16.896 0-30.72-13.824-30.72-30.72s13.824-30.72 30.72-30.72h138.24c16.896 0 30.72 13.824 30.72 30.72s-13.824 30.72-30.72 30.72z" fill="#4E63DD" p-id="7754"></path><path d="M699.392 266.752l148.48 559.104-89.088 23.552-148.48-559.104 89.088-23.552m19.968-67.584c-3.072 0-5.632 0.512-8.704 1.024L568.32 238.08c-17.92 4.608-28.672 23.04-24.064 40.96l162.816 612.352c4.096 14.848 17.408 25.088 32.768 25.088 3.072 0 5.632-0.512 8.704-1.024l142.336-37.888c17.92-4.608 28.672-23.04 24.064-40.96L751.616 224.256c-4.096-14.848-17.408-25.088-32.256-25.088z" fill="#4E63DD" p-id="7755"></path><path d="M616.448 445.952c-13.824 0-26.112-9.216-29.696-23.04-4.608-16.384 5.632-33.28 22.016-37.376l133.632-35.328c16.384-4.608 33.28 5.632 37.376 22.016 4.608 16.384-5.632 33.28-22.016 37.376l-133.12 35.328c-2.56 0.512-5.632 1.024-8.192 1.024z" fill="#4E63DD" p-id="7756"></path></svg>