<?xml version="1.0" standalone="no"?><!DOCTYPE svg PUBLIC "-//W3C//DTD SVG 1.1//EN" "http://www.w3.org/Graphics/SVG/1.1/DTD/svg11.dtd"><svg t="1656066252885" class="icon" viewBox="0 0 1024 1024" version="1.1" xmlns="http://www.w3.org/2000/svg" p-id="17035" xmlns:xlink="http://www.w3.org/1999/xlink" width="48" height="48"><defs><style type="text/css"></style></defs><path d="M682.666667 610.133333v-196.266666l-170.666667-100.266667-170.666667 100.266667v196.266666l170.666667 100.266667z" p-id="17036"></path><path d="M512 236.8l142.933333-83.2L554.666667 96c-27.733333-14.933333-59.733333-14.933333-87.466667 0l-100.266667 57.6 145.066667 83.2zM721.066667 192l-142.933334 83.2 138.666667 81.066667 32 19.2v198.4l142.933333-83.2v-147.2c0-32-17.066667-59.733333-44.8-76.8L721.066667 192z m-330.666667 115.2l55.466667-32L302.933333 192l-128 74.666667c-27.733333 14.933333-44.8 44.8-44.8 76.8V490.666667l142.933334 83.2v-198.4l32-19.2 85.333333-49.066667zM512 787.2l-32-19.2-121.6-70.4-17.066667-10.666667V853.333333l128 74.666667c27.733333 14.933333 59.733333 14.933333 87.466667 0l128-74.666667v-166.4L544 768l-32 19.2zM174.933333 757.333333l100.266667 57.6v-166.4l-142.933333-83.2v115.2c-2.133333 32 14.933333 61.866667 42.666666 76.8z m573.866667 57.6l100.266667-57.6c27.733333-14.933333 44.8-44.8 44.8-76.8v-115.2l-142.933334 83.2v166.4z" p-id="17037"></path></svg>