<svg xmlns="http://www.w3.org/2000/svg" viewBox="0 0 800 450">
 <g>
  <title>Layer 1</title>
  <g id="paper-plane">
   <path id="svg_164" fill="#263238" d="m442.67761,211.63096c-0.06,-0.68 -0.09,-1.36 -0.09,-2l0.73,0c0,0.65 0,1.31 0.09,2l-0.73,0z"/>
   <path id="svg_165" fill="#263238" d="m507.09761,259.27096l0,-0.75c1.33,0 2.67,-0.05 4,-0.14l0.05,0.75c-1.36,0.08 -2.71,0.13 -4.05,0.14zm-5,-0.15c-1.34,-0.09 -2.69,-0.22 -4,-0.39l0.09,-0.74c1.31,0.16 2.65,0.29 4,0.38l-0.09,0.75zm14.06,-0.5l-0.1,-0.75c1.3,-0.18 2.63,-0.4 3.93,-0.66l0.14,0.74c-1.34,0.26 -2.68,0.48 -4,0.67l0.03,0zm-23,-0.71c-1.3,-0.26 -2.62,-0.57 -3.92,-0.91l0.19,-0.72c1.28,0.33 2.59,0.64 3.88,0.9l-0.15,0.73zm31.91,-1.11l-0.19,-0.72c1.27,-0.34 2.56,-0.73 3.82,-1.15l0.23,0.72c-1.34,0.42 -2.61,0.8 -3.93,1.15l0.07,0zm-40.75,-1.26c-1.27,-0.43 -2.54,-0.9 -3.78,-1.41l0.29,-0.69c1.22,0.5 2.48,1 3.73,1.39l-0.24,0.71zm49.24,-1.62l-0.28,-0.7c0.64,-0.25 1.28,-0.52 1.92,-0.8s1.16,-0.51 1.73,-0.78l0.32,0.67c-0.58,0.28 -1.16,0.54 -1.75,0.8l-1.94,0.81zm-57.61,-1.85c-1.2,-0.58 -2.4,-1.22 -3.56,-1.87l0.36,-0.66c1.16,0.65 2.34,1.28 3.53,1.86l-0.33,0.67zm65.74,-2.11l-0.38,-0.65c1.13,-0.66 2.26,-1.38 3.35,-2.13l0.42,0.62c-1.07,0.76 -2.21,1.48 -3.36,2.16l-0.03,0zm-73.6,-2.38c-1.12,-0.73 -2.23,-1.51 -3.3,-2.31l0.44,-0.6c1.07,0.79 2.17,1.56 3.27,2.28l-0.41,0.63zm81,-2.8l-0.47,-0.58c1,-0.82 2,-1.7 3,-2.61l0.51,0.55c-0.96,0.92 -1.98,1.81 -3,2.64l-0.04,0zm-88.21,-2.62c-1,-0.87 -2,-1.79 -3,-2.72l0.52,-0.54c1,0.92 1.94,1.83 3,2.69l-0.52,0.57zm94.85,-3.53l-0.54,-0.52c0.89,-0.95 1.78,-1.95 2.65,-3l0.57,0.49c-0.88,1.03 -1.78,2.04 -2.68,3l0,0.03zm-101.31,-2.85c-0.9,-1 -1.76,-2.06 -2.58,-3.11l0.6,-0.46c0.8,1 1.65,2.07 2.54,3.07l-0.56,0.5zm107.14,-4.1l-0.6,-0.46c0.78,-1 1.57,-2.11 2.35,-3.22l0.62,0.43c-0.79,1.12 -1.61,2.21 -2.37,3.25zm-112.62,-3.13c-0.74,-1.15 -1.42,-2.32 -2,-3.49l0.67,-0.35c0.6,1.15 1.28,2.3 2,3.43l-0.67,0.41zm117.79,-4.29l-0.63,-0.4c0.72,-1.12 1.42,-2.25 2.12,-3.39l0.64,0.39c-0.7,1.15 -1.41,2.3 -2.13,3.4zm-121.93,-3.79a35.85,35.85 0 0 1 -1.25,-3.85l0.72,-0.19a36,36 0 0 0 1.23,3.77l-0.7,0.27zm126.61,-3.94l-0.66,-0.37c0.66,-1.15 1.31,-2.32 2,-3.5l0.65,0.36q-1,1.77 -1.99,3.51zm4.33,-7.93l-0.67,-0.35c0.62,-1.17 1.24,-2.36 1.85,-3.55l0.67,0.34c-0.62,1.2 -1.27,2.39 -1.85,3.56zm4.12,-8l-0.67,-0.34l1.8,-3.58l0.67,0.33l-1.8,3.59zm4,-8.07l-0.67,-0.34l1.8,-3.58l0.67,0.33l-1.8,3.59zm4.06,-8l-0.6,-0.37c0.6,-1.19 1.22,-2.38 1.84,-3.57l0.66,0.35l-1.9,3.59zm4.18,-8l-0.66,-0.36q0.94,-1.76 1.92,-3.51l0.66,0.36q-0.93,1.71 -1.88,3.46l-0.04,0.05zm4.38,-7.84l-0.65,-0.38q1,-1.72 2,-3.45l0.65,0.39c-0.61,1.09 -1.29,2.24 -1.96,3.39l-0.04,0.05zm4.67,-7.67l-0.63,-0.4c0.72,-1.13 1.45,-2.24 2.2,-3.35l0.62,0.42c-0.71,1.05 -1.43,2.16 -2.15,3.28l-0.04,0.05zm5,-7.43l-0.61,-0.44c0.78,-1.09 1.58,-2.16 2.39,-3.23l0.6,0.45c-0.73,1.02 -1.52,2.09 -2.3,3.17l-0.08,0.05zm5.47,-7.13l-0.58,-0.48c0.86,-1 1.73,-2.07 2.6,-3.06l0.56,0.49c-0.78,0.94 -1.65,1.96 -2.5,3l-0.08,0.05zm5.95,-6.73l-0.55,-0.52c0.93,-1 1.88,-1.94 2.82,-2.86l0.53,0.53c-0.86,0.87 -1.8,1.83 -2.72,2.8l-0.08,0.05zm6.44,-6.26l-0.5,-0.55c1,-0.89 2,-1.78 3,-2.63l0.48,0.58c-0.9,0.79 -1.92,1.67 -2.9,2.55l-0.08,0.05zm6.93,-5.69l-0.45,-0.6c1.07,-0.81 2.17,-1.6 3.26,-2.35l0.42,0.62c-1,0.71 -2.08,1.48 -3.15,2.28l-0.08,0.05zm7.39,-5.08l-0.39,-0.63c1.13,-0.71 2.29,-1.4 3.45,-2.06l0.37,0.65c-1.07,0.6 -2.22,1.29 -3.35,1.99l-0.08,0.05z"/>
   <path id="svg_166" fill="#263238" d="m646.39761,118.16096l-0.34,-0.66q0.88,-0.47 1.8,-0.9l0.33,0.68l-1.79,0.88z"/>
   <polygon id="svg_167" fill="#23A463" points="644.1273803710938,106.06097441911697 637.857421875,123.29095488786697 651.02734375,113.0009463429451 701.3673706054688,94.74096709489822 644.1273803710938,106.06097441911697 "/>
   <polygon id="svg_168" opacity="0.1" points="644.1273803710938,106.06097441911697 637.857421875,123.29095488786697 651.02734375,113.0009463429451 701.3673706054688,94.74096709489822 644.1273803710938,106.06097441911697 "/>
   <polygon id="svg_169" fill="#263238" points="652.7173461914062,117.0109561085701 637.857421875,123.29095488786697 651.02734375,113.0009463429451 652.7173461914062,117.0109561085701 "/>
   <polygon id="svg_170" fill="#23A463" points="651.02734375,113.0009463429451 701.3673706054688,94.74096709489822 660.077392578125,135.04095488786697 651.02734375,113.0009463429451 "/>
   <polygon id="svg_171" fill="#23A463" points="644.1273803710938,106.06097441911697 623.2073974609375,92.55096465349197 701.3673706054688,94.74096709489822 644.1273803710938,106.06097441911697 "/>
  </g>
  <g id="background-complete">
   <path id="svg_1" fill="#ebebeb" d="m643.88329,205.79577a28.4,28.4 0 0 1 -8.4,3.4a29,29 0 1 1 8.4,-3.4z"/>
   <path id="svg_2" fill="#fff" d="m637.80329,177.74577a8.82,8.82 0 1 1 -8.71,-8.92a8.82,8.82 0 0 1 8.71,8.92z"/>
   <path id="svg_3" fill="#fff" d="m643.94329,202.15577l0,3.64a28.4,28.4 0 0 1 -8.4,3.4a28.81,28.81 0 0 1 -22.08,-3.77l0,-3.63a15.25,15.25 0 0 1 30.49,0.36l-0.01,0z"/>
   <path id="svg_4" fill="#ebebeb" d="m108.60329,123.89577a19,19 0 0 1 -28.29,-12a19,19 0 1 1 28.29,12z"/>
   <path id="svg_5" fill="#fff" d="m104.61329,105.52577a5.78,5.78 0 1 1 -5.73,-5.85a5.78,5.78 0 0 1 5.73,5.85z"/>
   <path id="svg_6" fill="#fff" d="m108.63329,121.51577l0,2.38a19,19 0 0 1 -20,-0.25l0,-2.37a10,10 0 1 1 20,0.24z"/>
   <path id="svg_7" fill="#ebebeb" d="m255.44329,125.37577l-126.64,0l0,-86.63l126.64,0l0,86.63zm-125.64,-1l124.64,0l0,-84.63l-124.64,0l0,84.63z"/>
   <path id="svg_8" fill="#a6a6a6" d="m138.70329,44.32577a2.52,2.52 0 1 1 -2.52,-2.52a2.52,2.52 0 0 1 2.52,2.52z"/>
   <path id="svg_9" fill="#ebebeb" d="m148.99329,44.32577a2.52,2.52 0 1 1 -2.52,-2.52a2.52,2.52 0 0 1 2.52,2.52z"/>
   <path id="svg_10" fill="#23A463" d="m159.29329,44.32577a2.53,2.53 0 1 1 -2.52,-2.52a2.52,2.52 0 0 1 2.52,2.52z"/>
   <rect id="svg_11" fill="#ebebeb" height="1" width="125.64" y="48.75577" x="129.30329"/>
   <rect transform="rotate(-7.77 -32.8767 3.02577)" id="svg_12" fill="#ebebeb" height="42.23" width="66.59" y="188.04577" x="52.69329"/>
   <path id="svg_13" fill="#fff" d="m142.88329,165.79577c-2.32,2.91 -4.7,5.72 -7,8.6s-4.75,5.64 -7.15,8.44s-5,5.82 -7.52,8.71l-0.22,0.27q-3.34,3.82 -6.7,7.63l-0.34,0.37l-0.41,-0.26c-2.83,-1.86 -5.66,-3.71 -8.49,-5.58a2.49,2.49 0 0 1 -0.3,-0.19q-4.8,-3.15 -9.59,-6.38q-4.56,-3.08 -9.13,-6.22c-3,-2.14 -6.08,-4.21 -9.09,-6.39c3.13,1.79 6.23,3.71 9.34,5.56s6.21,3.8 9.3,5.74q5.16,3.21 10.33,6.53l0,0l7.73,4.95c2,-2.28 4.07,-4.58 6.11,-6.84l0,0c2.72,-3 5.45,-6.06 8.2,-9q3.69,-4 7.42,-8c2.51,-2.66 4.98,-5.37 7.51,-7.94z"/>
   <path id="svg_14" fill="#fff" d="m106.10329,193.56577a0.5,0.5 0 0 0 -0.07,0.08l-0.92,1c-1.47,1.63 -3,3.2 -4.53,4.73c-1.88,1.89 -3.82,3.72 -5.77,5.54s-4,3.58 -6,5.31s-4.09,3.43 -6.25,5c1.76,-2 3.62,-3.95 5.51,-5.83s3.83,-3.72 5.77,-5.54s4,-3.59 6,-5.32c1.61,-1.38 3.27,-2.75 5,-4l1.18,-0.9l0.08,-0.07z"/>
   <path id="svg_15" fill="#fff" d="m148.25329,206.31577c-2.51,-1 -5,-2.05 -7.37,-3.17s-4.81,-2.31 -7.19,-3.51s-4.73,-2.48 -7.05,-3.79c-1.89,-1.07 -3.76,-2.17 -5.6,-3.34l-1.17,-0.75l-0.09,-0.06l0.11,0l1.38,0.56c2,0.8 3.94,1.67 5.87,2.57c2.43,1.12 4.81,2.31 7.19,3.52s4.72,2.47 7,3.79s4.68,2.7 6.92,4.18z"/>
   <rect transform="rotate(-76.68 206.443 813.016)" id="svg_16" fill="#ebebeb" height="105.49" width="66.9" y="1039.86577" x="802.67329"/>
   <path id="svg_17" fill="#fff" d="m682.59329,244.26577c-5.09,3 -10.21,5.78 -15.31,8.7s-10.24,5.64 -15.38,8.41q-8,4.35 -16.08,8.58l-0.49,0.28q-7.11,3.73 -14.25,7.46l-0.7,0.35l-0.45,-0.62q-4.71,-6.53 -9.38,-13.08c-0.11,-0.13 -0.22,-0.29 -0.33,-0.45c-3.54,-4.94 -7.05,-9.89 -10.54,-14.9c-3.33,-4.76 -6.65,-9.58 -10,-14.39s-6.58,-9.69 -9.79,-14.64c3.61,4.45 7.09,9 10.63,13.55s7,9.15 10.48,13.78q5.8,7.69 11.55,15.54s0,0 0,0c2.87,3.89 5.74,7.81 8.61,11.72c4.3,-2.22 8.62,-4.45 12.93,-6.62c0,0 0,0 0,0c5.76,-2.93 11.51,-5.85 17.28,-8.71q7.75,-3.86 15.53,-7.6c5.3,-2.46 10.47,-5 15.69,-7.36z"/>
   <path id="svg_18" fill="#fff" d="m612.39329,264.35577c-0.06,0 -0.1,0.06 -0.15,0.08l-1.94,1q-4.63,2.34 -9.38,4.4c-3.86,1.73 -7.77,3.33 -11.69,4.9s-7.87,3 -11.86,4.44s-8,2.75 -12.11,3.88c3.76,-2 7.6,-3.77 11.46,-5.48s7.78,-3.32 11.69,-4.9s7.89,-3 11.88,-4.45c3.18,-1.12 6.4,-2.2 9.65,-3.15c0.76,-0.23 1.51,-0.44 2.27,-0.65l0.18,-0.07z"/>
   <path id="svg_19" fill="#fff" d="m667.43329,307.22577c-3.16,-2.85 -6.16,-5.85 -9.08,-8.89s-5.79,-6.16 -8.63,-9.29s-5.58,-6.35 -8.26,-9.62c-2.19,-2.65 -4.33,-5.34 -6.38,-8.12l-1.3,-1.77s-0.06,-0.1 -0.1,-0.14a0.63,0.63 0 0 0 0.13,0.11l1.74,1.62c2.48,2.31 4.86,4.71 7.21,7.14c2.94,3.05 5.79,6.16 8.61,9.3s5.58,6.35 8.26,9.62s5.33,6.57 7.8,10.04z"/>
   <rect id="svg_20" fill="#ebebeb" height="38.44" width="60.61" y="24.03577" x="405.68329"/>
   <path id="svg_21" fill="#fff" d="m466.28329,24.07577c-2.44,2.34 -4.94,4.58 -7.4,6.89s-5,4.51 -7.49,6.73s-5.23,4.64 -7.85,6.93l-0.24,0.22l-7,6.06l-0.34,0.28l-0.34,-0.28l-7,-6.07l-0.25,-0.21q-3.94,-3.43 -7.86,-6.94c-2.5,-2.21 -5,-4.47 -7.47,-6.72s-5,-4.55 -7.41,-6.89c2.6,2 5.16,4.11 7.73,6.17s5.14,4.18 7.69,6.32q4.25,3.52 8.5,7.15l0,0c2.12,1.79 4.24,3.6 6.37,5.41c2.11,-1.81 4.23,-3.63 6.35,-5.41c0,0 0,0 0,0q4.25,-3.6 8.51,-7.16q3.81,-3.18 7.67,-6.3c2.67,-2.11 5.23,-4.18 7.83,-6.18z"/>
   <path id="svg_22" fill="#fff" d="m429.70329,44.55577s-0.05,0.05 -0.08,0.06c-0.32,0.28 -0.63,0.55 -0.95,0.81c-1.52,1.29 -3.08,2.52 -4.66,3.71c-1.93,1.47 -3.91,2.88 -5.89,4.29s-4,2.73 -6,4.05s-4.12,2.59 -6.26,3.76c1.84,-1.61 3.75,-3.11 5.68,-4.57s3.92,-2.89 5.89,-4.29s4,-2.75 6.05,-4.06c1.63,-1.05 3.29,-2.08 5,-3l1.18,-0.67l0.04,-0.09z"/>
   <path id="svg_23" fill="#fff" d="m466.14329,61.23577c-2.14,-1.16 -4.26,-2.45 -6.26,-3.76s-4,-2.68 -6,-4.05s-4,-2.82 -5.89,-4.29c-1.57,-1.19 -3.13,-2.41 -4.64,-3.7l-1,-0.82s0,0 -0.07,-0.06l0.09,0.05l1.18,0.67c1.69,1 3.34,2 5,3c2.05,1.31 4.05,2.68 6,4.06s4,2.81 5.89,4.29s3.86,3 5.7,4.61z"/>
  </g>
  <rect id="svg_26" fill="#dbdbdb" height="295.29" width="441.45" y="70.67408" x="153.88067"/>
  <rect id="svg_27" fill="#263238" height="288.09" width="435.03" y="74.27408" x="157.08067"/>
  <rect id="svg_28" fill="#c7c7c7" height="20.27" width="556.44" y="388.11408" x="96.38067"/>
  <polygon id="svg_29" fill="#dbdbdb" points="96.38067626953125,388.1043856739998 153.88067626953125,365.9644015431404 595.3204345703125,365.9644015431404 652.8204345703125,388.1043856739998 96.38067626953125,388.1043856739998 "/>
  <polygon id="svg_30" fill="#263238" points="159.01068115234375,380.25437957048416 196.1106719970703,365.9644015431404 553.0804443359375,365.9644015431404 590.1904296875,380.25437957048416 159.01068115234375,380.25437957048416 "/>
  <rect id="svg_31" fill="#fff" height="244.32" width="385.86" y="96.16408" x="182.42455"/>
  <rect id="svg_32" fill="#455a64" height="9.4" width="386.19" y="96.16408" x="181.34067"/>
  <path id="svg_33" fill="#c7c7c7" d="m188.82067,100.86408a2.34,2.34 0 1 1 -2.34,-2.33a2.33,2.33 0 0 1 2.34,2.33z"/>
  <path id="svg_34" fill="#fff" d="m198.34067,100.86408a2.34,2.34 0 1 1 -2.34,-2.33a2.33,2.33 0 0 1 2.34,2.33z"/>
  <path id="svg_35" fill="#23A463" d="m207.86067,100.86408a2.34,2.34 0 1 1 -2.33,-2.33a2.33,2.33 0 0 1 2.33,2.33z"/>
  <rect id="svg_36" fill="#dbdbdb" height="234.91" width="6.85" y="105.56408" x="560.68067"/>
  <path id="svg_37" fill="#a6a6a6" d="m564.10067,187.00408l0,0a1.77,1.77 0 0 1 -1.77,-1.77l0,-76.53a1.77,1.77 0 0 1 1.77,-1.77l0,0a1.77,1.77 0 0 1 1.77,1.77l0,76.53a1.77,1.77 0 0 1 -1.77,1.77z"/>
  <path id="svg_41" fill="#fff" d="m499.44067,126.51408l-0.73,0.55l-1.36,-1.78l-0.49,-0.66a0.88,0.88 0 0 0 0.28,-0.16a1.25,1.25 0 0 0 0.38,-0.48l0.52,0.69l1.4,1.84z"/>
  <path id="svg_42" fill="#fff" d="m497.97067,122.30408a2,2 0 1 0 -0.65,3a1.67,1.67 0 0 0 0.28,-0.18a2.08,2.08 0 0 0 0.41,-0.43a2,2 0 0 0 -0.04,-2.39zm-0.86,2.16a0.88,0.88 0 0 1 -0.28,0.16a1.17,1.17 0 0 1 -1.39,-0.38a1.19,1.19 0 1 1 2.05,-0.26a1.25,1.25 0 0 1 -0.38,0.48z"/>
  <path id="svg_44" fill="#23A463" d="m546.78067,128.56408a4.63,4.63 0 0 1 -1.29,0.54a4.5,4.5 0 0 1 -5.43,-3.3a4.49,4.49 0 1 1 6.72,2.76z"/>
  <path id="svg_45" fill="#fff" d="m545.79067,124.22408a1.37,1.37 0 1 1 -1.37,-1.37a1.37,1.37 0 0 1 1.37,1.37z"/>
  <path id="svg_46" fill="#fff" d="m546.78067,127.99408l0,0.57a4.63,4.63 0 0 1 -1.29,0.54a4.43,4.43 0 0 1 -3.43,-0.55l0,-0.56a2.36,2.36 0 0 1 4.72,0z"/>
  <path id="svg_47" fill="#dbdbdb" d="m531.22067,129.23408l-3.13,0l0,-1.11a0.16,0.16 0 0 0 -0.09,-0.15l-0.34,-0.19a0.17,0.17 0 0 0 -0.18,0l-1,0.55l-1.56,-2.7l1,-0.56a0.18,0.18 0 0 0 0.08,-0.16c0,-0.06 0,-0.13 0,-0.19s0,-0.13 0,-0.19a0.18,0.18 0 0 0 -0.08,-0.16l-1,-0.56l1.56,-2.7l1,0.55a0.17,0.17 0 0 0 0.18,0a3.79,3.79 0 0 1 0.34,-0.2a0.14,0.14 0 0 0 0.09,-0.14l0,-1.11l3.13,0l0,1.11a0.18,0.18 0 0 0 0.09,0.15a1.86,1.86 0 0 1 0.34,0.19a0.17,0.17 0 0 0 0.18,0l1,-0.55l1.56,2.7l-1,0.56a0.18,0.18 0 0 0 -0.08,0.16c0,0.06 0,0.12 0,0.19s0,0.13 0,0.19a0.18,0.18 0 0 0 0.08,0.16l1,0.56l-1.56,2.7l-1,-0.55a0.17,0.17 0 0 0 -0.18,0l-0.34,0.19a0.16,0.16 0 0 0 -0.09,0.15l0,1.11zm-2.35,-0.78l1.57,0l0,-0.33a0.94,0.94 0 0 1 0.52,-0.84l0.27,-0.15a1,1 0 0 1 1,0l0.28,0.17l0.79,-1.36l-0.29,-0.17a0.93,0.93 0 0 1 -0.47,-0.87l0,-0.3a0.94,0.94 0 0 1 0.47,-0.88l0.29,-0.16l-0.79,-1.36l-0.28,0.16a0.93,0.93 0 0 1 -1,0l-0.27,-0.15a1,1 0 0 1 -0.52,-0.84l0,-0.33l-1.57,0l0,0.33a1,1 0 0 1 -0.52,0.84l-0.27,0.15a0.93,0.93 0 0 1 -1,0l-0.28,-0.16l-0.79,1.36l0.29,0.16a0.94,0.94 0 0 1 0.47,0.88l0,0.3a1,1 0 0 1 -0.47,0.88l-0.29,0.16l0.79,1.36l0.28,-0.17a1,1 0 0 1 1,0l0.27,0.16a0.94,0.94 0 0 1 0.52,0.84l0,0.32zm0.79,-1.43a2.31,2.31 0 1 1 2.31,-2.31a2.31,2.31 0 0 1 -2.31,2.31zm0,-3.84a1.53,1.53 0 1 0 1.53,1.53a1.53,1.53 0 0 0 -1.53,-1.53z"/>
  <rect id="svg_49" fill="#fff" height="4.9" width="4.9" y="166.58408" x="285.36067"/>
  <polygon id="svg_50" fill="#fff" points="311.1004333496094,171.48407012224197 306.200439453125,171.48407012224197 308.200439453125,169.0340731739998 306.200439453125,166.5840762257576 311.1004333496094,166.5840762257576 313.1004333496094,169.0340731739998 311.1004333496094,171.48407012224197 "/>
  <polygon id="svg_57" fill="#fff" points="311.1004333496094,187.81407195329666 306.200439453125,187.81407195329666 308.200439453125,185.36407500505447 306.200439453125,182.9140780568123 311.1004333496094,182.9140780568123 313.1004333496094,185.36407500505447 311.1004333496094,187.81407195329666 "/>
  <polygon id="svg_65" fill="#fff" points="311.1004333496094,204.14407378435135 306.200439453125,204.14407378435135 308.200439453125,201.69407683610916 306.200439453125,199.23407012224197 311.1004333496094,199.23407012224197 313.1004333496094,201.69407683610916 311.1004333496094,204.14407378435135 "/>
  <polygon id="svg_66" fill="#fff" points="298.50042724609375,199.23407012224197 299.2904357910156,200.85408049821854 301.0804443359375,201.11407500505447 299.7904357910156,202.36407500505447 300.0904235839844,204.14407378435135 298.50042724609375,203.30407744646072 296.9004211425781,204.14407378435135 297.2104187011719,202.36407500505447 295.9204406738281,201.11407500505447 297.700439453125,200.85408049821854 298.50042724609375,199.23407012224197 "/>
  <rect id="svg_79" fill="#fff" height="4.9" width="4.9" y="231.89408" x="285.36067"/>
  <polygon id="svg_80" fill="#fff" points="311.1004333496094,236.80407744646072 306.200439453125,236.80407744646072 308.200439453125,234.34407073259354 306.200439453125,231.89407378435135 311.1004333496094,231.89407378435135 313.1004333496094,234.34407073259354 311.1004333496094,236.80407744646072 "/>
  <rect id="svg_85" fill="#fff" height="4.91" width="4.9" y="248.22408" x="285.36067"/>
  <polygon id="svg_87" fill="#fff" points="311.1004333496094,253.1340792775154 306.200439453125,253.1340792775154 308.200439453125,250.67407256364822 306.200439453125,248.22407561540604 311.1004333496094,248.22407561540604 313.1004333496094,250.67407256364822 311.1004333496094,253.1340792775154 "/>
  <polygon id="svg_89" fill="#fff" points="298.50042724609375,248.22407561540604 299.2904357910156,249.8340762257576 301.0804443359375,250.09407073259354 299.7904357910156,251.35408049821854 300.0904235839844,253.1340792775154 298.50042724609375,252.29406768083572 296.9004211425781,253.1340792775154 297.2104187011719,251.35408049821854 295.9204406738281,250.09407073259354 297.700439453125,249.8340762257576 298.50042724609375,248.22407561540604 "/>
  <rect id="svg_95" fill="#fff" height="4.9" width="4.9" y="264.55408" x="285.36067"/>
  <polygon id="svg_96" fill="#fff" points="311.1004333496094,269.45430022478104 306.200439453125,269.45430022478104 308.200439453125,267.00422698259354 306.200439453125,264.5542147755623 311.1004333496094,264.5542147755623 313.1004333496094,267.00422698259354 311.1004333496094,269.45430022478104 "/>
  <rect id="svg_101" fill="#fff" height="4.9" width="4.9" y="280.88408" x="285.36067"/>
  <polygon id="svg_105" fill="#fff" points="298.50042724609375,280.88438445329666 299.2904357910156,282.4944003224373 301.0804443359375,282.75437957048416 299.7904357910156,284.01438933610916 300.0904235839844,285.78440886735916 298.50042724609375,284.9543917775154 296.9004211425781,285.78440886735916 297.2104187011719,284.01438933610916 295.9204406738281,282.75437957048416 297.700439453125,282.4944003224373 298.50042724609375,280.88438445329666 "/>
  <rect id="svg_117" fill="#fff" height="4.91" width="4.9" y="313.53408" x="285.36067"/>
  <path id="svg_118" fill="#ebebeb" d="m290.52067,318.69408l-5.41,0l0,-5.41l5.41,0l0,5.41zm-4.91,-0.5l4.41,0l0,-4.41l-4.41,0l0,4.41z"/>
  <polygon id="svg_121" fill="#fff" points="298.50042724609375,313.53440886735916 299.2904357910156,315.15440398454666 301.0804443359375,315.41438323259354 299.7904357910156,316.66438323259354 300.0904235839844,318.4443820118904 298.50042724609375,317.6043856739998 296.9004211425781,318.4443820118904 297.2104187011719,316.66438323259354 295.9204406738281,315.41438323259354 297.700439453125,315.15440398454666 298.50042724609375,313.53440886735916 "/>
  <path id="svg_122" fill="#ebebeb" d="m300.44067,318.90408l-1.92,-1l-1.93,1l0.37,-2.15l-1.56,-1.52l2.15,-0.31l1,-1.95l1,1.95l2.15,0.31l-1.55,1.52l0.29,2.15zm-1.92,-1.58l1.26,0.66l-0.24,-1.4l1,-1l-1.41,-0.2l-0.63,-1.28l-0.63,1.28l-1.41,0.2l1,1l-0.24,1.4l1.3,-0.66z"/>
  <rect id="svg_126" fill="#ebebeb" height="16.33" width="288.1" y="324.15408" x="272.58067"/>
  <rect id="svg_127" fill="#fff" height="4.9" width="4.9" y="329.86408" x="285.36067"/>
  <polygon id="svg_128" fill="#fff" points="311.1004333496094,334.77439910173416 306.200439453125,334.77439910173416 308.200439453125,332.3243868947029 306.200439453125,329.8643954396248 311.1004333496094,329.8643954396248 313.1004333496094,332.3243868947029 311.1004333496094,334.77439910173416 "/>
  <polygon id="svg_129" fill="#23A463" points="298.50042724609375,329.8643954396248 299.2904357910156,331.4843905568123 301.0804443359375,331.7444003224373 299.7904357910156,332.9944003224373 300.0904235839844,334.77439910173416 298.50042724609375,333.93440276384354 296.9004211425781,334.77439910173416 297.2104187011719,332.9944003224373 295.9204406738281,331.7444003224373 297.700439453125,331.4843905568123 298.50042724609375,329.8643954396248 "/>
  <rect id="svg_130" fill="#dbdbdb" height="2" width="39.07" y="331.32408" x="316.62067"/>
  <rect id="svg_131" fill="#dbdbdb" height="2" width="35.47" y="331.32408" x="503.78067"/>
  <rect id="svg_132" fill="#c7c7c7" height="2" width="121.26" y="331.32408" x="367.62067"/>
  <path id="svg_136" fill="#fff" d="m288.31067,148.84408l0,0l-0.12,0.15c-0.18,0.25 -0.38,0.48 -0.57,0.7l-0.72,0.81l-0.74,0.76c-0.25,0.25 -0.51,0.49 -0.77,0.71c0.22,-0.3 0.46,-0.59 0.7,-0.86s0.48,-0.54 0.72,-0.81s0.49,-0.52 0.74,-0.76s0.4,-0.39 0.61,-0.57l0.15,-0.13z"/>
  <path id="svg_137" fill="#fff" d="m292.78067,151.98408c-0.26,-0.22 -0.52,-0.46 -0.77,-0.71l-0.74,-0.76c-0.24,-0.27 -0.49,-0.53 -0.72,-0.81s-0.39,-0.45 -0.57,-0.69l-0.12,-0.16l0,0l0.15,0.13c0.21,0.18 0.41,0.37 0.61,0.57s0.5,0.5 0.74,0.76s0.49,0.53 0.72,0.81s0.47,0.52 0.7,0.86z"/>
  <rect id="svg_145" fill="#23A463" height="234.91" width="91.24" y="105.56408" x="181.34067"/>
  <rect id="svg_146" fill="#fff" height="17.43" width="65.73" y="140.34408" x="194.10067"/>
  <rect id="svg_147" fill="#fff" height="1.47" width="9.16" y="120.26408" x="194.10067"/>
  <rect id="svg_148" fill="#fff" height="1.47" width="9.16" y="126.86408" x="194.10067"/>
  <rect id="svg_149" fill="#fff" height="1.47" width="9.16" y="123.60408" x="194.10067"/>
  <rect id="svg_150" fill="#ebebeb" height="8.08" width="12.74" y="120.26408" x="211.96067"/>
  <path id="svg_151" fill="#ebebeb" d="m224.70067,120.26408l0,8.07l-12.74,0l0,-8.07c0.55,0.31 1.09,0.63 1.63,0.95s1.08,0.64 1.61,1l1.79,1.11l0,0l1.34,0.84l1.34,-0.84l0,0l1.79,-1.11c0.53,-0.33 1.07,-0.65 1.61,-1s1.08,-0.64 1.63,-0.95z"/>
  <path id="svg_152" fill="#fff" d="m224.70067,120.26408l-1.56,1.06l-1.57,1l-1.65,1.07l0,0l-1.47,0.94l-0.07,0l-0.07,0l-1.47,-0.94l0,0l-1.65,-1.07l-1.57,-1l-1.56,-1.06c0.55,0.31 1.09,0.63 1.63,0.95s1.08,0.64 1.61,1l1.79,1.11l0,0l1.34,0.84l1.34,-0.84l0,0l1.79,-1.11c0.53,-0.33 1.07,-0.65 1.61,-1s0.98,-0.64 1.53,-0.95z"/>
  <path id="svg_153" fill="#fff" d="m217.01067,123.28408l0,0l-0.2,0.17c-0.32,0.27 -0.64,0.53 -1,0.78s-0.82,0.61 -1.23,0.9s-0.84,0.58 -1.27,0.85s-0.87,0.55 -1.32,0.79c0.39,-0.34 0.79,-0.65 1.2,-1s0.82,-0.61 1.23,-0.9s0.84,-0.58 1.28,-0.85s0.69,-0.44 1,-0.64l0.25,-0.14l0.06,0.04z"/>
  <path id="svg_154" fill="#fff" d="m224.67067,126.78408c-0.45,-0.24 -0.89,-0.51 -1.32,-0.79s-0.85,-0.56 -1.27,-0.85s-0.83,-0.59 -1.24,-0.9s-0.65,-0.51 -1,-0.78l-0.2,-0.17l0,0l0.25,0.14c0.35,0.2 0.7,0.42 1,0.64s0.86,0.56 1.27,0.85s0.84,0.59 1.24,0.9s0.88,0.62 1.27,0.96z"/>
  <rect id="svg_155" opacity="0.1" fill="#020100" height="12.39" width="91.24" y="172.97408" x="181.34067"/>
  <rect id="svg_156" fill="#fff" height="7.28" width="52.91" y="175.63408" x="194.10067"/>
  <rect id="svg_157" fill="#fff" height="7.28" width="52.91" y="189.88408" x="194.10067"/>
  <rect id="svg_158" fill="#fff" height="7.28" width="52.91" y="204.14408" x="194.10067"/>
  <rect id="svg_159" fill="#fff" height="7.28" width="52.91" y="218.39408" x="194.10067"/>
  <rect id="svg_160" fill="#455a64" height="7.28" width="52.91" y="232.65408" x="205.33067"/>
  <rect id="svg_161" fill="#455a64" height="7.28" width="52.91" y="246.90408" x="205.33067"/>
  <rect id="svg_162" fill="#fff" height="7.28" width="52.91" y="261.16408" x="194.10067"/>
  <rect id="svg_163" fill="#fff" height="7.28" width="52.91" y="275.41408" x="194.10067"/>
  <g id="Notification">
   <circle transform="rotate(-76.09 323.04 624.614)" id="svg_172" fill="#a6a6a6" r="48.78" cy="731.97405" cx="884.93068"/>
   <rect id="svg_173" fill="#fff" height="42.23" width="66.59" y="83.89408" x="529.04067"/>
   <path id="svg_174" fill="#dbdbdb" d="m595.63067,83.89408c-2.69,2.57 -5.43,5 -8.14,7.56s-5.47,5 -8.22,7.41s-5.75,5.09 -8.63,7.61l-0.26,0.24l-7.67,6.66l-0.38,0.31l-0.37,-0.31l-7.66,-6.67l-0.27,-0.23c-2.89,-2.52 -5.77,-5 -8.64,-7.63s-5.48,-4.91 -8.21,-7.39s-5.45,-5 -8.14,-7.56c2.86,2.2 5.67,4.52 8.5,6.78s5.64,4.6 8.44,6.94c3.12,2.58 6.24,5.21 9.35,7.86c0,0 0,0 0,0c2.33,2 4.66,4 7,5.94c2.32,-2 4.65,-4 7,-5.94c0,0 0,0 0,0q4.67,-4 9.35,-7.87c2.8,-2.32 5.61,-4.64 8.43,-6.92s5.66,-4.59 8.52,-6.79z"/>
   <path id="svg_175" fill="#dbdbdb" d="m555.44067,106.43408l-0.08,0.07l-1,0.89c-1.67,1.41 -3.38,2.76 -5.12,4.07c-2.12,1.62 -4.29,3.17 -6.47,4.71s-4.39,3 -6.64,4.46s-4.52,2.85 -6.87,4.14c2,-1.77 4.12,-3.42 6.24,-5s4.3,-3.17 6.47,-4.72s4.4,-3 6.65,-4.46c1.79,-1.15 3.61,-2.28 5.47,-3.34l1.3,-0.73l0.05,-0.09z"/>
   <path id="svg_176" fill="#dbdbdb" d="m595.44067,124.77408c-2.35,-1.29 -4.63,-2.7 -6.87,-4.14s-4.45,-2.94 -6.65,-4.46s-4.35,-3.09 -6.47,-4.71c-1.73,-1.31 -3.44,-2.65 -5.1,-4.06l-1.06,-0.9l-0.08,-0.07l0.1,0l1.3,0.74c1.86,1.06 3.67,2.19 5.47,3.34c2.25,1.44 4.45,2.94 6.64,4.46s4.35,3.1 6.47,4.72s4.25,3.31 6.25,5.08z"/>
   <circle transform="rotate(-18.93 4.26067 193.054)" id="svg_177" fill="#23A463" r="10.74" cy="279.30408" cx="592.16067"/>
   <path id="svg_178" fill="#fff" d="m587.16067,86.25408l0,-8.74a1.2,1.2 0 0 1 1.19,-1.19a1.18,1.18 0 0 1 1.17,1.19l0,8.74a1.16,1.16 0 0 1 -1.17,1.18a1.18,1.18 0 0 1 -1.19,-1.18zm1.19,5.21a1.19,1.19 0 0 1 -1.19,-1.19l0,-0.43a1.2,1.2 0 0 1 1.19,-1.2a1.18,1.18 0 0 1 1.17,1.19l0,0.43a1.17,1.17 0 0 1 -1.17,1.2z"/>
  </g>
  <g id="Plant">
   <path id="svg_179" fill="#263238" d="m638.44067,261.48408a75.64,75.64 0 0 1 1.76,-12.34a27.34,27.34 0 0 1 4.41,-10.41a13.2,13.2 0 0 1 8.64,-5.39c3.39,-0.41 6.57,1.1 9.1,3.23c3.14,2.64 5.54,6.14 7.79,9.53a116.45,116.45 0 0 1 6.74,11.79c0.07,0.13 -0.14,0.24 -0.21,0.11a72.58,72.58 0 0 0 -6,-9.86a62,62 0 0 0 -6.93,-8.4c-2.33,-2.27 -5.28,-4.39 -8.65,-4.5a10.65,10.65 0 0 0 -8.46,4.36c-2.25,2.89 -3.4,6.49 -4.26,10a75,75 0 0 0 -1.73,11.75c-0.67,8.13 -0.85,16.31 -1,24.46q-0.2,6.94 -0.2,13.83l-0.06,7a41.2,41.2 0 0 1 -0.27,6.76c-0.07,0.46 -0.81,0.41 -0.89,0a40.32,40.32 0 0 1 -0.31,-6.41c0,-2.21 -0.06,-4.43 -0.08,-6.64q-0.06,-6.47 0,-12.93c-0.04,-8.63 0.06,-17.31 0.61,-25.94z"/>
   <path id="svg_180" fill="#23A463" d="m650.10067,255.35408c0.43,-2.3 1.21,-5.29 2.52,-7.08c2.35,-3.2 4.89,-1.8 2.54,1.74a21.26,21.26 0 0 0 -3.3,8.74s4,5.65 8.73,8.44c-0.2,-2.18 -0.82,-5.52 -0.39,-8.74c0.92,-7 5.14,-6.59 4.1,-1.05a47.89,47.89 0 0 0 -1,11.22a23.62,23.62 0 0 0 5.1,2.5c-0.27,-0.81 -0.56,-1.78 -0.88,-3c-1.7,-6.26 2.48,-8.21 2.61,-4.69a49,49 0 0 0 1.62,8.88c2.29,0.77 4.19,1.3 5.35,1.71a19.44,19.44 0 0 1 7.83,5.35a24.68,24.68 0 0 0 5.34,-6.91c-1.46,-1.25 -3.77,-3.12 -7,-5.38c-6,-4.24 -3.91,-9.59 0.85,-6.26c3.44,2.4 6.1,6.85 7.3,9.13a37.1,37.1 0 0 0 2.73,-12.5c-4.72,-4.42 -16.38,-10.59 -12.86,-10.59c3.16,0 10.24,4.64 12.83,6.43a32.42,32.42 0 0 0 -0.4,-3.64c-4.44,-2.91 -18.87,-7.43 -16.57,-8.74c2.53,-1.42 12.6,3.24 15.64,4.71a18.31,18.31 0 0 0 -2.67,-5.52c-6.13,-8.22 -17.2,-11.05 -22,-9.48c-3.42,1.11 -2.42,9.77 -3.16,9.48c-13.67,-5.46 -19.91,-1.58 -14.86,15.25zm33.63,-0.95c1,-1.17 5.48,2.29 4.18,4.18s-5.47,-2.67 -4.18,-4.18zm-23.52,-7.39c1.18,0.75 -0.57,5.13 -2.4,3.81c-1.55,-1.13 1.2,-4.57 2.4,-3.81z"/>
   <path id="svg_181" fill="#263238" d="m662.00067,248.35408c0.62,-1.22 1.27,-2.44 2,-3.62a21.28,21.28 0 0 1 2.27,-3.28c-0.2,-0.24 -0.38,-0.49 -0.59,-0.73s0.06,-0.23 0.15,-0.13c0.23,0.26 0.45,0.53 0.67,0.8a0.17,0.17 0 0 1 0.09,0.11c0.85,1 1.65,2.06 2.41,3.13a36.41,36.41 0 0 1 4,1.15c1.35,0.45 2.68,0.92 4,1.47c0.13,0.06 0.07,0.29 -0.07,0.23c-1.3,-0.58 -2.61,-1.13 -4,-1.59s-2.57,-0.76 -3.85,-1.12c0.41,0.59 0.83,1.19 1.22,1.79a47.4,47.4 0 0 1 7,2.88c2.38,1.13 4.67,2.44 7,3.76a0.12,0.12 0 0 1 -0.12,0.2a75.47,75.47 0 0 0 -6.92,-3.58c-2.21,-1 -4.49,-1.88 -6.71,-2.87c5.6,8.75 9,18.84 13.45,28.18c0.07,0.14 -0.14,0.25 -0.2,0.11c-1.37,-3.27 -3,-6.47 -4.45,-9.69c-1.34,-2.89 -2.65,-5.8 -4,-8.69c-0.39,-0.85 -0.8,-1.7 -1.21,-2.54c0.25,4.67 0.15,9.42 0.91,14a0.11,0.11 0 1 1 -0.22,0c-0.33,-5 -1.21,-9.9 -1.17,-14.92c0,0 0,0 0,-0.06c-1,-1.91 -2,-3.79 -3,-5.63c-1.86,4.38 -3.81,8.81 -4.68,13.51c0,0.14 -0.26,0.08 -0.22,-0.07c1.26,-4.71 2.43,-9.42 4.7,-13.77a54.31,54.31 0 0 0 -4,-5.68c-0.62,1.16 -1.42,2.26 -2.13,3.37s-1.37,2.17 -2,3.29a48.21,48.21 0 0 0 -3.5,7.41c0,0.14 -0.28,0.07 -0.22,-0.07c1.08,-2.43 2.17,-4.93 3.39,-7.35z"/>
   <path id="svg_182" fill="#263238" d="m617.83067,258.99408c3.6,-3.61 7.78,-8.34 13.34,-8.33c5.36,0 9.31,4.32 11.57,8.78c2.37,4.66 3.23,9.93 3.9,15.06a185.43,185.43 0 0 1 1.42,18.53c0.1,3.44 0.08,6.88 0,10.32a68.36,68.36 0 0 1 -0.79,10.41c-0.1,0.56 -1,0.58 -1,0c-0.17,-2.9 0,-5.81 0,-8.71s0,-5.7 -0.14,-8.56c-0.21,-5.77 -0.63,-11.53 -1.31,-17.26c-0.59,-5 -1.06,-10.16 -2.56,-15c-1.35,-4.37 -3.89,-9.36 -8.31,-11.28c-6,-2.61 -11.94,2.17 -15.89,6.2c-0.15,0.09 -0.33,-0.06 -0.23,-0.16z"/>
   <path id="svg_183" fill="#23A463" d="m599.49067,267.04408l0,0c0,0.74 0.07,1.47 0.12,2.18a13,13 0 0 1 5.89,-2.44c5.1,-0.54 4.78,3.34 1.37,3.5a19.43,19.43 0 0 0 -7,1.4c0.83,6.74 2.68,12.16 3,12.23a97.67,97.67 0 0 0 13.49,-1.7c-1.27,-2.71 -4.16,-6.3 -2.69,-6.59s3.08,2.91 3.9,6.34a64.94,64.94 0 0 0 9.81,-2.7c-2.25,-1.94 -5.72,-4.36 -4.39,-5.39s4.08,2.37 5.73,4.85a19.87,19.87 0 0 0 4.24,-2.37c-3,-4.44 -10.4,-5.34 -9.44,-8.55s7.86,1.24 11,7.19c3.63,-3.77 4.7,-9.11 4.32,-13.67c-3.17,-0.37 -9.27,0.3 -8.82,-2s4.84,-1.84 8.45,-0.51a12.7,12.7 0 0 0 -2.12,-5c-3.34,-4.29 -13.53,1.16 -13.53,1.16s1.09,-10.24 -2.79,-12c-2.24,-1 -6.19,-1 -10.16,1.33c2.23,0.18 4.91,0.89 6,2.43c1.39,2 -0.79,3 -2.18,2.13c-1,-0.65 -2.8,-2.67 -6.09,-2.94a20.43,20.43 0 0 0 -3.67,4.07a19.83,19.83 0 0 0 -1.08,1.7a14,14 0 0 1 11.93,0.21c4.41,2.19 2,6.78 -1.85,5s-7.49,-3.52 -11.49,-2.52a28.55,28.55 0 0 0 -2,11.42a20,20 0 0 1 6.55,-3.14c4.39,-1.15 5.71,1.47 0.89,2a19.59,19.59 0 0 0 -7.39,2.38zm5.34,-7c-0.3,-1.42 2.81,-1.83 3.33,-0.67c0.43,0.93 -3.03,2.05 -3.33,0.62l0,0.05zm26.61,7.83c0.3,-0.77 2.38,0.11 2.19,1.08c-0.19,1.29 -2.44,-0.31 -2.19,-1.08zm-14.71,5c1.52,-0.6 3.89,3.17 2.24,4s-3.45,-3.51 -2.21,-4.01l-0.03,0.01z"/>
   <path id="svg_184" fill="#263238" d="m603.44067,283.14408c2.29,-3.82 4.55,-7.67 7,-11.43q1.68,-2.62 3.51,-5.14l-0.55,-0.13l-0.91,-0.18c-0.7,-0.12 -1.41,-0.22 -2.12,-0.29a19.34,19.34 0 0 0 -2,-0.11a9.67,9.67 0 0 0 -2.15,0.11c-0.08,0 -0.1,-0.12 0,-0.11c0.71,0 1.44,-0.07 2.16,-0.08s1.39,0 2.08,0.05s1.31,0.1 1.95,0.2l1.07,0.19c0.21,0 0.43,0.07 0.64,0.13q1.86,-2.55 3.86,-5a45.79,45.79 0 0 0 -12.53,-4a0.06,0.06 0 0 1 0,-0.12a42.52,42.52 0 0 1 12.71,3.86c0.73,-0.9 1.46,-1.79 2.2,-2.68s1.72,-2 2.47,-3c0,-0.07 0.15,0 0.09,0.07a45.4,45.4 0 0 0 -2.91,3.55l0,0a42.75,42.75 0 0 1 4.65,3.74c1.53,1.35 3,2.74 4.46,4.18c0.05,0 0,0.13 -0.09,0.08q-2.13,-2.13 -4.45,-4.06c-1.54,-1.28 -3.17,-2.46 -4.73,-3.73c0,0 0,0 0,0c-0.35,0.47 -0.71,0.94 -1.07,1.4l-0.53,0.71l0,0c-0.6,0.77 -1.19,1.55 -1.78,2.33a19.48,19.48 0 0 1 1.77,3.19c0.51,1.08 1,2.2 1.37,3.32a48.86,48.86 0 0 1 1.91,7.17c0,0.07 -0.1,0.1 -0.11,0a42.05,42.05 0 0 0 -2.09,-7c-0.44,-1.17 -0.95,-2.31 -1.47,-3.45s-1.05,-2 -1.5,-3.07c-0.51,0.68 -1,1.36 -1.52,2.06l-0.43,0.6c0,0.05 0,0.11 0,0.11l0,0c-1.57,2.19 -3.06,4.44 -4.52,6.71a2.18,2.18 0 0 1 0.2,0.5c0.09,0.28 0.18,0.55 0.26,0.83a14.15,14.15 0 0 1 0.4,1.71c0.1,0.54 0.18,1.08 0.23,1.63a14.26,14.26 0 0 0 0.14,1.85c0,0.09 -0.13,0.1 -0.12,0a6.31,6.31 0 0 0 -0.12,-1.73c-0.09,-0.59 -0.2,-1.18 -0.33,-1.76s-0.27,-1 -0.42,-1.56c-0.08,-0.26 -0.17,-0.52 -0.25,-0.78a4.09,4.09 0 0 1 -0.16,-0.42c-0.68,1.07 -1.36,2.14 -2,3.22c-1.32,2.14 -2.63,4.29 -3.94,6.43c-0.24,0.11 -0.41,0.01 -0.33,-0.1z"/>
   <path id="svg_185" fill="#263238" d="m638.72067,312.53408c0.06,-2.17 0.4,-4.36 0.64,-6.51s0.48,-4.33 0.71,-6.5a95.89,95.89 0 0 1 1.68,-12.54a18.2,18.2 0 0 1 5.1,-9.38a8.28,8.28 0 0 1 5,-2.38a8.59,8.59 0 0 1 5.31,1.63a18.55,18.55 0 0 1 4.47,4.71a46.18,46.18 0 0 1 3.48,5.66c0,0.07 -0.08,0.12 -0.12,0.05a29,29 0 0 0 -7.53,-8.45a8.93,8.93 0 0 0 -4.75,-2a6.44,6.44 0 0 0 -4.61,1.84a17.27,17.27 0 0 0 -4.86,8.61a86.79,86.79 0 0 0 -1.89,11.58l-0.9,6.88c-0.3,2.29 -0.49,4.63 -1,6.88a0.38,0.38 0 0 1 -0.73,-0.08z"/>
   <path id="svg_186" fill="#23A463" d="m649.44067,295.69408a12.09,12.09 0 0 0 2.35,2.4c-0.35,-2.11 -0.78,-5.87 0.29,-7.87c1.65,-3.11 3.62,-1.56 2.63,1.14a22,22 0 0 0 -1.6,7.66a32.56,32.56 0 0 0 7.21,3.4a11.8,11.8 0 0 1 -0.24,-3.71c0.33,-3.32 2.87,-3.26 2.21,0.2a21.46,21.46 0 0 0 -0.35,4.06a74.88,74.88 0 0 0 11.23,2.53a32.84,32.84 0 0 0 4.65,-8.27c-2.71,-0.68 -8.19,-0.83 -8.07,-2.76c0.16,-2.6 5.46,-0.6 8.57,1.28a20.63,20.63 0 0 0 0.93,-7a34.81,34.81 0 0 0 -7.46,-1.24c-5.57,-0.48 -5.29,-3.64 -1.26,-3.57c3,0.06 6.75,1.88 8.53,2.83c-1.16,-7.58 -6.94,-12.43 -11.57,-12.62c-7.79,-0.31 -5,9.38 -5,9.38s-5.28,-3.71 -10.26,-3.61s-8.17,8.35 -2.79,15.77zm20.8,-14c-0.17,-1.09 3.31,-1.35 3.49,0.05c0.16,1.55 -3.36,1.04 -3.54,-0.1l0.05,0.05zm5.6,11.37c-0.08,-0.71 1.43,-0.83 1.77,0.06c0.17,0.57 -1.76,0.63 -1.82,-0.08l0.05,0.02zm-18.71,0.67c1.18,0.16 1.84,4.36 -0.18,4.28c-1.59,-0.09 -0.86,-4.44 0.13,-4.3l0.05,0.02z"/>
   <path id="svg_187" fill="#263238" d="m658.71067,298.37408c0.19,-0.52 0.36,-1.05 0.53,-1.59c-0.15,0.54 -0.29,1.08 -0.39,1.63a0.07,0.07 0 1 1 -0.14,-0.04z"/>
   <path id="svg_188" fill="#263238" d="m660.76067,291.64408c0.37,-1.07 0.78,-2.14 1.19,-3.19c0.23,-0.57 0.46,-1.13 0.71,-1.68a7.09,7.09 0 0 1 0.69,-1.41a10.42,10.42 0 0 1 -0.63,-1.36s0,-0.07 0.07,0a15.81,15.81 0 0 1 1.52,2.36c0.22,0.36 0.42,0.74 0.63,1.11a9.4,9.4 0 0 1 1.31,0.2c0.47,0.09 0.94,0.18 1.4,0.29l1.39,0.32c0.46,0.11 0.91,0.26 1.38,0.33c0.11,0 0.06,0.19 0,0.15a8,8 0 0 0 -1.46,-0.38c-0.44,-0.1 -0.89,-0.18 -1.34,-0.24s-0.91,-0.13 -1.37,-0.17l-1,-0.08c0.19,0.32 0.38,0.65 0.56,1l0.09,0.15a4.61,4.61 0 0 1 1.11,0.13c0.41,0.08 0.81,0.15 1.21,0.24c0.81,0.18 1.62,0.37 2.42,0.6c1.69,0.47 3.35,1 5,1.55c0.09,0 0,0.17 -0.06,0.14a48.86,48.86 0 0 0 -5,-1.4l-2.39,-0.53l-1.2,-0.25a7,7 0 0 1 -0.93,-0.21c0.85,1.59 1.66,3.19 2.4,4.84c1.62,3.57 3,7.25 4.36,10.92c0,0.09 -0.1,0.15 -0.13,0.06a101.09,101.09 0 0 0 -4.65,-10.68c-0.31,-0.63 -0.63,-1.26 -0.94,-1.9c0,0.13 -0.06,0.26 -0.08,0.39c-0.08,0.43 -0.16,0.87 -0.23,1.3c-0.15,0.87 -0.3,1.74 -0.43,2.61a30.94,30.94 0 0 0 -0.63,5.41a0.08,0.08 0 1 1 -0.15,0c0.14,-0.86 0.14,-1.76 0.2,-2.63s0.12,-1.83 0.23,-2.73s0.21,-1.75 0.36,-2.62c0.07,-0.43 0.14,-0.87 0.22,-1.3a2.67,2.67 0 0 1 0.25,-0.94c-0.46,-0.92 -0.91,-1.84 -1.37,-2.75s-0.87,-1.71 -1.32,-2.56l-0.59,-1.09a8.71,8.71 0 0 1 -0.52,1.31l-0.6,1.48c-0.44,1.08 -0.86,2.18 -1.28,3.28c-0.58,1.56 -1.23,3.15 -1.72,4.78c0.39,-1.68 0.79,-3.3 1.32,-4.85z"/>
   <path id="svg_189" fill="#263238" d="m659.24067,296.78408c0,-0.12 0.07,-0.25 0.11,-0.37c-0.04,0.12 -0.07,0.23 -0.11,0.37z"/>
   <polygon id="svg_190" fill="#37474f" points="625.6904296875,308.31440764665604 626.2404174804688,319.90440398454666 627.6504516601562,349.79438811540604 658.4904174804688,349.79438811540604 659.9004516601562,319.90440398454666 660.450439453125,308.31440764665604 625.6904296875,308.31440764665604 "/>
   <polygon id="svg_191" fill="#263238" points="625.6904296875,308.31440764665604 626.2404174804688,319.90440398454666 659.9004516601562,319.90440398454666 660.450439453125,308.31440764665604 625.6904296875,308.31440764665604 "/>
   <rect transform="rotate(180 1285.7 618.984)" id="svg_192" fill="#37474f" height="9.38" width="39.14" y="924.96411" x="1908.76068"/>
   <rect id="svg_193" fill="#37474f" height="4.91" width="5.41" y="349.79408" x="650.58067"/>
   <rect id="svg_194" fill="#263238" height="2.45" width="5.41" y="349.79408" x="650.58067"/>
   <rect id="svg_195" fill="#37474f" height="4.91" width="5.41" y="349.79408" x="630.15067"/>
   <rect id="svg_196" fill="#263238" height="2.45" width="5.41" y="349.79408" x="630.15067"/>
  </g>
  <g id="Puff">
   <path id="svg_197" fill="#c7c7c7" d="m96.71445,388.90459l144.58,0.63c35.15,-27.6 38.78,-68.48 13.7,-93.27c-15.17,-15 -34.44,-12 -52.78,-14.35l-0.06,0a54.31,54.31 0 0 1 -18.61,-5.47c-18.89,-10 -29.54,-33.47 -45.43,-53.25q-3,-3.72 -6.22,-7.21c-13.07,-13.94 -39.09,-14.41 -52.67,5.21c-34.59,49.85 -18.76,124.05 17.49,167.71z"/>
   <path id="svg_198" fill="#dbdbdb" d="m93.50445,274.84459c3.79,59.32 72.29,81.46 115.08,63.69c37.2,-15.45 25,-50.72 -6.37,-56.62l-0.06,0a54.31,54.31 0 0 1 -18.61,-5.47c-18.89,-10 -29.54,-33.47 -45.43,-53.25c-23.68,-12.3 -47.39,8.22 -44.61,51.65z"/>
  </g>
  <g id="Character">
   <path id="svg_199" fill="#774442" d="m237.48849,396.37869c-2.14,-0.75 -50.8,-38.53 -51.75,-41.14c-0.36,-1 4.73,-8.4 11.13,-17.17c1.38,-1.9 2.82,-3.85 4.29,-5.82c9.55,-12.81 20,-26.18 20,-26.18l32.6,25.17l-20.87,25.48l-4.58,5.6s12.17,22.79 12.9,25.77s-1.57,9.04 -3.72,8.29z"/>
   <path id="svg_200" fill="#ebebeb" d="m206.27849,325.40869c-1.69,2.24 -3.42,4.56 -5.13,6.84c-1.47,2 -2.91,3.92 -4.29,5.81c-6.4,8.78 -11.48,16.18 -11.12,17.18c0.95,2.61 49.61,40.39 51.76,41.14s4.42,-5.31 3.71,-8.28s-12.93,-25.77 -12.93,-25.77l4.58,-5.6l4.66,-5.68l-31.24,-25.64z"/>
   <path id="svg_201" fill="#23A463" d="m237.71849,396.83869c-2.17,-0.78 -51.49,-39.42 -52.44,-42.08c-0.44,-1.23 7.34,-12.07 15.79,-23.32l32.15,25.05l-4.68,5.67s12.27,23.25 13,26.28s-1.64,9.17 -3.82,8.4z"/>
   <path id="svg_202" fill="#263238" d="m238.55849,394.30869c-8.11,-6.68 -41.44,-32.86 -50,-38.85c-0.07,-0.05 -0.1,0 0,0c7.9,6.8 41.44,32.71 49.9,38.94c0.17,0.18 0.27,0.05 0.1,-0.09z"/>
   <path id="svg_203" fill="#263238" d="m231.14849,361.23869c-2.78,-3.16 -7.15,-5.78 -11.45,-5.41c-0.17,0 -0.15,0.26 0,0.3a58.73,58.73 0 0 1 11.12,5.51a0.27,0.27 0 0 0 0.33,-0.4z"/>
   <path id="svg_204" fill="#263238" d="m232.38849,364.48869c-2.78,-3.15 -7.15,-5.77 -11.45,-5.4c-0.17,0 -0.15,0.25 0,0.3a57.56,57.56 0 0 1 11.12,5.51a0.27,0.27 0 0 0 0.33,-0.41z"/>
   <path id="svg_205" fill="#263238" d="m233.62849,367.74869c-2.78,-3.16 -7.15,-5.77 -11.45,-5.41c-0.17,0 -0.15,0.26 0,0.31a57.89,57.89 0 0 1 11.13,5.5a0.27,0.27 0 0 0 0.32,-0.4z"/>
   <path id="svg_206" fill="#263238" d="m234.86849,371.00869c-2.78,-3.16 -7.15,-5.78 -11.45,-5.41c-0.17,0 -0.15,0.25 0,0.3a57.36,57.36 0 0 1 11.13,5.51a0.27,0.27 0 0 0 0.32,-0.4z"/>
   <path id="svg_207" fill="#263238" d="m243.04849,358.41869c0.1,-2.76 -2.9,-3.83 -5.15,-3.75a22,22 0 0 0 -10.85,3.57a0.11,0.11 0 0 0 0,0.18a0.51,0.51 0 0 0 0.19,0.81c3.46,1.11 7,2.72 10.73,2.74c2.16,-0.05 4.99,-0.93 5.08,-3.55zm-10.22,1.36c-1.72,-0.5 -3.4,-1.09 -5.14,-1.53c2.12,-0.68 4.2,-1.45 6.38,-1.92a24.36,24.36 0 0 1 3.19,-0.51c1.65,-0.12 7,1 3.58,4.13c-1.85,1.72 -5.97,0.43 -8.01,-0.17z"/>
   <path id="svg_208" fill="#263238" d="m219.44849,350.85869c1.78,3.25 4.91,5.6 7.55,8.11a0.51,0.51 0 0 0 0.8,-0.21c0.06,0 0.14,0 0.14,-0.1a22,22 0 0 0 -2.1,-11.21c-1,-2 -3.39,-4.14 -5.77,-2.73s-1.67,4.25 -0.62,6.14zm0.35,-3.47c1.12,-4.45 4.65,-0.34 5.34,1.18a23.18,23.18 0 0 1 1.07,3a63.65,63.65 0 0 1 1.37,6.53c-1.21,-1.32 -2.53,-2.51 -3.8,-3.78c-1.5,-1.48 -4.6,-4.47 -3.98,-6.93z"/>
   <path id="svg_209" fill="#455a64" d="m287.41849,281.23869c-2.24,17 -44,65.91 -48.86,71.53l-1.1,1.27l-34.57,-26.6l0.4,-0.51l30.44,-39.86s-50.34,29.37 -75.52,16c-11.31,-6 -19.7,-16.63 -19.7,-16.63l32.87,-17.53s9.1,2.94 14.91,2.09c20,-2.93 65,-20 75.6,-19.55c13.74,0.61 27.58,14.19 25.53,29.79z"/>
   <path id="svg_210" fill="#263238" d="m244.66849,272.23869a39.53,39.53 0 0 0 -3.15,4c-1.07,1.41 -2.16,2.81 -3.24,4.22l0,0.05c0.19,-0.42 0.38,-0.83 0.58,-1.24c0.67,-1.41 1.22,-2.86 2,-4.2c0.05,-0.08 -0.08,-0.16 -0.13,-0.08c-0.82,1.33 -1.78,2.6 -2.48,4c-0.34,0.66 -0.65,1.32 -0.94,2c-0.16,0.38 -0.33,0.75 -0.47,1.13a4.3,4.3 0 0 0 -0.2,0.54c-0.48,0.65 -1,1.31 -1.42,2c-1,1.49 -1.93,3.06 -3,4.53c-0.05,0.08 0.07,0.15 0.13,0.08c1,-1.39 2.23,-2.68 3.3,-4.05s2.11,-2.84 3.13,-4.29l3,-4.26a41.66,41.66 0 0 0 3,-4.37c0,-0.06 -0.07,-0.06 -0.11,-0.06z"/>
   <path id="svg_211" fill="#263238" d="m240.99849,345.79869c-1.89,-1.76 -3.94,-3.39 -5.94,-5s-4,-3.28 -6.06,-4.9c-4.06,-3.25 -8.1,-6.53 -12.2,-9.72c-2.26,-1.76 -4.53,-3.49 -6.87,-5.12a0.11,0.11 0 0 0 -0.13,0.18c3.84,3.5 7.94,6.69 12,9.93s8.13,6.49 12.25,9.68c2.25,1.74 4.48,3.54 6.84,5.14c0.09,0.04 0.2,-0.11 0.11,-0.19z"/>
   <path id="svg_212" fill="#263238" d="m126.65849,209.42869a3,3 0 0 0 2.17,5.32a3.11,3.11 0 0 0 0,1.25a3.25,3.25 0 0 0 3.6,2.49a2.88,2.88 0 0 0 0,1.05a2.95,2.95 0 0 0 5.2,1.16a3,3 0 0 0 3.49,2a2.7,2.7 0 0 0 1.12,-0.53a2.38,2.38 0 0 0 0,0.26a3,3 0 0 0 3.55,2.21a2.92,2.92 0 0 0 2.07,-1.75a2.93,2.93 0 0 0 3.33,1.64a3,3 0 0 0 2.18,-2.06a3.33,3.33 0 0 0 2.15,0.23a3.16,3.16 0 0 0 2,-1.49a3.24,3.24 0 0 0 5,-2.58a3,3 0 0 0 1.16,0a3,3 0 0 0 2.28,-3.17a3,3 0 0 0 1.43,0a3.24,3.24 0 0 0 2.45,-3.9a3,3 0 0 0 -0.42,-1a1.89,1.89 0 0 0 0.52,-0.06a3,3 0 0 0 2.22,-3.54a2.89,2.89 0 0 0 -0.78,-1.41a3.25,3.25 0 0 0 2.15,-3.82a3.17,3.17 0 0 0 -0.87,-1.56a3.26,3.26 0 0 0 1.38,-3.46a3.2,3.2 0 0 0 -1.81,-2.21a2.87,2.87 0 0 0 0.45,-2.34a2.93,2.93 0 0 0 -1.46,-1.93a3.24,3.24 0 0 0 -2.24,-5.32a2.92,2.92 0 0 0 0,-1.41a3,3 0 0 0 -3.16,-2.28a3,3 0 0 0 0,-1.4a3.26,3.26 0 0 0 -3.9,-2.44a2.62,2.62 0 0 0 -0.71,0.27a3,3 0 0 0 -0.08,-0.52a3.26,3.26 0 0 0 -3.9,-2.44a2.65,2.65 0 0 0 -0.76,0.28a3.23,3.23 0 0 0 -0.07,-0.92a3.27,3.27 0 0 0 -3.92,-2.44a3.22,3.22 0 0 0 -2.07,1.53a3.23,3.23 0 0 0 -5.06,0.46a3,3 0 0 0 -5.41,0.46a3,3 0 0 0 -4.72,2.06a3.21,3.21 0 0 0 -2.59,-0.5a3.26,3.26 0 0 0 -2.35,3.2a3,3 0 0 0 -1.08,0a3,3 0 0 0 -2.21,3.55a2.83,2.83 0 0 0 0.42,1l-0.19,0a3.26,3.26 0 0 0 -2.44,3.91a2.84,2.84 0 0 0 0.35,0.88a2.65,2.65 0 0 0 -0.85,0.08a3,3 0 0 0 -2.21,3.55a2.92,2.92 0 0 0 1.33,1.85a2.95,2.95 0 0 0 0.38,4.69a3.25,3.25 0 0 0 1.25,6.05a2.9,2.9 0 0 0 -0.8,2.75a3,3 0 0 0 2.43,2.3z"/>
   <path id="svg_213" fill="#774442" d="m153.91849,234.81869c6.15,8.83 27.25,31.76 41.84,35.09c8,1.83 46.89,7.26 52.21,2.42c6.24,-5.67 3.35,-27.06 -1.61,-27.26c-15.13,-0.59 -43.13,2.37 -50.13,0.83c-3.16,-0.7 -19.93,-11.52 -37.84,-20.17c-6.77,-3.27 -8.44,3.39 -4.47,9.09z"/>
   <path id="svg_214" fill="#23A463" d="m238.11849,243.89869l-2.59,32s-35.25,-0.56 -45.89,-6.54s-28,-21.24 -34.59,-31.85s-4.41,-16.39 8.53,-9.87s30.39,17 32.68,17.55s41.86,-1.29 41.86,-1.29z"/>
   <path id="svg_215" fill="#263238" d="m231.08849,246.11869c0,-0.08 -0.13,-0.11 -0.15,0c-0.44,2.2 -0.62,4.46 -0.87,6.68s-0.48,4.61 -0.68,6.92c-0.42,4.6 -0.9,9.23 -1,13.85c0,0.2 0.26,0.19 0.29,0c0.69,-4.54 1.06,-9.14 1.49,-13.71c0.21,-2.26 0.41,-4.53 0.57,-6.8s0.38,-4.63 0.35,-6.94z"/>
   <path id="svg_216" fill="#fff" d="m183.27849,238.32869a147.16,147.16 0 0 1 -11.21,18c-0.12,-0.12 -0.25,-0.23 -0.37,-0.33a146.93,146.93 0 0 0 11.14,-17.9c0.16,0.06 0.31,0.14 0.44,0.23z"/>
   <path id="svg_217" fill="#fff" d="m187.48849,240.66869a143.21,143.21 0 0 1 -11.6,18.9l-0.38,-0.32a144,144 0 0 0 11.55,-18.82l0.43,0.24z"/>
   <path id="svg_218" opacity="0.1" fill="#020100" d="m204.27849,273.43869c-6,-0.95 -11.46,-2.26 -14.66,-4.06c-10.64,-6 -28,-21.24 -34.59,-31.85c-5.06,-8.1 -5,-13.39 1.13,-12.53l48.12,48.44z"/>
   <path id="svg_219" fill="#23A463" d="m122.72849,294.12869c1.93,0.63 56.89,-15.27 56.89,-15.27l-6.49,-19.08s3.2,-6.14 1.72,-12c-2,-7.89 -16.59,-20.85 -17.73,-21.61c-4.61,-3.05 -8.92,-3 -12.74,-1c-15.89,8.43 -21.65,68.96 -21.65,68.96z"/>
   <path id="svg_220" fill="#fff" d="m172.10849,242.16869c-14.22,7 -33.85,9.62 -42.09,10.46c0,-0.17 0.09,-0.34 0.14,-0.51c8.3,-0.87 27.62,-3.51 41.66,-10.37l0.29,0.42z"/>
   <path id="svg_221" fill="#fff" d="m174.27849,246.08869c-15.1,8.24 -37.93,11 -45.57,11.74a4.87,4.87 0 0 1 0.12,-0.52c7.77,-0.75 30.33,-3.53 45.24,-11.68c0.09,0.16 0.21,0.31 0.21,0.46z"/>
   <path id="svg_222" fill="#263238" d="m164.65849,232.99869c1.41,1.65 2.93,3.21 4.39,4.82c-0.68,-1.2 -1.36,-2.4 -2.08,-3.58a0,0 0 1 1 0,0a26.67,26.67 0 0 1 2.79,4.44a36.62,36.62 0 0 1 3,3.87a17.41,17.41 0 0 1 2.5,5.32a14.56,14.56 0 0 1 0.16,5.88a37.62,37.62 0 0 1 -1.85,6.58c-0.1,0.28 -0.51,0.1 -0.43,-0.18c1,-3.72 2.2,-7.66 1.38,-11.54s-3.23,-7.1 -5.57,-10.16a54.13,54.13 0 0 0 -4.47,-5.33c-0.01,-0.1 0.11,-0.2 0.18,-0.12z"/>
   <path id="svg_223" fill="#774442" d="m137.19849,238.44869c-4.42,25.06 -0.83,44 3.43,46.31c11.46,6.26 33.57,-4.78 41.34,-7.3c3.14,-1 0.12,-27.08 -3.34,-26.37c-8.52,1.73 -23.74,10.58 -24.17,10.54c-0.85,-0.09 -1.84,-6.49 -6.22,-25.14c-3.55,-15.08 -9.23,-8.25 -11.04,1.96z"/>
   <path id="svg_224" fill="#774442" d="m175.37849,251.96869s16.11,-6.74 29.14,-6.14c4.42,0.2 22.35,5.84 21.17,10.23c-1.07,4 -15.93,-2.51 -15.93,-2.51s15.57,5.21 13.41,9.75s-18,-5 -18,-5s15.87,5.71 12.9,10c-2.25,3.27 -17.06,-4.57 -17.06,-4.57s13.62,5 11.45,8.46c-2.39,3.83 -16.52,-2.55 -16.52,-2.55c-7,7.88 -13.54,8.77 -18.27,8.85c-1.13,0.05 -2.29,-26.52 -2.29,-26.52z"/>
   <path id="svg_225" fill="#263238" d="m204.48849,251.39869c1.85,0.55 3.73,1.09 5.53,1.79s3.57,1.48 5.29,2.36a33.7,33.7 0 0 1 6.38,4c-3.7,-2.55 -10.09,-5.19 -11.89,-5.9s-3.55,-1.5 -5.34,-2.21c-0.04,0.01 -0.01,-0.05 0.03,-0.04z"/>
   <path id="svg_226" fill="#263238" d="m201.80849,257.83869c2.34,0.8 4.68,1.51 7,2.41s4.38,1.95 6.6,3c0.17,0.09 0.07,0.15 -0.1,0.08c-2.26,-1 -4.42,-1.68 -6.7,-2.62s-4.5,-2 -6.8,-2.82c-0.05,-0.01 -0.03,-0.06 0,-0.05z"/>
   <path id="svg_227" fill="#263238" d="m198.51849,262.94869a54.7,54.7 0 0 1 10.39,4.51c0.17,0.08 0,0.15 -0.14,0.07c-3.43,-1.56 -6.11,-2.81 -10.28,-4.45c-0.07,-0.03 -0.04,-0.15 0.03,-0.13z"/>
   <path id="svg_228" fill="#23A463" d="m172.20849,252.05869l13.18,28.18s-40.9,11.94 -46.45,4.76s-5.16,-29.76 -2.56,-45.39s9.64,-15.92 12.71,-1.8s4.89,23 5.45,23s17.67,-8.75 17.67,-8.75z"/>
   <path id="svg_229" fill="#fff" d="m152.55849,253.73869a114.54,114.54 0 0 1 -18,9.7l0,-0.54a113.55,113.55 0 0 0 17.88,-9.66c0.05,0.16 0.08,0.33 0.12,0.5z"/>
   <path id="svg_230" fill="#fff" d="m153.71849,258.60869a115.84,115.84 0 0 1 -19,10.15l0,-0.54a114.22,114.22 0 0 0 18.85,-10.12c0.06,0.14 0.11,0.35 0.15,0.51z"/>
   <path id="svg_231" fill="#263238" d="m166.86849,255.84869c0,-0.07 -0.17,0 -0.14,0.05c0.74,2.12 1.72,4.16 2.63,6.21s1.92,4.22 2.91,6.31c2,4.18 3.88,8.42 6.09,12.48a0.15,0.15 0 0 0 0.26,-0.14c-1.7,-4.26 -3.71,-8.42 -5.64,-12.58c-1,-2.06 -1.93,-4.12 -2.94,-6.16s-1.98,-4.2 -3.17,-6.17z"/>
   <path id="svg_232" fill="#263238" d="m163.77849,285.41869a18.2,18.2 0 0 0 -3.43,0.57c-1.18,0.21 -2.36,0.4 -3.55,0.56a67.38,67.38 0 0 1 -7,0.59c-2.28,0.06 -7.93,-0.28 -9.67,-1.85a11,11 0 0 1 -3,-5.09a75.5,75.5 0 0 1 -1.4,-8a104.12,104.12 0 0 1 -0.45,-17.25c0.07,-1.6 0.17,-3.19 0.28,-4.79s0.31,-3.25 0.37,-4.88a0.06,0.06 0 0 0 -0.11,0a57.87,57.87 0 0 0 -1.08,7.88c-0.1,-1.65 -0.3,-3.29 -0.33,-4.94c0,-0.1 -0.15,-0.09 -0.15,0c0,1.74 -0.08,3.47 0,5.21c0,1 0.14,1.95 0.25,2.92q-0.21,3.31 -0.18,6.63a68.05,68.05 0 0 0 2,17.3c0.68,2.46 1.72,4.81 4,6.12a14.42,14.42 0 0 0 5.38,1.41a44.78,44.78 0 0 0 11.78,-0.75c1.08,-0.2 2.17,-0.43 3.25,-0.67a13.18,13.18 0 0 0 3.1,-0.85a0.06,0.06 0 0 0 -0.06,-0.12z"/>
   <polygon id="svg_233" fill="#263238" points="172.72850036621094,252.27868682146072 172.72850036621094,252.27868682146072 172.72850036621094,252.27868682146072 172.72850036621094,252.27868682146072 "/>
   <path id="svg_234" fill="#263238" d="m172.14849,251.52869c-3,1.5 -6,3 -9,4.55l-4.44,2.27c-1.42,0.74 -4.13,2.2 -4.13,2.2c0,-0.68 -0.56,-2.65 -0.84,-3.92s-0.64,-2.76 -1,-4.14c-0.09,-0.35 -0.19,-0.71 -0.29,-1.07l-0.18,-2c-0.1,-1.06 -0.19,-2.15 -0.36,-3.21c0,0 -0.05,0 -0.06,0a15.44,15.44 0 0 0 0,3q-0.69,-2.49 -1.42,-5a0,0 0 0 0 -0.09,0c0.54,2.79 1.11,5.58 1.75,8.35c0.31,1.35 0.65,2.68 1,4a42.48,42.48 0 0 0 1.2,4.28a46.24,46.24 0 0 0 4.5,-2q2.31,-1.1 4.6,-2.25c2.95,-1.48 5.93,-3 8.79,-4.66c0,0 0.44,0.93 0.47,1s0.17,-0.08 0.14,-0.21a5.37,5.37 0 0 0 -0.64,-1.19z"/>
   <polygon id="svg_235" fill="#263238" points="172.72850036621094,252.27868682146072 172.72850036621094,252.27868682146072 172.72850036621094,252.28868132829666 172.72850036621094,252.27868682146072 "/>
   <rect id="svg_236" fill="#c7c7c7" height="2.62" width="58.31" y="272.19869" x="174.28849"/>
   <polygon id="svg_237" fill="#a6a6a6" points="186.7584991455078,272.19895964860916 184.7685089111328,274.8189852833748 232.5985107421875,274.8189852833748 232.5985107421875,272.19895964860916 186.7584991455078,272.19895964860916 "/>
   <polygon id="svg_238" fill="#c7c7c7" points="189.2584991455078,274.8090060353279 246.08843994140625,274.8090060353279 250.81834411621094,236.21868926286697 193.98851013183594,236.21868926286697 189.2584991455078,274.8090060353279 "/>
   <path id="svg_239" fill="#fff" d="m216.57849,255.51869a3.39,3.39 0 0 0 3.4,3.46a3.54,3.54 0 0 0 3.52,-3.46a3.39,3.39 0 0 0 -3.4,-3.46a3.53,3.53 0 0 0 -3.52,3.46z"/>
   <path id="svg_240" fill="#774442" d="m250.35849,239.94869c2.14,3.31 7.42,7.17 8.15,10a3.35,3.35 0 0 1 -1.38,3.76s3.06,1.06 3.3,3.74c0.12,1.38 -2,2.78 -2,2.78a4,4 0 0 1 2.48,3.36c0,1.91 -2.06,3 -2.06,3s1.89,2 1.32,4c-1.16,4 -17.43,6.13 -20.73,0.47c-1.55,-2.64 2.46,-2.95 2.46,-2.95s-5.87,-0.95 -6.39,-4.29s4.69,-3.43 4.69,-3.43s-5.67,-1 -5.87,-4.48c-0.21,-3.67 5,-2.86 5,-2.86s-3.94,-2 -3.47,-4.71c0.76,-4.5 10,0.29 13.5,-1l1,-7.39z"/>
   <path id="svg_241" fill="#263238" d="m258.55849,266.84869a0,0 0 0 1 0,0.09a28.45,28.45 0 0 1 -16.89,1.21c-0.18,0 -0.18,-0.35 0,-0.34a58,58 0 0 0 16.89,-0.96z"/>
   <path id="svg_242" fill="#263238" d="m258.52849,260.23869c0.07,0 0.09,0.09 0,0.11a26.59,26.59 0 0 1 -18.5,0.18c-0.21,-0.08 -0.31,-0.36 -0.07,-0.28c4.16,1.3 13.39,1.16 18.57,-0.01z"/>
   <path id="svg_243" fill="#263238" d="m238.99849,252.73869c5.87,2 11.82,2 17.91,1.08c0.08,0 0.09,0.1 0,0.13c-2.86,1.26 -6.81,1.44 -9.89,1.33a16.46,16.46 0 0 1 -8.13,-2.34c-0.06,-0.06 -0.02,-0.25 0.11,-0.2z"/>
   <path id="svg_244" fill="#774442" d="m141.72849,227.11869s9.72,8.24 15.9,6.73s2.39,-7.78 2.39,-7.78s-5.64,-3.44 -11.67,-2.65a10.47,10.47 0 0 0 -6.62,3.7z"/>
   <path id="svg_245" fill="#774442" d="m146.72849,225.63869c0.22,1 4.87,7.51 9.41,7.37c1.48,0 1.57,-8.14 1.57,-8.14l0.14,-0.6l2,-8.34l-11.15,-7.3s-2.06,16.61 -1.97,17.01z"/>
   <path id="svg_246" fill="#263238" d="m159.83849,215.92869l-2,8.34a17.24,17.24 0 0 1 -9.84,-10c0.34,-2.87 0.63,-5.26 0.67,-5.61a0.18,0.18 0 0 0 0,-0.05l1.41,0.85l9.76,6.47z"/>
   <path id="svg_247" fill="#774442" d="m171.79849,203.81869c0.31,15.05 -8.67,16.94 -11.91,17c-3,0.06 -13,-0.12 -14.85,-15.05s5,-19.84 11.76,-20.33s14.69,3.34 15,18.38z"/>
   <path id="svg_248" fill="#263238" d="m169.47849,201.41869a8.8,8.8 0 0 1 -1,-0.26a1.68,1.68 0 0 1 -1,-0.47a0.53,0.53 0 0 1 0,-0.65a1.33,1.33 0 0 1 1.32,-0.24a1.88,1.88 0 0 1 1.19,0.75a0.56,0.56 0 0 1 -0.51,0.87z"/>
   <path id="svg_249" fill="#263238" d="m159.27849,202.23869c0.35,0 0.68,-0.11 1,-0.17a1.67,1.67 0 0 0 1,-0.37a0.53,0.53 0 0 0 0,-0.65a1.32,1.32 0 0 0 -1.29,-0.37a1.92,1.92 0 0 0 -1.26,0.63a0.57,0.57 0 0 0 0.55,0.93z"/>
   <path id="svg_250" fill="#263238" d="m161.27849,204.53869s-0.08,0.05 -0.08,0.09c0,1 -0.16,2.2 -1.1,2.52c0,0 0,0.06 0,0c1.11,-0.08 1.32,-1.64 1.18,-2.61z"/>
   <path id="svg_251" fill="#263238" d="m160.35849,203.44869c-1.64,-0.17 -1.86,3.13 -0.33,3.29s1.71,-3.15 0.33,-3.29z"/>
   <path id="svg_252" fill="#263238" d="m159.69849,203.57869c-0.3,0.17 -0.6,0.48 -1,0.49s-0.69,-0.35 -0.93,-0.7c0,0 -0.06,0 -0.06,0c0,0.64 0.15,1.3 0.82,1.44s1.1,-0.41 1.3,-1c0.08,-0.12 -0.01,-0.3 -0.13,-0.23z"/>
   <path id="svg_253" fill="#263238" d="m167.18849,204.58869s0.08,0 0.07,0.09c-0.1,1 0,2.21 0.85,2.61c0,0 0,0.07 0,0.06c-1.13,-0.24 -1.18,-1.81 -0.92,-2.76z"/>
   <path id="svg_254" fill="#263238" d="m168.17849,203.58869c1.66,0 1.54,3.3 0,3.3s-1.38,-3.3 0,-3.3z"/>
   <path id="svg_255" fill="#263238" d="m168.85849,203.82869c0.26,0.18 0.51,0.51 0.82,0.54s0.64,-0.31 0.88,-0.65c0,0 0.05,0 0.05,0c0,0.63 -0.23,1.28 -0.84,1.38s-1,-0.46 -1.08,-1.1c-0.02,-0.07 0.07,-0.25 0.17,-0.17z"/>
   <path id="svg_256" fill="#263238" d="m160.52849,213.58869c0.21,0.27 0.4,0.63 0.77,0.71a2.72,2.72 0 0 0 1.13,-0.1s0.06,0 0,0.05a1.38,1.38 0 0 1 -1.36,0.38a1.12,1.12 0 0 1 -0.68,-1c0.03,-0.07 0.11,-0.08 0.14,-0.04z"/>
   <path id="svg_257" fill="#263238" d="m165.19849,209.92869s0.09,1.54 0,2.26c0,0.07 -0.18,0.08 -0.43,0.08c0,0 0,0 0,0a3.43,3.43 0 0 1 -3.21,-1.55c0,-0.08 0,-0.14 0.11,-0.09a5.2,5.2 0 0 0 3,1.15c0.07,-0.2 -0.23,-2.64 -0.12,-2.64a6.37,6.37 0 0 1 1.6,0.5c-0.08,-3.21 -0.69,-6.39 -0.72,-9.6a0.1,0.1 0 0 1 0.19,0a52.29,52.29 0 0 1 1.22,10.31c0.08,0.38 -1.36,-0.28 -1.64,-0.42z"/>
   <path id="svg_258" fill="#263238" d="m164.78849,211.97869a4.15,4.15 0 0 1 -1.66,1.33a1.87,1.87 0 0 1 -1.15,0.09c-0.83,-0.2 -0.86,-1 -0.72,-1.62a4.29,4.29 0 0 1 0.35,-1a5.46,5.46 0 0 0 3.18,1.2z"/>
   <path id="svg_259" fill="#ff9cbd" d="m163.12849,213.30869a1.87,1.87 0 0 1 -1.15,0.09c-0.83,-0.2 -0.86,-1 -0.72,-1.62a2,2 0 0 1 1.87,1.53z"/>
   <path id="svg_260" fill="#263238" d="m146.20849,205.11869c1.59,-0.1 5.72,-4.5 5.82,-12.2c0,0 -0.56,6.91 -1.08,7.92s2.31,-2.47 2.48,-8.68a25.16,25.16 0 0 0 6.38,3.28c2.94,0.81 4.73,0.78 4.94,0.56s-4.11,-1.55 -5.28,-2.89c0,0 7.81,3.59 11.4,3.85c0.42,0 0.31,-7.36 -5.27,-11s-13.78,-0.81 -16.14,1.48c0,0 -1.67,0.76 -4.67,4.88s-0.3,12.92 1.42,12.8z"/>
   <path id="svg_261" fill="#23A463" d="m145.90849,208.70869c0.76,2.1 -5.17,-7.39 -5.3,-8.94s2,-9.43 8.09,-13.35c5.11,-3.29 12,-2.15 13.17,-1.94a9.46,9.46 0 0 1 3.73,1.51s-9,-1.52 -16.14,1.48c-3.44,1.45 -6.41,13.4 -3.55,21.24z"/>
   <path id="svg_262" fill="#23A463" d="m145.85849,186.03869s1.19,-4.77 5.08,-6.51c0,0 1.12,4.05 0.12,5.83c-0.5,0.88 -3.58,2.16 -4.11,1.75a7.5,7.5 0 0 1 -1.09,-1.07z"/>
   <path id="svg_263" opacity="0.1" fill="#050400" d="m145.85849,186.03869a8.43,8.43 0 0 0 1.08,1.07a0.19,0.19 0 0 0 0.09,0a0.16,0.16 0 0 0 0.11,0l0.14,0a4.66,4.66 0 0 0 1.77,-0.47a9.65,9.65 0 0 0 -1,-1.6a2.84,2.84 0 0 0 -1.56,-0.72a10.53,10.53 0 0 0 -0.63,1.72z"/>
   <path id="svg_264" fill="#23A463" d="m145.04849,186.89869s-5.91,0.93 -8.22,3a8,8 0 0 0 5.45,2.34c1.36,-0.08 4.33,-3.55 3.92,-4.15a6.1,6.1 0 0 0 -1.15,-1.19z"/>
   <path id="svg_265" opacity="0.1" fill="#050400" d="m143.71849,187.14869a3.4,3.4 0 0 0 0.69,1.83a2.91,2.91 0 0 0 1,0.69c0.56,-0.73 0.91,-1.39 0.75,-1.62a5.91,5.91 0 0 0 -1.15,-1.15s-0.49,0.08 -1.29,0.25z"/>
   <path id="svg_266" fill="#23A463" d="m144.86849,188.35869a1.94,1.94 0 1 0 0,-2.74a1.93,1.93 0 0 0 0,2.74z"/>
   <path id="svg_267" fill="#774442" d="m147.45849,206.86869s-3,-4.9 -5.18,-3.87s-0.18,8 2.25,9.08a2.56,2.56 0 0 0 3.5,-1.14l-0.57,-4.07z"/>
   <path id="svg_268" fill="#263238" d="m142.90849,204.97869s0,0.05 0,0.06c1.71,0.83 2.52,2.51 3.06,4.24a1.4,1.4 0 0 0 -2.07,-0.52s0,0.1 0,0.09a1.57,1.57 0 0 1 1.68,0.66a7,7 0 0 1 0.73,1.45c0.07,0.16 0.36,0.09 0.31,-0.09l0,0c0.2,-2.27 -1.34,-5.51 -3.71,-5.89z"/>
   <path id="svg_269" fill="#774442" d="m362.79849,352.67869c-0.79,2.13 -39.4,50.13 -42,51c-1,0.34 -8.32,-4.87 -17,-11.43c-1.87,-1.41 -3.8,-2.88 -5.74,-4.39c-12.65,-9.74 -25.78,-20.4 -25.78,-20.4l25.68,-32.22l25.12,21.31l5.52,4.67s23,-11.76 26,-12.44s8.99,1.77 8.2,3.9z"/>
   <path id="svg_270" fill="#ebebeb" d="m291.27849,382.63869c2.21,1.73 4.5,3.5 6.75,5.25c2,1.51 3.87,3 5.73,4.4c8.67,6.55 16,11.76 17,11.41c2.63,-0.9 41.24,-48.89 42,-51s-5.23,-4.52 -8.21,-3.86s-26,12.45 -26,12.45l-5.52,-4.68l-5.6,-4.76l-26.15,30.79z"/>
   <path id="svg_271" fill="#23A463" d="m363.27849,352.45869c-0.81,2.16 -40.31,50.8 -43,51.7c-1.23,0.42 -11.93,-7.55 -23,-16.19l25.56,-31.73l5.59,4.78s23.46,-11.86 26.5,-12.53s9.15,1.81 8.35,3.97z"/>
   <path id="svg_272" fill="#263238" d="m360.74849,351.57869c-6.82,8 -33.58,40.86 -39.71,49.28c-0.05,0.07 0,0.1 0.05,0c6.93,-7.77 33.42,-40.86 39.8,-49.22c0.13,-0.13 0.01,-0.23 -0.14,-0.06z"/>
   <path id="svg_273" fill="#263238" d="m327.55849,358.40869c-3.21,2.72 -5.9,7.05 -5.61,11.36c0,0.16 0.25,0.14 0.3,0a59.09,59.09 0 0 1 5.7,-11a0.26,0.26 0 0 0 -0.39,-0.36z"/>
   <path id="svg_274" fill="#263238" d="m330.82849,357.23869c-3.2,2.72 -5.9,7.05 -5.6,11.35c0,0.17 0.25,0.15 0.3,0a57.92,57.92 0 0 1 5.7,-11a0.27,0.27 0 0 0 -0.4,-0.35z"/>
   <path id="svg_275" fill="#263238" d="m334.10849,356.04869c-3.21,2.72 -5.9,7 -5.6,11.35c0,0.17 0.24,0.15 0.3,0a58.15,58.15 0 0 1 5.69,-11a0.26,0.26 0 0 0 -0.39,-0.35z"/>
   <path id="svg_276" fill="#263238" d="m337.38849,354.85869c-3.21,2.73 -5.9,7.05 -5.61,11.36c0,0.17 0.25,0.15 0.3,0a57.9,57.9 0 0 1 5.7,-11a0.27,0.27 0 0 0 -0.39,-0.36z"/>
   <path id="svg_277" fill="#263238" d="m324.94849,346.45869c-2.76,-0.15 -3.89,2.83 -3.85,5.09a22.05,22.05 0 0 0 3.34,10.91a0.1,0.1 0 0 0 0.17,0a0.51,0.51 0 0 0 0.81,-0.17c1.17,-3.45 2.85,-7 2.93,-10.69c0.05,-2.15 -0.79,-5 -3.4,-5.14zm1.18,10.25c-0.53,1.71 -1.15,3.38 -1.62,5.11a64.32,64.32 0 0 1 -1.81,-6.42a24.27,24.27 0 0 1 -0.42,-3.16c-0.09,-1.66 1.13,-6.94 4.19,-3.51c1.65,1.85 0.3,5.94 -0.34,7.98z"/>
   <path id="svg_278" fill="#263238" d="m316.97849,369.92869c3.27,-1.73 5.68,-4.82 8.24,-7.41a0.51,0.51 0 0 0 -0.2,-0.8c0,-0.07 0,-0.14 -0.1,-0.15a22.12,22.12 0 0 0 -11.25,1.91c-2,1 -4.19,3.32 -2.82,5.72s4.22,1.74 6.13,0.73zm-3.47,-0.41c-4.43,-1.2 -0.26,-4.66 1.27,-5.32a23.36,23.36 0 0 1 3.06,-1a66.17,66.17 0 0 1 6.54,-1.26c-1.33,1.2 -2.55,2.5 -3.84,3.74c-1.53,1.46 -4.58,4.5 -7.03,3.84z"/>
   <path id="svg_279" fill="#455a64" d="m321.71849,351.65869l-27.09,36.58l-91.43,-63.45l-8.82,-6.12s-2.49,1.68 -6.25,3.76c-5.22,2.89 -12.87,6.54 -19.64,7.54c-11.35,1.68 -30.3,1.49 -39.86,-11.3c-8.06,-10.77 -3.69,-24.82 -3.69,-24.82l12.47,-5.36s29.49,-24.57 48.59,-25.31c8.12,-0.32 19.93,5.83 30.88,12.25s104.84,76.23 104.84,76.23z"/>
   <path id="svg_280" fill="#263238" d="m194.37849,318.64869s-2.49,1.68 -6.25,3.76c-6.64,-7.95 -20.71,-22.4 -21.14,-22.91l27.39,19.15z"/>
   <path id="svg_281" fill="#263238" d="m148.20849,280.23869c-1.76,1.22 -3.46,2.52 -5.2,3.78s-3.48,2.4 -5.11,3.75s-3.22,2.84 -4.78,4.31c-0.75,0.72 -1.49,1.44 -2.22,2.18a19.2,19.2 0 0 0 -2.12,2.3c-0.06,0.08 0,0.17 0.13,0.12a25.36,25.36 0 0 0 2.37,-1.91l2.46,-2.1c1.59,-1.34 3.2,-2.65 4.78,-4s3,-2.81 4.59,-4.17s3.42,-2.81 5.15,-4.18c0.02,-0.08 0.02,-0.08 -0.05,-0.08z"/>
   <path id="svg_282" fill="#263238" d="m315.35849,350.34869c-1.76,1.9 -3.38,3.94 -5,5.94s-3.28,4 -4.91,6.06c-3.25,4.06 -6.53,8.1 -9.72,12.2c-1.75,2.26 -3.49,4.53 -5.12,6.88c-0.07,0.1 0.1,0.22 0.18,0.13c3.5,-3.85 6.69,-7.95 9.94,-12s6.48,-8.14 9.67,-12.25c1.74,-2.25 3.54,-4.49 5.14,-6.84c0.05,-0.1 -0.1,-0.23 -0.18,-0.12z"/>
   <path id="svg_283" fill="#263238" d="m240.32849,350.71869c-4.55,-3.58 -9.27,-7 -14,-10.33s-9.39,-6.7 -14.15,-9.95c-1.37,-0.93 -2.75,-1.84 -4.12,-2.76s-2.81,-1.76 -4.16,-2.7c-0.08,-0.06 -0.15,0.07 -0.07,0.13c1.24,0.88 2.41,1.88 3.62,2.8s2.31,1.77 3.48,2.63c2.29,1.69 4.6,3.35 6.9,5q7,5.07 14.13,10c2.7,1.85 5.39,3.71 8.14,5.47c0.18,0.09 0.38,-0.17 0.23,-0.29z"/>
   <path id="svg_284" fill="#263238" d="m269.56849,312.99869c-4.21,-3.48 -8.71,-6.62 -13.12,-9.84s-8.89,-6.54 -13.36,-9.78l-13.32,-9.62c-4.3,-3.11 -8.58,-6.27 -13.13,-9q-3.74,-2.26 -7.66,-4.16a49.47,49.47 0 0 0 -7.92,-3.23c-0.08,0 -0.12,0.09 -0.05,0.13c2.24,1.25 4.59,2.31 6.86,3.51s4.45,2.45 6.62,3.77c4.51,2.73 8.77,5.84 13,8.92c8.89,6.39 17.76,12.81 26.71,19.11c5,3.53 9.92,7.25 15.12,10.49c0.21,0.07 0.4,-0.18 0.25,-0.3z"/>
  </g>
 </g>

</svg>