<?xml version="1.0" standalone="no"?><!DOCTYPE svg PUBLIC "-//W3C//DTD SVG 1.1//EN" "http://www.w3.org/Graphics/SVG/1.1/DTD/svg11.dtd"><svg t="1656065457414" class="icon" viewBox="0 0 1024 1024" version="1.1" xmlns="http://www.w3.org/2000/svg" p-id="2952" width="48" height="48" xmlns:xlink="http://www.w3.org/1999/xlink"><defs><style type="text/css"></style></defs><path d="M192 736c-54.4 0-96-41.6-96-96s41.6-96 96-96 96 41.6 96 96-41.6 96-96 96z m0-64c19.2 0 32-12.8 32-32s-12.8-32-32-32-32 12.8-32 32 12.8 32 32 32zM512 608c-54.4 0-96-41.6-96-96s41.6-96 96-96 96 41.6 96 96-41.6 96-96 96z m0-64c19.2 0 32-12.8 32-32s-12.8-32-32-32-32 12.8-32 32 12.8 32 32 32zM832 480c-54.4 0-96-41.6-96-96s41.6-96 96-96 96 41.6 96 96-41.6 96-96 96z m0-64c19.2 0 32-12.8 32-32s-12.8-32-32-32-32 12.8-32 32 12.8 32 32 32z" fill="#50E3C2" p-id="2953"></path><path d="M192 96c19.2 0 32 12.8 32 32v320c0 19.2-12.8 32-32 32s-32-12.8-32-32V128c0-19.2 12.8-32 32-32zM832 544c19.2 0 32 12.8 32 32v320c0 19.2-12.8 32-32 32s-32-12.8-32-32V576c0-19.2 12.8-32 32-32zM512 96c19.2 0 32 12.8 32 32v192c0 19.2-12.8 32-32 32s-32-12.8-32-32V128c0-19.2 12.8-32 32-32zM512 672c19.2 0 32 12.8 32 32v192c0 19.2-12.8 32-32 32s-32-12.8-32-32v-192c0-19.2 12.8-32 32-32zM192 800c19.2 0 32 12.8 32 32v64c0 19.2-12.8 32-32 32s-32-12.8-32-32v-64c0-19.2 12.8-32 32-32zM832 96c19.2 0 32 12.8 32 32v64c0 19.2-12.8 32-32 32s-32-12.8-32-32V128c0-19.2 12.8-32 32-32z" fill="#597EF7" p-id="2954"></path></svg>