<?xml version="1.0" standalone="no"?><!DOCTYPE svg PUBLIC "-//W3C//DTD SVG 1.1//EN" "http://www.w3.org/Graphics/SVG/1.1/DTD/svg11.dtd">
<svg t="1656556418721" class="icon" viewBox="0 0 1024 1024" version="1.1" xmlns="http://www.w3.org/2000/svg" p-id="2372"
     width="64" height="64"><defs><style type="text/css"></style></defs><path d="M1006.933333 221.866667c-12.8-8.533333-25.6-8.533333-38.4-4.266667L810.666667 281.6C806.4 128 674.133333 0 512 0 354.133333 0 221.866667 123.733333 213.333333 277.333333L25.6 358.4c-17.066667 4.266667-25.6 21.333333-25.6 38.4V981.333333c0 12.8 8.533333 25.6 17.066667 34.133334 8.533333 4.266667 17.066667 8.533333 25.6 8.533333 4.266667 0 12.8 0 17.066666-4.266667l311.466667-132.266666 264.533333 132.266666c12.8 4.266667 25.6 4.266667 34.133334 0l328.533333-140.8c17.066667-8.533333 25.6-21.333333 25.6-38.4V256c0-12.8-8.533333-25.6-17.066667-34.133333zM512 85.333333c119.466667 0 213.333333 93.866667 213.333333 209.066667 0 136.533333-153.6 268.8-213.333333 315.733333-76.8-59.733333-213.333333-192-213.333333-315.733333C298.666667 179.2 392.533333 85.333333 512 85.333333z m426.666667 725.333334l-285.866667 123.733333-264.533333-132.266667c-12.8-4.266667-25.6-4.266667-34.133334 0L85.333333 917.333333V426.666667l136.533334-59.733334c46.933333 179.2 256 324.266667 264.533333 332.8 8.533333 4.266667 17.066667 8.533333 25.6 8.533334s17.066667-4.266667 25.6-8.533334c8.533333-8.533333 204.8-140.8 260.266667-315.733333L938.666667 320V810.666667z" p-id="2373"></path><path d="M652.8 298.666667c0-76.8-64-140.8-140.8-140.8S371.2 221.866667 371.2 298.666667s64 140.8 140.8 140.8 140.8-64 140.8-140.8z m-196.266667 0c0-29.866667 25.6-55.466667 55.466667-55.466667s55.466667 25.6 55.466667 55.466667-25.6 55.466667-55.466667 55.466666-55.466667-25.6-55.466667-55.466666z" p-id="2374"></path></svg>
