<?xml version="1.0" standalone="no"?><!DOCTYPE svg PUBLIC "-//W3C//DTD SVG 1.1//EN" "http://www.w3.org/Graphics/SVG/1.1/DTD/svg11.dtd">
<svg t="1656336078369" class="icon" viewBox="0 0 1024 1024" version="1.1" xmlns="http://www.w3.org/2000/svg" p-id="1585"
     width="200" height="200"><defs><style type="text/css"></style></defs><path d="M937.025 463.794h-850.050c-13.781 0-24.975-10.8-24.975-24.131v-48.206c0-13.331 11.194-24.131 24.975-24.131h849.994c13.838 0 25.031 10.8 25.031 24.131v48.206c0 13.331-11.194 24.131-24.975 24.131zM536.975 270.912h-249.975c-13.781 0-24.975-10.8-24.975-24.131v-48.206c-0.056-13.275 11.194-24.075 24.975-24.075h249.975c13.837 0 25.031 10.8 25.031 24.075v48.206c0 13.331-11.194 24.131-25.031 24.131zM136.981 270.912h-50.006c-13.781 0-24.975-10.8-24.975-24.075v-48.263c0-13.275 11.194-24.075 24.975-24.075h50.006c13.781 0 24.975 10.8 24.975 24.075v48.206c0.056 13.331-11.137 24.131-24.975 24.131zM86.975 560.206h50.006c13.781 0 24.975 10.8 24.975 24.131v48.206c0 13.331-11.194 24.131-24.975 24.131h-50.006c-13.781-0.056-24.975-10.8-24.975-24.131v-48.206c0-13.331 11.194-24.131 24.975-24.131zM86.975 753.088h550.012c13.837 0 24.975 10.8 24.975 24.131v48.206c0 13.331-11.194 24.131-24.975 24.131h-550.012c-13.781-0.056-24.975-10.856-24.975-24.188v-48.206c0-13.275 11.194-24.075 24.975-24.075zM261.969 632.544v-48.206c0-13.331 11.194-24.131 24.975-24.131h600.019c13.781 0 24.975 10.8 24.975 24.131v48.206c0 13.331-11.194 24.131-24.975 24.131h-599.963c-13.781-0.056-25.031-10.8-25.031-24.131z" p-id="1586"></path></svg>
