<?xml version="1.0" standalone="no"?><!DOCTYPE svg PUBLIC "-//W3C//DTD SVG 1.1//EN" "http://www.w3.org/Graphics/SVG/1.1/DTD/svg11.dtd">
<svg t="1697874121909" class="icon" viewBox="0 0 1024 1024" version="1.1" xmlns="http://www.w3.org/2000/svg" p-id="4064"
     width="64" height="64"><path d="M804.1 912.6v-567l-232.4-1c-13.3-0.1-24.1-10.9-24.1-24.2v-232H291v824.1h513.1z" fill="#91B4FF" p-id="4065"></path><path d="M596.1 142.8v153.4l171.3 0.7z" fill="#91B4FF" p-id="4066"></path><path d="M194.1 364.5c-13.4 0-24.2-10.9-24.2-24.2V88.4c0-13.4 10.8-24.2 24.2-24.2h377.7c13.4 0 24.2 10.9 24.2 24.2s-10.8 24.2-24.2 24.2H218.3v227.6c0 13.4-10.8 24.3-24.2 24.3zM194.1 515.2c-13.4 0-24.2-10.9-24.2-24.2v-58.8c0-13.4 10.8-24.2 24.2-24.2s24.2 10.9 24.2 24.2V491c0 13.4-10.8 24.2-24.2 24.2z" fill="#3778FF" p-id="4067"></path><path d="M852.3 318.3v-0.5-0.6c0-0.2 0-0.5-0.1-0.7 0-0.2 0-0.3-0.1-0.5 0-0.3-0.1-0.5-0.1-0.8 0-0.1 0-0.3-0.1-0.4-0.1-0.3-0.1-0.6-0.2-0.8 0-0.1-0.1-0.3-0.1-0.4-0.1-0.3-0.1-0.6-0.2-0.8 0-0.1-0.1-0.3-0.1-0.4-0.1-0.3-0.2-0.5-0.3-0.8 0-0.1-0.1-0.3-0.1-0.4-0.1-0.2-0.2-0.5-0.3-0.7-0.1-0.2-0.1-0.3-0.2-0.5l-0.3-0.6-0.3-0.6c0-0.1-0.1-0.2-0.1-0.3-0.3-0.6-0.6-1.1-0.9-1.7 0-0.1-0.1-0.1-0.1-0.2-0.2-0.3-0.3-0.5-0.5-0.7-0.1-0.1-0.1-0.2-0.2-0.3-0.2-0.2-0.3-0.4-0.5-0.7-0.1-0.1-0.2-0.2-0.3-0.4-0.2-0.2-0.3-0.4-0.5-0.6-0.1-0.1-0.2-0.3-0.4-0.4-0.1-0.2-0.3-0.3-0.4-0.5l-0.6-0.6-0.3-0.3c-0.3-0.3-0.6-0.6-1-0.9L587.8 70.4c-7.1-6.4-17.3-8-26.1-4.1-8.7 3.9-14.4 12.6-14.4 22.1v231.9c0 13.3 10.8 24.2 24.1 24.2l232.4 1v567H218.1V578.1c0-13.4-10.8-24.2-24.2-24.2s-24.2 10.9-24.2 24.2v358.7c0 13.4 10.8 24.2 24.2 24.2h634.2c13.4 0 24.2-10.9 24.2-24.2V319.1v-0.8z m-256.5-22.1V142.8l171.4 154.1-171.4-0.7z" fill="#3778FF" p-id="4068"></path><path d="M540.5 472.5h-220c-13.4 0-24.2-10.9-24.2-24.2s10.8-24.2 24.2-24.2h220.1c13.4 0 24.2 10.9 24.2 24.2s-10.9 24.2-24.3 24.2zM653.6 602.3H320.5c-13.4 0-24.2-10.9-24.2-24.2s10.8-24.2 24.2-24.2h333.1c13.4 0 24.2 10.9 24.2 24.2s-10.8 24.2-24.2 24.2zM702 732H320.5c-13.4 0-24.2-10.9-24.2-24.2 0-13.4 10.8-24.2 24.2-24.2H702c13.4 0 24.2 10.9 24.2 24.2 0.1 13.4-10.8 24.2-24.2 24.2z" fill="#3778FF" p-id="4069"></path></svg>
