<?xml version="1.0" standalone="no"?><!DOCTYPE svg PUBLIC "-//W3C//DTD SVG 1.1//EN" "http://www.w3.org/Graphics/SVG/1.1/DTD/svg11.dtd">
<svg t="1656065489175" class="icon" viewBox="0 0 1029 1024" version="1.1" xmlns="http://www.w3.org/2000/svg" p-id="3871"
     width="48.234375" height="48"><defs><style type="text/css"></style></defs><path d="M200.87296 676.268274 200.87296 462.878233l-48.764634 0 0-33.731242 48.764634 0L200.87296 403.114081l51.697429 0 0 26.031886 48.764634 0 0 33.731242-48.764634 0 0 213.391065L200.87296 676.268274zM154.307412 664.168702 154.307412 474.976782l38.498826 0 0 189.19192L154.307412 664.168702zM260.269745 664.168702 260.269745 474.976782l38.498826 0 0 189.19192L260.269745 664.168702zM336.90003 462.144522l0-13.198603L307.567981 448.945919 307.567981 415.94634l29.332049 0 0-13.56597 51.331086 0 0 13.56597 48.397267 0 0-13.56597 50.964742 0 0 13.56597 29.698392 0 0 32.998555-29.698392 0 0 13.198603-50.964742 0 0-13.198603-48.397267 0 0 13.198603L336.90003 462.143499zM307.567981 638.136815c13.440104 0 25.539676-0.733711 36.298717-2.199085 10.752902-1.467421 19.432585-4.519943 26.031886-9.166777L307.567981 626.770953l0-33.364899 75.896574 0 0-11.732206 54.997592 0 0 11.732206 78.830393 0 0 33.364899-50.964742 0 30.798447 23.832801 20.166295 0-10.999518 24.931832-49.498344 0-35.19764-30.065759c-8.79941 9.046027-22.182208 16.253172-40.148395 21.632693-17.966187 5.373381-42.595121 8.18645-73.879638 8.433066L307.569004 638.136815zM452.028117 549.039591l-11.733229 28.599362L318.933843 577.638953 318.933843 466.177372 505.925654 466.177372l0 111.461581L452.028117 577.638953l0-41.065278-80.663134 0 0 12.465916L452.028117 549.039591zM371.364983 507.97636 452.028117 507.97636l0-12.465916-80.663134 0L371.364983 507.97636z" p-id="3872"></path><path d="M570.456367 675.16822l0-213.390042-50.964742 0 0-33.364899 50.964742 0 0-26.031886 53.897537 0 0 26.031886 51.330062 0 0 33.364899-51.330062 0 0 213.390042L570.456367 675.16822zM522.058077 663.434991 522.058077 474.244095l40.331567 0 0 189.190897L522.058077 663.434991zM632.785947 663.434991 632.785947 474.244095l40.331567 0 0 189.190897L632.785947 663.434991zM800.712541 513.109264c0.974188 9.533121 2.687202 18.458397 5.133927 26.765597 2.440585 8.312316 5.373381 16.133446 8.79941 23.465434 4.1536-8.552793 7.452739-17.536398 9.899464-26.948769 2.441609-9.406231 4.03285-19.614733 4.76656-30.614252l-85.062328 0 0 169.392992-65.99711 0 0-32.264844 10.633175 0L688.88564 403.114081l193.957457 0-15.399735 34.098609L744.248551 437.21269l0 36.298717 137.127124 0c0.973164 25.178449-1.529843 48.764634-7.517207 70.76367-5.991458 21.999037-15.708773 42.164309-29.147854 60.496839 4.886287 4.892427 10.019191 9.475815 15.399735 13.750165 5.373381 4.279467 11.238972 8.496511 17.59882 12.649088l0 44.364417c-24.445762-10.512425-45.465494-23.218818-63.064314-38.132482-18.092054 14.912641-39.111786 27.619034-63.064314 38.132482l0-44.364417c6.108115-4.1536 11.917424-8.370645 17.416671-12.649088 5.500271-4.27435 10.69048-8.856715 15.582907-13.750165-9.778714-13.198603-17.541515-27.435862-23.282263-42.714847-5.745864-15.272845-9.595542-31.588439-11.549034-48.946782L800.712541 513.110287z" p-id="3873"></path><path d="M526.46341 1011.064386c-65.620533 0-129.284505-12.854772-189.222619-38.20616-57.888432-24.484647-109.874433-59.533908-154.515143-104.174618-44.641733-44.64071-79.690994-96.627734-104.175641-154.515143-25.351388-59.937091-38.205137-123.601062-38.205137-189.222619s12.854772-129.284505 38.205137-189.222619c24.484647-57.887408 59.533908-109.874433 104.175641-154.515143 44.64071-44.64071 96.626711-79.68997 154.515143-104.174618C397.178905 51.683103 460.842877 38.829354 526.46341 38.829354c65.620533 0 129.284505 12.854772 189.221596 38.205137 57.887408 24.484647 109.874433 59.533908 154.515143 104.174618s79.68997 96.627734 104.174618 154.515143c25.351388 59.937091 38.20616 123.601062 38.20616 189.222619s-12.854772 129.284505-38.20616 189.222619c-24.484647 57.887408-59.533908 109.874433-104.174618 154.515143s-96.627734 79.68997-154.515143 104.174618C655.747915 998.210637 592.083943 1011.064386 526.46341 1011.064386zM526.46341 59.295478c-62.86784 0-123.848703 12.310374-181.25004 36.589336-55.44887 23.452131-105.248066 57.028854-148.016125 99.796914s-76.344782 92.567255-99.796914 148.016125C73.121368 401.098167 60.810994 462.07903 60.810994 524.94687c0 62.866816 12.310374 123.848703 36.589336 181.25004 23.452131 55.44887 57.028854 105.248066 99.796914 148.016125s92.567255 76.344782 148.016125 99.796914c57.401338 24.278963 118.382201 36.589336 181.25004 36.589336s123.847679-12.310374 181.249017-36.589336c55.44887-23.452131 105.249089-57.028854 148.017148-99.796914 42.767036-42.767036 76.343759-92.567255 99.79589-148.016125 24.278963-57.401338 36.589336-118.383224 36.589336-181.25004 0-62.86784-12.310374-123.848703-36.589336-181.25004-23.452131-55.44887-57.028854-105.248066-99.79589-148.016125-42.768059-42.768059-92.568279-76.343759-148.017148-99.796914C650.311089 71.604828 589.331249 59.295478 526.46341 59.295478z" p-id="3874"></path></svg>
