<?xml version="1.0" standalone="no"?><!DOCTYPE svg PUBLIC "-//W3C//DTD SVG 1.1//EN" "http://www.w3.org/Graphics/SVG/1.1/DTD/svg11.dtd"><svg t="1673591943341" class="icon" viewBox="0 0 1024 1024" version="1.1" xmlns="http://www.w3.org/2000/svg" p-id="2718" xmlns:xlink="http://www.w3.org/1999/xlink" width="512" height="512"><path d="M841.425455 752.058182h-46.545455V478.114909c0-147.921455-120.343273-268.264727-268.241455-268.264727h-29.27709c-147.921455 0-268.264727 120.343273-268.264728 268.264727v273.501091h-46.545454V478.114909c0-173.568 141.218909-314.810182 314.810182-314.810182h29.27709c173.568 0 314.786909 141.218909 314.78691 314.810182v273.943273zM113.221818 764.462545h797.556364v46.545455H113.221818z" p-id="2719"></path><path d="M512 86.318545m-73.518545 0a73.518545 73.518545 0 1 0 147.03709 0 73.518545 73.518545 0 1 0-147.03709 0Z" p-id="2720"></path><path d="M512 1011.502545c-93.905455 0-170.309818-76.404364-170.309818-170.309818h46.545454A123.904 123.904 0 0 0 512 964.957091a123.904 123.904 0 0 0 123.764364-123.764364h46.545454c0 93.905455-76.404364 170.309818-170.309818 170.309818z" p-id="2721"></path></svg>