<?xml version="1.0" standalone="no"?><!DOCTYPE svg PUBLIC "-//W3C//DTD SVG 1.1//EN" "http://www.w3.org/Graphics/SVG/1.1/DTD/svg11.dtd"><svg t="1657618439838" class="icon" viewBox="0 0 1024 1024" version="1.1" xmlns="http://www.w3.org/2000/svg" p-id="10930" xmlns:xlink="http://www.w3.org/1999/xlink" width="64" height="64"><defs><style type="text/css"></style></defs><path d="M202.1 885h-102V444h102v441z m-72-30h42V474h-42v381zM339.8 885h-102V320h102v565z m-72-30h42V350h-42v505zM477.5 885h-102l-0.4-297h30l0.3 267h42l-0.3-204h30zM615.1 885h-102V679h30v176h42V691h30z" p-id="10931"></path><path d="M615.1 706c-77.2 0-149.8-30.1-204.4-84.6-54.6-54.6-84.6-127.2-84.6-204.4s30.1-149.8 84.6-204.4C465.3 158 537.9 128 615.1 128s149.8 30.1 204.4 84.6c54.6 54.6 84.6 127.2 84.6 204.4S874 566.8 819.5 621.4C764.9 675.9 692.3 706 615.1 706z m0-548c-69.2 0-134.2 26.9-183.1 75.9-48.9 48.9-75.9 114-75.9 183.1S383 551.2 432 600.1C480.9 649 546 676 615.1 676s134.2-26.9 183.1-75.9c48.9-48.9 75.9-114 75.9-183.1s-26.9-134.2-75.9-183.1c-48.9-49-113.9-75.9-183.1-75.9z" p-id="10932"></path><path d="M777.513 617.637l21.213-21.213 143.966 143.965-21.213 21.213z" p-id="10933"></path><path d="M674.1 686h-30V269h185v334h-30V299h-125zM579.1 688h-30V424h-125v204.4h-30V394h185z" p-id="10934"></path></svg>